<svg width="35" height="35" viewBox="0 0 35 35" fill="none" xmlns="http://www.w3.org/2000/svg">
<path d="M7.56838 9.30378C7.29129 9.30378 6.99963 9.18711 6.79546 8.98294C6.37254 8.56003 6.37254 7.86003 6.79546 7.43711L12.0892 2.14336C12.5121 1.72044 13.2121 1.72044 13.635 2.14336C14.058 2.56628 14.058 3.26628 13.635 3.68919L8.34129 8.98294C8.12254 9.18711 7.84546 9.30378 7.56838 9.30378Z" fill="#A98467"/>
<path d="M27.4317 9.30378C27.1546 9.30378 26.8775 9.20169 26.6588 8.98294L21.365 3.68919C20.9421 3.26628 20.9421 2.56628 21.365 2.14336C21.788 1.72044 22.488 1.72044 22.9109 2.14336L28.2046 7.43711C28.6275 7.86003 28.6275 8.56003 28.2046 8.98294C28.0005 9.18711 27.7088 9.30378 27.4317 9.30378Z" fill="#A98467"/>
<path d="M29.473 15.4583C29.3709 15.4583 29.2688 15.4583 29.1667 15.4583H28.8313H5.83341C4.81258 15.4729 3.64591 15.4729 2.80008 14.6271C2.12925 13.9708 1.823 12.95 1.823 11.4479C1.823 7.4375 4.75425 7.4375 6.15425 7.4375H28.8459C30.2459 7.4375 33.1772 7.4375 33.1772 11.4479C33.1772 12.9646 32.8709 13.9708 32.2001 14.6271C31.4417 15.3854 30.4209 15.4583 29.473 15.4583ZM6.15425 13.2708H29.1813C29.8376 13.2854 30.4501 13.2854 30.6542 13.0813C30.7563 12.9792 30.9751 12.6292 30.9751 11.4479C30.9751 9.8 30.5667 9.625 28.8313 9.625H6.15425C4.41883 9.625 4.0105 9.8 4.0105 11.4479C4.0105 12.6292 4.24383 12.9792 4.33133 13.0813C4.5355 13.2708 5.16258 13.2708 5.80425 13.2708H6.15425Z" fill="#A98467"/>
<path d="M14.2334 26.6873C13.6355 26.6873 13.1396 26.1915 13.1396 25.5936V20.4165C13.1396 19.8186 13.6355 19.3228 14.2334 19.3228C14.8313 19.3228 15.3271 19.8186 15.3271 20.4165V25.5936C15.3271 26.2061 14.8313 26.6873 14.2334 26.6873Z" fill="#A98467"/>
<path d="M20.9419 26.6873C20.344 26.6873 19.8481 26.1915 19.8481 25.5936V20.4165C19.8481 19.8186 20.344 19.3228 20.9419 19.3228C21.5398 19.3228 22.0356 19.8186 22.0356 20.4165V25.5936C22.0356 26.2061 21.5398 26.6873 20.9419 26.6873Z" fill="#A98467"/>
<path d="M21.7145 33.1773H12.9208C7.69993 33.1773 6.53326 30.0711 6.08118 27.3732L4.02493 14.7586C3.92284 14.1607 4.33118 13.6065 4.92909 13.5044C5.52701 13.4023 6.08118 13.8107 6.18326 14.4086L8.23951 27.0086C8.66243 29.5898 9.53743 30.9898 12.9208 30.9898H21.7145C25.4624 30.9898 25.8853 29.6773 26.3666 27.1398L28.8166 14.3794C28.9333 13.7815 29.502 13.3878 30.0999 13.519C30.6978 13.6357 31.077 14.2044 30.9603 14.8023L28.5103 27.5627C27.9416 30.5232 26.9937 33.1773 21.7145 33.1773Z" fill="#A98467"/>
</svg>
