<svg width="22" height="24" viewBox="0 0 22 24" fill="none" xmlns="http://www.w3.org/2000/svg">
<path d="M4.75723 5.60244C4.58306 5.60244 4.39973 5.52702 4.2714 5.39504C4.00556 5.12165 4.00556 4.66913 4.2714 4.39574L7.5989 0.9736C7.86473 0.700206 8.30473 0.700206 8.57056 0.9736C8.8364 1.24699 8.8364 1.69951 8.57056 1.9729L5.24306 5.39504C5.10556 5.52702 4.9314 5.60244 4.75723 5.60244Z" fill="#A98467"/>
<path d="M17.2427 5.60244C17.0685 5.60244 16.8944 5.53645 16.7569 5.39504L13.4294 1.9729C13.1635 1.69951 13.1635 1.24699 13.4294 0.9736C13.6952 0.700206 14.1352 0.700206 14.401 0.9736L17.7285 4.39574C17.9944 4.66913 17.9944 5.12165 17.7285 5.39504C17.6002 5.52702 17.4169 5.60244 17.2427 5.60244Z" fill="#A98467"/>
<path d="M18.526 9.58106C18.4618 9.58106 18.3977 9.58106 18.3335 9.58106H18.1227H3.66683C3.02516 9.59048 2.29183 9.59048 1.76016 9.04369C1.3385 8.61946 1.146 7.95955 1.146 6.98853C1.146 4.396 2.9885 4.396 3.8685 4.396H18.1318C19.0118 4.396 20.8543 4.396 20.8543 6.98853C20.8543 7.96897 20.6618 8.61946 20.2402 9.04369C19.7635 9.53392 19.1218 9.58106 18.526 9.58106ZM3.8685 8.16695H18.3427C18.7552 8.17638 19.1402 8.17638 19.2685 8.04439C19.3327 7.9784 19.4702 7.75214 19.4702 6.98853C19.4702 5.92323 19.2135 5.8101 18.1227 5.8101H3.8685C2.77766 5.8101 2.521 5.92323 2.521 6.98853C2.521 7.75214 2.66766 7.9784 2.72266 8.04439C2.851 8.16695 3.24516 8.16695 3.6485 8.16695H3.8685Z" fill="#A98467"/>
<path d="M8.94678 16.8399C8.57094 16.8399 8.25928 16.5194 8.25928 16.1329V12.7862C8.25928 12.3996 8.57094 12.0791 8.94678 12.0791C9.32261 12.0791 9.63428 12.3996 9.63428 12.7862V16.1329C9.63428 16.5288 9.32261 16.8399 8.94678 16.8399Z" fill="#A98467"/>
<path d="M13.1636 16.8399C12.7877 16.8399 12.4761 16.5194 12.4761 16.1329V12.7862C12.4761 12.3996 12.7877 12.0791 13.1636 12.0791C13.5394 12.0791 13.8511 12.3996 13.8511 12.7862V16.1329C13.8511 16.5288 13.5394 16.8399 13.1636 16.8399Z" fill="#A98467"/>
<path d="M13.649 21.0353H8.12152C4.83986 21.0353 4.10652 19.0272 3.82236 17.2832L2.52986 9.12849C2.46569 8.74197 2.72236 8.38373 3.09819 8.31773C3.47402 8.25174 3.82236 8.51571 3.88652 8.90223L5.17902 17.0475C5.44486 18.7161 5.99486 19.6212 8.12152 19.6212H13.649C16.0049 19.6212 16.2707 18.7727 16.5732 17.1323L18.1132 8.88338C18.1865 8.49685 18.544 8.24231 18.9199 8.32716C19.2957 8.40258 19.534 8.77025 19.4607 9.15677L17.9207 17.4057C17.5632 19.3195 16.9674 21.0353 13.649 21.0353Z" fill="#A98467"/>
</svg>
