<svg width="13" height="13" viewBox="0 0 13 13" fill="none" xmlns="http://www.w3.org/2000/svg">
<path d="M2.88107 3.67376C2.78278 3.67376 2.67932 3.63204 2.6069 3.55904C2.45688 3.40782 2.45688 3.15752 2.6069 3.0063L4.48469 1.11342C4.63471 0.962195 4.88301 0.962195 5.03303 1.11342C5.18305 1.26464 5.18305 1.51494 5.03303 1.66616L3.15523 3.55904C3.07764 3.63204 2.97935 3.67376 2.88107 3.67376Z" fill="white"/>
<path d="M9.92695 3.67376C9.82867 3.67376 9.73038 3.63726 9.65278 3.55904L7.77499 1.66616C7.62497 1.51494 7.62497 1.26464 7.77499 1.11342C7.925 0.962195 8.17331 0.962195 8.32333 1.11342L10.2011 3.0063C10.3511 3.15752 10.3511 3.40782 10.2011 3.55904C10.1287 3.63204 10.0252 3.67376 9.92695 3.67376Z" fill="white"/>
<path d="M10.6511 5.87484C10.6149 5.87484 10.5786 5.87484 10.5424 5.87484H10.4235H2.26565C1.90354 5.88005 1.4897 5.88005 1.18967 5.57761C0.951711 5.34295 0.843079 4.97794 0.843079 4.44084C0.843079 3.00684 1.88285 3.00684 2.37946 3.00684H10.4286C10.9252 3.00684 11.965 3.00684 11.965 4.44084C11.965 4.98315 11.8564 5.34295 11.6184 5.57761C11.3494 5.84877 10.9873 5.87484 10.6511 5.87484ZM2.37946 5.09266H10.5476C10.7804 5.09787 10.9977 5.09787 11.0701 5.02487C11.1063 4.98836 11.1839 4.86322 11.1839 4.44084C11.1839 3.85159 11.039 3.78902 10.4235 3.78902H2.37946C1.76387 3.78902 1.61903 3.85159 1.61903 4.44084C1.61903 4.86322 1.7018 4.98836 1.73283 5.02487C1.80525 5.09266 2.02769 5.09266 2.25531 5.09266H2.37946Z" fill="white"/>
<path d="M5.24527 9.89018C5.03318 9.89018 4.8573 9.71289 4.8573 9.49909V7.64793C4.8573 7.43413 5.03318 7.25684 5.24527 7.25684C5.45737 7.25684 5.63325 7.43413 5.63325 7.64793V9.49909C5.63325 9.7181 5.45737 9.89018 5.24527 9.89018Z" fill="white"/>
<path d="M7.62497 9.89018C7.41288 9.89018 7.237 9.71289 7.237 9.49909V7.64793C7.237 7.43413 7.41288 7.25684 7.62497 7.25684C7.83707 7.25684 8.01295 7.43413 8.01295 7.64793V9.49909C8.01295 9.7181 7.83707 9.89018 7.62497 9.89018Z" fill="white"/>
<path d="M7.89892 12.2104H4.77961C2.92768 12.2104 2.51384 11.0997 2.35347 10.135L1.62408 5.62446C1.58787 5.41066 1.73271 5.21251 1.94481 5.17601C2.1569 5.1395 2.35347 5.28551 2.38968 5.49931L3.11908 10.0047C3.26909 10.9277 3.57947 11.4282 4.77961 11.4282H7.89892C9.22838 11.4282 9.3784 10.9589 9.54911 10.0516L10.4182 5.48888C10.4596 5.27508 10.6613 5.13429 10.8734 5.18122C11.0855 5.22294 11.22 5.4263 11.1786 5.6401L10.3095 10.2028C10.1078 11.2614 9.77154 12.2104 7.89892 12.2104Z" fill="white"/>
</svg>
