<svg width="14" height="14" viewBox="0 0 14 14" fill="none" xmlns="http://www.w3.org/2000/svg">
<mask id="path-1-inside-1_597_128" fill="white">
<path d="M3.19376 3.92588C3.07684 3.92588 2.95376 3.87665 2.86761 3.7905C2.68915 3.61204 2.68915 3.31665 2.86761 3.13819L5.10145 0.904354C5.27991 0.725893 5.5753 0.725893 5.75376 0.904354C5.93222 1.08281 5.93222 1.3782 5.75376 1.55666L3.51992 3.7905C3.42761 3.87665 3.31069 3.92588 3.19376 3.92588Z"/>
</mask>
<path d="M2.86761 3.13819L2.1605 2.43109L2.86761 3.13819ZM5.10145 0.904354L5.80856 1.61146V1.61146L5.10145 0.904354ZM5.75376 1.55666L6.46086 2.26377L5.75376 1.55666ZM3.51992 3.7905L4.20223 4.52156L4.21484 4.50979L4.22702 4.49761L3.51992 3.7905ZM3.19376 2.92588C3.27317 2.92588 3.34194 2.942 3.39926 2.96556C3.45693 2.98926 3.51798 3.02666 3.57472 3.08339L2.1605 4.49761C2.43702 4.77413 2.81565 4.92588 3.19376 4.92588V2.92588ZM3.57472 3.08339C3.78678 3.29546 3.78678 3.63324 3.57472 3.8453L2.1605 2.43109C1.59152 3.00007 1.59152 3.92862 2.1605 4.49761L3.57472 3.08339ZM3.57472 3.8453L5.80856 1.61146L4.39434 0.197247L2.1605 2.43109L3.57472 3.8453ZM5.80856 1.61146C5.59649 1.82352 5.25871 1.82352 5.04665 1.61146L6.46086 0.197247C5.89188 -0.371739 4.96333 -0.371739 4.39434 0.197247L5.80856 1.61146ZM5.04665 1.61146C4.83459 1.3994 4.83459 1.06162 5.04665 0.849553L6.46086 2.26377C7.02985 1.69478 7.02985 0.766232 6.46086 0.197247L5.04665 1.61146ZM5.04665 0.849553L2.81281 3.08339L4.22702 4.49761L6.46086 2.26377L5.04665 0.849553ZM2.8376 3.05944C2.90972 2.99213 3.03038 2.92588 3.19376 2.92588V4.92588C3.591 4.92588 3.9455 4.76117 4.20223 4.52156L2.8376 3.05944Z" fill="#A98467" mask="url(#path-1-inside-1_597_128)"/>
<mask id="path-3-inside-2_597_128" fill="white">
<path d="M11.5755 3.92588C11.4586 3.92588 11.3416 3.88281 11.2493 3.7905L9.0155 1.55666C8.83704 1.3782 8.83704 1.08281 9.0155 0.904354C9.19396 0.725893 9.48934 0.725893 9.6678 0.904354L11.9016 3.13819C12.0801 3.31665 12.0801 3.61204 11.9016 3.7905C11.8155 3.87665 11.6924 3.92588 11.5755 3.92588Z"/>
</mask>
<path d="M11.2493 3.7905L11.9564 3.08339L11.2493 3.7905ZM9.0155 1.55666L8.30839 2.26377L8.30839 2.26377L9.0155 1.55666ZM9.6678 0.904354L8.9607 1.61146L8.9607 1.61146L9.6678 0.904354ZM11.9016 3.13819L12.6088 2.43109L11.9016 3.13819ZM11.5755 2.92588C11.7095 2.92588 11.8513 2.97828 11.9564 3.08339L10.5422 4.49761C10.832 4.78733 11.2077 4.92588 11.5755 4.92588V2.92588ZM11.9564 3.08339L9.72261 0.849553L8.30839 2.26377L10.5422 4.49761L11.9564 3.08339ZM9.72261 0.849553C9.93467 1.06162 9.93467 1.3994 9.72261 1.61146L8.30839 0.197247C7.73941 0.766232 7.73941 1.69478 8.30839 2.26377L9.72261 0.849553ZM9.72261 1.61146C9.51054 1.82352 9.17276 1.82352 8.9607 1.61146L10.3749 0.197247C9.80593 -0.371739 8.87738 -0.371739 8.30839 0.197247L9.72261 1.61146ZM8.9607 1.61146L11.1945 3.8453L12.6088 2.43109L10.3749 0.197247L8.9607 1.61146ZM11.1945 3.8453C10.9825 3.63324 10.9825 3.29546 11.1945 3.08339L12.6088 4.49761C13.1777 3.92862 13.1777 3.00007 12.6088 2.43109L11.1945 3.8453ZM11.1945 3.08339C11.2513 3.02666 11.3123 2.98926 11.37 2.96556C11.4273 2.942 11.4961 2.92588 11.5755 2.92588V4.92588C11.9536 4.92588 12.3322 4.77413 12.6088 4.49761L11.1945 3.08339Z" fill="#A98467" mask="url(#path-3-inside-2_597_128)"/>
<mask id="path-5-inside-3_597_128" fill="white">
<path d="M12.4369 6.52328C12.3939 6.52328 12.3508 6.52328 12.3077 6.52328H12.1662H2.46159C2.03082 6.52943 1.53852 6.52943 1.18159 6.17251C0.898518 5.89559 0.769287 5.46482 0.769287 4.83098C0.769287 3.13867 2.00621 3.13867 2.59697 3.13867H12.1723C12.7631 3.13867 14 3.13867 14 4.83098C14 5.47097 13.8708 5.89559 13.5877 6.17251C13.2677 6.49251 12.8369 6.52328 12.4369 6.52328ZM2.59697 5.6002H12.3139C12.5908 5.60636 12.8493 5.60636 12.9354 5.5202C12.9785 5.47713 13.0708 5.32944 13.0708 4.83098C13.0708 4.13559 12.8985 4.06175 12.1662 4.06175H2.59697C1.86467 4.06175 1.69236 4.13559 1.69236 4.83098C1.69236 5.32944 1.79082 5.47713 1.82775 5.5202C1.9139 5.6002 2.17851 5.6002 2.44928 5.6002H2.59697Z"/>
</mask>
<path d="M2.46159 6.52328V5.52328H2.45445L2.44731 5.52338L2.46159 6.52328ZM1.18159 6.17251L1.88874 5.46536L1.88089 5.45768L1.18159 6.17251ZM13.5877 6.17251L12.8884 5.45763L12.8806 5.4654L13.5877 6.17251ZM12.3139 5.6002L12.3361 4.60045L12.325 4.6002H12.3139V5.6002ZM12.9354 5.5202L12.2283 4.8131L12.9354 5.5202ZM1.82775 5.5202L1.06849 6.171L1.10556 6.21424L1.14729 6.253L1.82775 5.5202ZM12.4369 5.52328C12.4369 5.52328 12.4368 5.52328 12.4367 5.52328C12.4366 5.52328 12.4365 5.52328 12.4364 5.52328C12.4364 5.52328 12.4363 5.52328 12.4362 5.52328C12.4361 5.52328 12.436 5.52328 12.4359 5.52328C12.4359 5.52328 12.4358 5.52328 12.4357 5.52328C12.4356 5.52328 12.4355 5.52328 12.4354 5.52328C12.4354 5.52328 12.4353 5.52328 12.4352 5.52328C12.4351 5.52328 12.435 5.52328 12.4349 5.52328C12.4348 5.52328 12.4348 5.52328 12.4347 5.52328C12.4346 5.52328 12.4345 5.52328 12.4344 5.52328C12.4343 5.52328 12.4343 5.52328 12.4342 5.52328C12.4341 5.52328 12.434 5.52328 12.4339 5.52328C12.4338 5.52328 12.4338 5.52328 12.4337 5.52328C12.4336 5.52328 12.4335 5.52328 12.4334 5.52328C12.4333 5.52328 12.4332 5.52328 12.4332 5.52328C12.4331 5.52328 12.433 5.52328 12.4329 5.52328C12.4328 5.52328 12.4327 5.52328 12.4327 5.52328C12.4326 5.52328 12.4325 5.52328 12.4324 5.52328C12.4323 5.52328 12.4322 5.52328 12.4322 5.52328C12.4321 5.52328 12.432 5.52328 12.4319 5.52328C12.4318 5.52328 12.4317 5.52328 12.4316 5.52328C12.4316 5.52328 12.4315 5.52328 12.4314 5.52328C12.4313 5.52328 12.4312 5.52328 12.4311 5.52328C12.4311 5.52328 12.431 5.52328 12.4309 5.52328C12.4308 5.52328 12.4307 5.52328 12.4306 5.52328C12.4306 5.52328 12.4305 5.52328 12.4304 5.52328C12.4303 5.52328 12.4302 5.52328 12.4301 5.52328C12.43 5.52328 12.43 5.52328 12.4299 5.52328C12.4298 5.52328 12.4297 5.52328 12.4296 5.52328C12.4295 5.52328 12.4295 5.52328 12.4294 5.52328C12.4293 5.52328 12.4292 5.52328 12.4291 5.52328C12.429 5.52328 12.429 5.52328 12.4289 5.52328C12.4288 5.52328 12.4287 5.52328 12.4286 5.52328C12.4285 5.52328 12.4285 5.52328 12.4284 5.52328C12.4283 5.52328 12.4282 5.52328 12.4281 5.52328C12.428 5.52328 12.4279 5.52328 12.4279 5.52328C12.4278 5.52328 12.4277 5.52328 12.4276 5.52328C12.4275 5.52328 12.4274 5.52328 12.4274 5.52328C12.4273 5.52328 12.4272 5.52328 12.4271 5.52328C12.427 5.52328 12.4269 5.52328 12.4269 5.52328C12.4268 5.52328 12.4267 5.52328 12.4266 5.52328C12.4265 5.52328 12.4264 5.52328 12.4263 5.52328C12.4263 5.52328 12.4262 5.52328 12.4261 5.52328C12.426 5.52328 12.4259 5.52328 12.4258 5.52328C12.4258 5.52328 12.4257 5.52328 12.4256 5.52328C12.4255 5.52328 12.4254 5.52328 12.4253 5.52328C12.4253 5.52328 12.4252 5.52328 12.4251 5.52328C12.425 5.52328 12.4249 5.52328 12.4248 5.52328C12.4247 5.52328 12.4247 5.52328 12.4246 5.52328C12.4245 5.52328 12.4244 5.52328 12.4243 5.52328C12.4242 5.52328 12.4242 5.52328 12.4241 5.52328C12.424 5.52328 12.4239 5.52328 12.4238 5.52328C12.4237 5.52328 12.4237 5.52328 12.4236 5.52328C12.4235 5.52328 12.4234 5.52328 12.4233 5.52328C12.4232 5.52328 12.4232 5.52328 12.4231 5.52328C12.423 5.52328 12.4229 5.52328 12.4228 5.52328C12.4227 5.52328 12.4226 5.52328 12.4226 5.52328C12.4225 5.52328 12.4224 5.52328 12.4223 5.52328C12.4222 5.52328 12.4221 5.52328 12.4221 5.52328C12.422 5.52328 12.4219 5.52328 12.4218 5.52328C12.4217 5.52328 12.4216 5.52328 12.4216 5.52328C12.4215 5.52328 12.4214 5.52328 12.4213 5.52328C12.4212 5.52328 12.4211 5.52328 12.421 5.52328C12.421 5.52328 12.4209 5.52328 12.4208 5.52328C12.4207 5.52328 12.4206 5.52328 12.4205 5.52328C12.4205 5.52328 12.4204 5.52328 12.4203 5.52328C12.4202 5.52328 12.4201 5.52328 12.42 5.52328C12.42 5.52328 12.4199 5.52328 12.4198 5.52328C12.4197 5.52328 12.4196 5.52328 12.4195 5.52328C12.4194 5.52328 12.4194 5.52328 12.4193 5.52328C12.4192 5.52328 12.4191 5.52328 12.419 5.52328C12.4189 5.52328 12.4189 5.52328 12.4188 5.52328C12.4187 5.52328 12.4186 5.52328 12.4185 5.52328C12.4184 5.52328 12.4184 5.52328 12.4183 5.52328C12.4182 5.52328 12.4181 5.52328 12.418 5.52328C12.4179 5.52328 12.4179 5.52328 12.4178 5.52328C12.4177 5.52328 12.4176 5.52328 12.4175 5.52328C12.4174 5.52328 12.4173 5.52328 12.4173 5.52328C12.4172 5.52328 12.4171 5.52328 12.417 5.52328C12.4169 5.52328 12.4168 5.52328 12.4168 5.52328C12.4167 5.52328 12.4166 5.52328 12.4165 5.52328C12.4164 5.52328 12.4163 5.52328 12.4163 5.52328C12.4162 5.52328 12.4161 5.52328 12.416 5.52328C12.4159 5.52328 12.4158 5.52328 12.4157 5.52328C12.4157 5.52328 12.4156 5.52328 12.4155 5.52328C12.4154 5.52328 12.4153 5.52328 12.4152 5.52328C12.4152 5.52328 12.4151 5.52328 12.415 5.52328C12.4149 5.52328 12.4148 5.52328 12.4147 5.52328C12.4147 5.52328 12.4146 5.52328 12.4145 5.52328C12.4144 5.52328 12.4143 5.52328 12.4142 5.52328C12.4141 5.52328 12.4141 5.52328 12.414 5.52328C12.4139 5.52328 12.4138 5.52328 12.4137 5.52328C12.4136 5.52328 12.4136 5.52328 12.4135 5.52328C12.4134 5.52328 12.4133 5.52328 12.4132 5.52328C12.4131 5.52328 12.4131 5.52328 12.413 5.52328C12.4129 5.52328 12.4128 5.52328 12.4127 5.52328C12.4126 5.52328 12.4125 5.52328 12.4125 5.52328C12.4124 5.52328 12.4123 5.52328 12.4122 5.52328C12.4121 5.52328 12.412 5.52328 12.412 5.52328C12.4119 5.52328 12.4118 5.52328 12.4117 5.52328C12.4116 5.52328 12.4115 5.52328 12.4115 5.52328C12.4114 5.52328 12.4113 5.52328 12.4112 5.52328C12.4111 5.52328 12.411 5.52328 12.411 5.52328C12.4109 5.52328 12.4108 5.52328 12.4107 5.52328C12.4106 5.52328 12.4105 5.52328 12.4104 5.52328C12.4104 5.52328 12.4103 5.52328 12.4102 5.52328C12.4101 5.52328 12.41 5.52328 12.4099 5.52328C12.4099 5.52328 12.4098 5.52328 12.4097 5.52328C12.4096 5.52328 12.4095 5.52328 12.4094 5.52328C12.4094 5.52328 12.4093 5.52328 12.4092 5.52328C12.4091 5.52328 12.409 5.52328 12.4089 5.52328C12.4088 5.52328 12.4088 5.52328 12.4087 5.52328C12.4086 5.52328 12.4085 5.52328 12.4084 5.52328C12.4083 5.52328 12.4083 5.52328 12.4082 5.52328C12.4081 5.52328 12.408 5.52328 12.4079 5.52328C12.4078 5.52328 12.4078 5.52328 12.4077 5.52328C12.4076 5.52328 12.4075 5.52328 12.4074 5.52328C12.4073 5.52328 12.4072 5.52328 12.4072 5.52328C12.4071 5.52328 12.407 5.52328 12.4069 5.52328C12.4068 5.52328 12.4067 5.52328 12.4067 5.52328C12.4066 5.52328 12.4065 5.52328 12.4064 5.52328C12.4063 5.52328 12.4062 5.52328 12.4062 5.52328C12.4061 5.52328 12.406 5.52328 12.4059 5.52328C12.4058 5.52328 12.4057 5.52328 12.4057 5.52328C12.4056 5.52328 12.4055 5.52328 12.4054 5.52328C12.4053 5.52328 12.4052 5.52328 12.4051 5.52328C12.4051 5.52328 12.405 5.52328 12.4049 5.52328C12.4048 5.52328 12.4047 5.52328 12.4046 5.52328C12.4046 5.52328 12.4045 5.52328 12.4044 5.52328C12.4043 5.52328 12.4042 5.52328 12.4041 5.52328C12.4041 5.52328 12.404 5.52328 12.4039 5.52328C12.4038 5.52328 12.4037 5.52328 12.4036 5.52328C12.4035 5.52328 12.4035 5.52328 12.4034 5.52328C12.4033 5.52328 12.4032 5.52328 12.4031 5.52328C12.403 5.52328 12.403 5.52328 12.4029 5.52328C12.4028 5.52328 12.4027 5.52328 12.4026 5.52328C12.4025 5.52328 12.4025 5.52328 12.4024 5.52328C12.4023 5.52328 12.4022 5.52328 12.4021 5.52328C12.402 5.52328 12.4019 5.52328 12.4019 5.52328C12.4018 5.52328 12.4017 5.52328 12.4016 5.52328C12.4015 5.52328 12.4014 5.52328 12.4014 5.52328C12.4013 5.52328 12.4012 5.52328 12.4011 5.52328C12.401 5.52328 12.4009 5.52328 12.4009 5.52328C12.4008 5.52328 12.4007 5.52328 12.4006 5.52328C12.4005 5.52328 12.4004 5.52328 12.4004 5.52328C12.4003 5.52328 12.4002 5.52328 12.4001 5.52328C12.4 5.52328 12.3999 5.52328 12.3998 5.52328C12.3998 5.52328 12.3997 5.52328 12.3996 5.52328C12.3995 5.52328 12.3994 5.52328 12.3993 5.52328C12.3993 5.52328 12.3992 5.52328 12.3991 5.52328C12.399 5.52328 12.3989 5.52328 12.3988 5.52328C12.3988 5.52328 12.3987 5.52328 12.3986 5.52328C12.3985 5.52328 12.3984 5.52328 12.3983 5.52328C12.3982 5.52328 12.3982 5.52328 12.3981 5.52328C12.398 5.52328 12.3979 5.52328 12.3978 5.52328C12.3977 5.52328 12.3977 5.52328 12.3976 5.52328C12.3975 5.52328 12.3974 5.52328 12.3973 5.52328C12.3972 5.52328 12.3972 5.52328 12.3971 5.52328C12.397 5.52328 12.3969 5.52328 12.3968 5.52328C12.3967 5.52328 12.3966 5.52328 12.3966 5.52328C12.3965 5.52328 12.3964 5.52328 12.3963 5.52328C12.3962 5.52328 12.3961 5.52328 12.3961 5.52328C12.396 5.52328 12.3959 5.52328 12.3958 5.52328C12.3957 5.52328 12.3956 5.52328 12.3956 5.52328C12.3955 5.52328 12.3954 5.52328 12.3953 5.52328C12.3952 5.52328 12.3951 5.52328 12.3951 5.52328C12.395 5.52328 12.3949 5.52328 12.3948 5.52328C12.3947 5.52328 12.3946 5.52328 12.3945 5.52328C12.3945 5.52328 12.3944 5.52328 12.3943 5.52328C12.3942 5.52328 12.3941 5.52328 12.394 5.52328C12.394 5.52328 12.3939 5.52328 12.3938 5.52328C12.3937 5.52328 12.3936 5.52328 12.3935 5.52328C12.3935 5.52328 12.3934 5.52328 12.3933 5.52328C12.3932 5.52328 12.3931 5.52328 12.393 5.52328C12.3929 5.52328 12.3929 5.52328 12.3928 5.52328C12.3927 5.52328 12.3926 5.52328 12.3925 5.52328C12.3924 5.52328 12.3924 5.52328 12.3923 5.52328C12.3922 5.52328 12.3921 5.52328 12.392 5.52328C12.3919 5.52328 12.3919 5.52328 12.3918 5.52328C12.3917 5.52328 12.3916 5.52328 12.3915 5.52328C12.3914 5.52328 12.3913 5.52328 12.3913 5.52328C12.3912 5.52328 12.3911 5.52328 12.391 5.52328C12.3909 5.52328 12.3908 5.52328 12.3908 5.52328C12.3907 5.52328 12.3906 5.52328 12.3905 5.52328C12.3904 5.52328 12.3903 5.52328 12.3903 5.52328C12.3902 5.52328 12.3901 5.52328 12.39 5.52328C12.3899 5.52328 12.3898 5.52328 12.3897 5.52328C12.3897 5.52328 12.3896 5.52328 12.3895 5.52328C12.3894 5.52328 12.3893 5.52328 12.3892 5.52328C12.3892 5.52328 12.3891 5.52328 12.389 5.52328C12.3889 5.52328 12.3888 5.52328 12.3887 5.52328C12.3887 5.52328 12.3886 5.52328 12.3885 5.52328C12.3884 5.52328 12.3883 5.52328 12.3882 5.52328C12.3882 5.52328 12.3881 5.52328 12.388 5.52328C12.3879 5.52328 12.3878 5.52328 12.3877 5.52328C12.3876 5.52328 12.3876 5.52328 12.3875 5.52328C12.3874 5.52328 12.3873 5.52328 12.3872 5.52328C12.3871 5.52328 12.3871 5.52328 12.387 5.52328C12.3869 5.52328 12.3868 5.52328 12.3867 5.52328C12.3866 5.52328 12.3866 5.52328 12.3865 5.52328C12.3864 5.52328 12.3863 5.52328 12.3862 5.52328C12.3861 5.52328 12.386 5.52328 12.386 5.52328C12.3859 5.52328 12.3858 5.52328 12.3857 5.52328C12.3856 5.52328 12.3855 5.52328 12.3855 5.52328C12.3854 5.52328 12.3853 5.52328 12.3852 5.52328C12.3851 5.52328 12.385 5.52328 12.385 5.52328C12.3849 5.52328 12.3848 5.52328 12.3847 5.52328C12.3846 5.52328 12.3845 5.52328 12.3844 5.52328C12.3844 5.52328 12.3843 5.52328 12.3842 5.52328C12.3841 5.52328 12.384 5.52328 12.3839 5.52328C12.3839 5.52328 12.3838 5.52328 12.3837 5.52328C12.3836 5.52328 12.3835 5.52328 12.3834 5.52328C12.3834 5.52328 12.3833 5.52328 12.3832 5.52328C12.3831 5.52328 12.383 5.52328 12.3829 5.52328C12.3829 5.52328 12.3828 5.52328 12.3827 5.52328C12.3826 5.52328 12.3825 5.52328 12.3824 5.52328C12.3823 5.52328 12.3823 5.52328 12.3822 5.52328C12.3821 5.52328 12.382 5.52328 12.3819 5.52328C12.3818 5.52328 12.3818 5.52328 12.3817 5.52328C12.3816 5.52328 12.3815 5.52328 12.3814 5.52328C12.3813 5.52328 12.3813 5.52328 12.3812 5.52328C12.3811 5.52328 12.381 5.52328 12.3809 5.52328C12.3808 5.52328 12.3807 5.52328 12.3807 5.52328C12.3806 5.52328 12.3805 5.52328 12.3804 5.52328C12.3803 5.52328 12.3802 5.52328 12.3802 5.52328C12.3801 5.52328 12.38 5.52328 12.3799 5.52328C12.3798 5.52328 12.3797 5.52328 12.3797 5.52328C12.3796 5.52328 12.3795 5.52328 12.3794 5.52328C12.3793 5.52328 12.3792 5.52328 12.3791 5.52328C12.3791 5.52328 12.379 5.52328 12.3789 5.52328C12.3788 5.52328 12.3787 5.52328 12.3786 5.52328C12.3786 5.52328 12.3785 5.52328 12.3784 5.52328C12.3783 5.52328 12.3782 5.52328 12.3781 5.52328C12.3781 5.52328 12.378 5.52328 12.3779 5.52328C12.3778 5.52328 12.3777 5.52328 12.3776 5.52328C12.3776 5.52328 12.3775 5.52328 12.3774 5.52328C12.3773 5.52328 12.3772 5.52328 12.3771 5.52328C12.377 5.52328 12.377 5.52328 12.3769 5.52328C12.3768 5.52328 12.3767 5.52328 12.3766 5.52328C12.3765 5.52328 12.3765 5.52328 12.3764 5.52328C12.3763 5.52328 12.3762 5.52328 12.3761 5.52328C12.376 5.52328 12.376 5.52328 12.3759 5.52328C12.3758 5.52328 12.3757 5.52328 12.3756 5.52328C12.3755 5.52328 12.3754 5.52328 12.3754 5.52328C12.3753 5.52328 12.3752 5.52328 12.3751 5.52328C12.375 5.52328 12.3749 5.52328 12.3749 5.52328C12.3748 5.52328 12.3747 5.52328 12.3746 5.52328C12.3745 5.52328 12.3744 5.52328 12.3744 5.52328C12.3743 5.52328 12.3742 5.52328 12.3741 5.52328C12.374 5.52328 12.3739 5.52328 12.3738 5.52328C12.3738 5.52328 12.3737 5.52328 12.3736 5.52328C12.3735 5.52328 12.3734 5.52328 12.3733 5.52328C12.3733 5.52328 12.3732 5.52328 12.3731 5.52328C12.373 5.52328 12.3729 5.52328 12.3728 5.52328C12.3728 5.52328 12.3727 5.52328 12.3726 5.52328C12.3725 5.52328 12.3724 5.52328 12.3723 5.52328C12.3722 5.52328 12.3722 5.52328 12.3721 5.52328C12.372 5.52328 12.3719 5.52328 12.3718 5.52328C12.3717 5.52328 12.3717 5.52328 12.3716 5.52328C12.3715 5.52328 12.3714 5.52328 12.3713 5.52328C12.3712 5.52328 12.3712 5.52328 12.3711 5.52328C12.371 5.52328 12.3709 5.52328 12.3708 5.52328C12.3707 5.52328 12.3707 5.52328 12.3706 5.52328C12.3705 5.52328 12.3704 5.52328 12.3703 5.52328C12.3702 5.52328 12.3701 5.52328 12.3701 5.52328C12.37 5.52328 12.3699 5.52328 12.3698 5.52328C12.3697 5.52328 12.3696 5.52328 12.3696 5.52328C12.3695 5.52328 12.3694 5.52328 12.3693 5.52328C12.3692 5.52328 12.3691 5.52328 12.3691 5.52328C12.369 5.52328 12.3689 5.52328 12.3688 5.52328C12.3687 5.52328 12.3686 5.52328 12.3685 5.52328C12.3685 5.52328 12.3684 5.52328 12.3683 5.52328C12.3682 5.52328 12.3681 5.52328 12.368 5.52328C12.368 5.52328 12.3679 5.52328 12.3678 5.52328C12.3677 5.52328 12.3676 5.52328 12.3675 5.52328C12.3675 5.52328 12.3674 5.52328 12.3673 5.52328C12.3672 5.52328 12.3671 5.52328 12.367 5.52328C12.3669 5.52328 12.3669 5.52328 12.3668 5.52328C12.3667 5.52328 12.3666 5.52328 12.3665 5.52328C12.3664 5.52328 12.3664 5.52328 12.3663 5.52328C12.3662 5.52328 12.3661 5.52328 12.366 5.52328C12.3659 5.52328 12.3659 5.52328 12.3658 5.52328C12.3657 5.52328 12.3656 5.52328 12.3655 5.52328C12.3654 5.52328 12.3654 5.52328 12.3653 5.52328C12.3652 5.52328 12.3651 5.52328 12.365 5.52328C12.3649 5.52328 12.3648 5.52328 12.3648 5.52328C12.3647 5.52328 12.3646 5.52328 12.3645 5.52328C12.3644 5.52328 12.3643 5.52328 12.3643 5.52328C12.3642 5.52328 12.3641 5.52328 12.364 5.52328C12.3639 5.52328 12.3638 5.52328 12.3638 5.52328C12.3637 5.52328 12.3636 5.52328 12.3635 5.52328C12.3634 5.52328 12.3633 5.52328 12.3632 5.52328C12.3632 5.52328 12.3631 5.52328 12.363 5.52328C12.3629 5.52328 12.3628 5.52328 12.3627 5.52328C12.3627 5.52328 12.3626 5.52328 12.3625 5.52328C12.3624 5.52328 12.3623 5.52328 12.3622 5.52328C12.3622 5.52328 12.3621 5.52328 12.362 5.52328C12.3619 5.52328 12.3618 5.52328 12.3617 5.52328C12.3616 5.52328 12.3616 5.52328 12.3615 5.52328C12.3614 5.52328 12.3613 5.52328 12.3612 5.52328C12.3611 5.52328 12.3611 5.52328 12.361 5.52328C12.3609 5.52328 12.3608 5.52328 12.3607 5.52328C12.3606 5.52328 12.3606 5.52328 12.3605 5.52328C12.3604 5.52328 12.3603 5.52328 12.3602 5.52328C12.3601 5.52328 12.3601 5.52328 12.36 5.52328C12.3599 5.52328 12.3598 5.52328 12.3597 5.52328C12.3596 5.52328 12.3595 5.52328 12.3595 5.52328C12.3594 5.52328 12.3593 5.52328 12.3592 5.52328C12.3591 5.52328 12.359 5.52328 12.359 5.52328C12.3589 5.52328 12.3588 5.52328 12.3587 5.52328C12.3586 5.52328 12.3585 5.52328 12.3585 5.52328C12.3584 5.52328 12.3583 5.52328 12.3582 5.52328C12.3581 5.52328 12.358 5.52328 12.3579 5.52328C12.3579 5.52328 12.3578 5.52328 12.3577 5.52328C12.3576 5.52328 12.3575 5.52328 12.3574 5.52328C12.3574 5.52328 12.3573 5.52328 12.3572 5.52328C12.3571 5.52328 12.357 5.52328 12.3569 5.52328C12.3569 5.52328 12.3568 5.52328 12.3567 5.52328C12.3566 5.52328 12.3565 5.52328 12.3564 5.52328C12.3563 5.52328 12.3563 5.52328 12.3562 5.52328C12.3561 5.52328 12.356 5.52328 12.3559 5.52328C12.3558 5.52328 12.3558 5.52328 12.3557 5.52328C12.3556 5.52328 12.3555 5.52328 12.3554 5.52328C12.3553 5.52328 12.3553 5.52328 12.3552 5.52328C12.3551 5.52328 12.355 5.52328 12.3549 5.52328C12.3548 5.52328 12.3547 5.52328 12.3547 5.52328C12.3546 5.52328 12.3545 5.52328 12.3544 5.52328C12.3543 5.52328 12.3542 5.52328 12.3542 5.52328C12.3541 5.52328 12.354 5.52328 12.3539 5.52328C12.3538 5.52328 12.3537 5.52328 12.3537 5.52328C12.3536 5.52328 12.3535 5.52328 12.3534 5.52328C12.3533 5.52328 12.3532 5.52328 12.3532 5.52328C12.3531 5.52328 12.353 5.52328 12.3529 5.52328C12.3528 5.52328 12.3527 5.52328 12.3526 5.52328C12.3526 5.52328 12.3525 5.52328 12.3524 5.52328C12.3523 5.52328 12.3522 5.52328 12.3521 5.52328C12.3521 5.52328 12.352 5.52328 12.3519 5.52328C12.3518 5.52328 12.3517 5.52328 12.3516 5.52328C12.3516 5.52328 12.3515 5.52328 12.3514 5.52328C12.3513 5.52328 12.3512 5.52328 12.3511 5.52328C12.351 5.52328 12.351 5.52328 12.3509 5.52328C12.3508 5.52328 12.3507 5.52328 12.3506 5.52328C12.3505 5.52328 12.3505 5.52328 12.3504 5.52328C12.3503 5.52328 12.3502 5.52328 12.3501 5.52328C12.35 5.52328 12.35 5.52328 12.3499 5.52328C12.3498 5.52328 12.3497 5.52328 12.3496 5.52328C12.3495 5.52328 12.3494 5.52328 12.3494 5.52328C12.3493 5.52328 12.3492 5.52328 12.3491 5.52328C12.349 5.52328 12.3489 5.52328 12.3489 5.52328C12.3488 5.52328 12.3487 5.52328 12.3486 5.52328C12.3485 5.52328 12.3484 5.52328 12.3484 5.52328C12.3483 5.52328 12.3482 5.52328 12.3481 5.52328C12.348 5.52328 12.3479 5.52328 12.3479 5.52328C12.3478 5.52328 12.3477 5.52328 12.3476 5.52328C12.3475 5.52328 12.3474 5.52328 12.3473 5.52328C12.3473 5.52328 12.3472 5.52328 12.3471 5.52328C12.347 5.52328 12.3469 5.52328 12.3468 5.52328C12.3468 5.52328 12.3467 5.52328 12.3466 5.52328C12.3465 5.52328 12.3464 5.52328 12.3463 5.52328C12.3463 5.52328 12.3462 5.52328 12.3461 5.52328C12.346 5.52328 12.3459 5.52328 12.3458 5.52328C12.3457 5.52328 12.3457 5.52328 12.3456 5.52328C12.3455 5.52328 12.3454 5.52328 12.3453 5.52328C12.3452 5.52328 12.3452 5.52328 12.3451 5.52328C12.345 5.52328 12.3449 5.52328 12.3448 5.52328C12.3447 5.52328 12.3447 5.52328 12.3446 5.52328C12.3445 5.52328 12.3444 5.52328 12.3443 5.52328C12.3442 5.52328 12.3441 5.52328 12.3441 5.52328C12.344 5.52328 12.3439 5.52328 12.3438 5.52328C12.3437 5.52328 12.3436 5.52328 12.3436 5.52328C12.3435 5.52328 12.3434 5.52328 12.3433 5.52328C12.3432 5.52328 12.3431 5.52328 12.3431 5.52328C12.343 5.52328 12.3429 5.52328 12.3428 5.52328C12.3427 5.52328 12.3426 5.52328 12.3426 5.52328C12.3425 5.52328 12.3424 5.52328 12.3423 5.52328C12.3422 5.52328 12.3421 5.52328 12.342 5.52328C12.342 5.52328 12.3419 5.52328 12.3418 5.52328C12.3417 5.52328 12.3416 5.52328 12.3415 5.52328C12.3415 5.52328 12.3414 5.52328 12.3413 5.52328C12.3412 5.52328 12.3411 5.52328 12.341 5.52328C12.341 5.52328 12.3409 5.52328 12.3408 5.52328C12.3407 5.52328 12.3406 5.52328 12.3405 5.52328C12.3404 5.52328 12.3404 5.52328 12.3403 5.52328C12.3402 5.52328 12.3401 5.52328 12.34 5.52328C12.3399 5.52328 12.3399 5.52328 12.3398 5.52328C12.3397 5.52328 12.3396 5.52328 12.3395 5.52328C12.3394 5.52328 12.3394 5.52328 12.3393 5.52328C12.3392 5.52328 12.3391 5.52328 12.339 5.52328C12.3389 5.52328 12.3388 5.52328 12.3388 5.52328C12.3387 5.52328 12.3386 5.52328 12.3385 5.52328C12.3384 5.52328 12.3383 5.52328 12.3383 5.52328C12.3382 5.52328 12.3381 5.52328 12.338 5.52328C12.3379 5.52328 12.3378 5.52328 12.3378 5.52328C12.3377 5.52328 12.3376 5.52328 12.3375 5.52328C12.3374 5.52328 12.3373 5.52328 12.3372 5.52328C12.3372 5.52328 12.3371 5.52328 12.337 5.52328C12.3369 5.52328 12.3368 5.52328 12.3367 5.52328C12.3367 5.52328 12.3366 5.52328 12.3365 5.52328C12.3364 5.52328 12.3363 5.52328 12.3362 5.52328C12.3362 5.52328 12.3361 5.52328 12.336 5.52328C12.3359 5.52328 12.3358 5.52328 12.3357 5.52328C12.3357 5.52328 12.3356 5.52328 12.3355 5.52328C12.3354 5.52328 12.3353 5.52328 12.3352 5.52328C12.3351 5.52328 12.3351 5.52328 12.335 5.52328C12.3349 5.52328 12.3348 5.52328 12.3347 5.52328C12.3346 5.52328 12.3346 5.52328 12.3345 5.52328C12.3344 5.52328 12.3343 5.52328 12.3342 5.52328C12.3341 5.52328 12.3341 5.52328 12.334 5.52328C12.3339 5.52328 12.3338 5.52328 12.3337 5.52328C12.3336 5.52328 12.3335 5.52328 12.3335 5.52328C12.3334 5.52328 12.3333 5.52328 12.3332 5.52328C12.3331 5.52328 12.333 5.52328 12.333 5.52328C12.3329 5.52328 12.3328 5.52328 12.3327 5.52328C12.3326 5.52328 12.3325 5.52328 12.3325 5.52328C12.3324 5.52328 12.3323 5.52328 12.3322 5.52328C12.3321 5.52328 12.332 5.52328 12.3319 5.52328C12.3319 5.52328 12.3318 5.52328 12.3317 5.52328C12.3316 5.52328 12.3315 5.52328 12.3314 5.52328C12.3314 5.52328 12.3313 5.52328 12.3312 5.52328C12.3311 5.52328 12.331 5.52328 12.3309 5.52328C12.3309 5.52328 12.3308 5.52328 12.3307 5.52328C12.3306 5.52328 12.3305 5.52328 12.3304 5.52328C12.3304 5.52328 12.3303 5.52328 12.3302 5.52328C12.3301 5.52328 12.33 5.52328 12.3299 5.52328C12.3298 5.52328 12.3298 5.52328 12.3297 5.52328C12.3296 5.52328 12.3295 5.52328 12.3294 5.52328C12.3293 5.52328 12.3293 5.52328 12.3292 5.52328C12.3291 5.52328 12.329 5.52328 12.3289 5.52328C12.3288 5.52328 12.3288 5.52328 12.3287 5.52328C12.3286 5.52328 12.3285 5.52328 12.3284 5.52328C12.3283 5.52328 12.3282 5.52328 12.3282 5.52328C12.3281 5.52328 12.328 5.52328 12.3279 5.52328C12.3278 5.52328 12.3277 5.52328 12.3277 5.52328C12.3276 5.52328 12.3275 5.52328 12.3274 5.52328C12.3273 5.52328 12.3272 5.52328 12.3272 5.52328C12.3271 5.52328 12.327 5.52328 12.3269 5.52328C12.3268 5.52328 12.3267 5.52328 12.3266 5.52328C12.3266 5.52328 12.3265 5.52328 12.3264 5.52328C12.3263 5.52328 12.3262 5.52328 12.3261 5.52328C12.3261 5.52328 12.326 5.52328 12.3259 5.52328C12.3258 5.52328 12.3257 5.52328 12.3256 5.52328C12.3256 5.52328 12.3255 5.52328 12.3254 5.52328C12.3253 5.52328 12.3252 5.52328 12.3251 5.52328C12.3251 5.52328 12.325 5.52328 12.3249 5.52328C12.3248 5.52328 12.3247 5.52328 12.3246 5.52328C12.3245 5.52328 12.3245 5.52328 12.3244 5.52328C12.3243 5.52328 12.3242 5.52328 12.3241 5.52328C12.324 5.52328 12.324 5.52328 12.3239 5.52328C12.3238 5.52328 12.3237 5.52328 12.3236 5.52328C12.3235 5.52328 12.3235 5.52328 12.3234 5.52328C12.3233 5.52328 12.3232 5.52328 12.3231 5.52328C12.323 5.52328 12.3229 5.52328 12.3229 5.52328C12.3228 5.52328 12.3227 5.52328 12.3226 5.52328C12.3225 5.52328 12.3224 5.52328 12.3224 5.52328C12.3223 5.52328 12.3222 5.52328 12.3221 5.52328C12.322 5.52328 12.3219 5.52328 12.3219 5.52328C12.3218 5.52328 12.3217 5.52328 12.3216 5.52328C12.3215 5.52328 12.3214 5.52328 12.3213 5.52328C12.3213 5.52328 12.3212 5.52328 12.3211 5.52328C12.321 5.52328 12.3209 5.52328 12.3208 5.52328C12.3208 5.52328 12.3207 5.52328 12.3206 5.52328C12.3205 5.52328 12.3204 5.52328 12.3203 5.52328C12.3203 5.52328 12.3202 5.52328 12.3201 5.52328C12.32 5.52328 12.3199 5.52328 12.3198 5.52328C12.3197 5.52328 12.3197 5.52328 12.3196 5.52328C12.3195 5.52328 12.3194 5.52328 12.3193 5.52328C12.3192 5.52328 12.3192 5.52328 12.3191 5.52328C12.319 5.52328 12.3189 5.52328 12.3188 5.52328C12.3187 5.52328 12.3187 5.52328 12.3186 5.52328C12.3185 5.52328 12.3184 5.52328 12.3183 5.52328C12.3182 5.52328 12.3182 5.52328 12.3181 5.52328C12.318 5.52328 12.3179 5.52328 12.3178 5.52328C12.3177 5.52328 12.3176 5.52328 12.3176 5.52328C12.3175 5.52328 12.3174 5.52328 12.3173 5.52328C12.3172 5.52328 12.3171 5.52328 12.3171 5.52328C12.317 5.52328 12.3169 5.52328 12.3168 5.52328C12.3167 5.52328 12.3166 5.52328 12.3166 5.52328C12.3165 5.52328 12.3164 5.52328 12.3163 5.52328C12.3162 5.52328 12.3161 5.52328 12.316 5.52328C12.316 5.52328 12.3159 5.52328 12.3158 5.52328C12.3157 5.52328 12.3156 5.52328 12.3155 5.52328C12.3155 5.52328 12.3154 5.52328 12.3153 5.52328C12.3152 5.52328 12.3151 5.52328 12.315 5.52328C12.315 5.52328 12.3149 5.52328 12.3148 5.52328C12.3147 5.52328 12.3146 5.52328 12.3145 5.52328C12.3144 5.52328 12.3144 5.52328 12.3143 5.52328C12.3142 5.52328 12.3141 5.52328 12.314 5.52328C12.3139 5.52328 12.3139 5.52328 12.3138 5.52328C12.3137 5.52328 12.3136 5.52328 12.3135 5.52328C12.3134 5.52328 12.3134 5.52328 12.3133 5.52328C12.3132 5.52328 12.3131 5.52328 12.313 5.52328C12.3129 5.52328 12.3129 5.52328 12.3128 5.52328C12.3127 5.52328 12.3126 5.52328 12.3125 5.52328C12.3124 5.52328 12.3123 5.52328 12.3123 5.52328C12.3122 5.52328 12.3121 5.52328 12.312 5.52328C12.3119 5.52328 12.3118 5.52328 12.3118 5.52328C12.3117 5.52328 12.3116 5.52328 12.3115 5.52328C12.3114 5.52328 12.3113 5.52328 12.3113 5.52328C12.3112 5.52328 12.3111 5.52328 12.311 5.52328C12.3109 5.52328 12.3108 5.52328 12.3107 5.52328C12.3107 5.52328 12.3106 5.52328 12.3105 5.52328C12.3104 5.52328 12.3103 5.52328 12.3102 5.52328C12.3102 5.52328 12.3101 5.52328 12.31 5.52328C12.3099 5.52328 12.3098 5.52328 12.3097 5.52328C12.3097 5.52328 12.3096 5.52328 12.3095 5.52328C12.3094 5.52328 12.3093 5.52328 12.3092 5.52328C12.3091 5.52328 12.3091 5.52328 12.309 5.52328C12.3089 5.52328 12.3088 5.52328 12.3087 5.52328C12.3086 5.52328 12.3086 5.52328 12.3085 5.52328C12.3084 5.52328 12.3083 5.52328 12.3082 5.52328C12.3081 5.52328 12.3081 5.52328 12.308 5.52328C12.3079 5.52328 12.3078 5.52328 12.3077 5.52328V7.52328C12.3078 7.52328 12.3079 7.52328 12.308 7.52328C12.3081 7.52328 12.3081 7.52328 12.3082 7.52328C12.3083 7.52328 12.3084 7.52328 12.3085 7.52328C12.3086 7.52328 12.3086 7.52328 12.3087 7.52328C12.3088 7.52328 12.3089 7.52328 12.309 7.52328C12.3091 7.52328 12.3091 7.52328 12.3092 7.52328C12.3093 7.52328 12.3094 7.52328 12.3095 7.52328C12.3096 7.52328 12.3097 7.52328 12.3097 7.52328C12.3098 7.52328 12.3099 7.52328 12.31 7.52328C12.3101 7.52328 12.3102 7.52328 12.3102 7.52328C12.3103 7.52328 12.3104 7.52328 12.3105 7.52328C12.3106 7.52328 12.3107 7.52328 12.3107 7.52328C12.3108 7.52328 12.3109 7.52328 12.311 7.52328C12.3111 7.52328 12.3112 7.52328 12.3113 7.52328C12.3113 7.52328 12.3114 7.52328 12.3115 7.52328C12.3116 7.52328 12.3117 7.52328 12.3118 7.52328C12.3118 7.52328 12.3119 7.52328 12.312 7.52328C12.3121 7.52328 12.3122 7.52328 12.3123 7.52328C12.3123 7.52328 12.3124 7.52328 12.3125 7.52328C12.3126 7.52328 12.3127 7.52328 12.3128 7.52328C12.3129 7.52328 12.3129 7.52328 12.313 7.52328C12.3131 7.52328 12.3132 7.52328 12.3133 7.52328C12.3134 7.52328 12.3134 7.52328 12.3135 7.52328C12.3136 7.52328 12.3137 7.52328 12.3138 7.52328C12.3139 7.52328 12.3139 7.52328 12.314 7.52328C12.3141 7.52328 12.3142 7.52328 12.3143 7.52328C12.3144 7.52328 12.3144 7.52328 12.3145 7.52328C12.3146 7.52328 12.3147 7.52328 12.3148 7.52328C12.3149 7.52328 12.315 7.52328 12.315 7.52328C12.3151 7.52328 12.3152 7.52328 12.3153 7.52328C12.3154 7.52328 12.3155 7.52328 12.3155 7.52328C12.3156 7.52328 12.3157 7.52328 12.3158 7.52328C12.3159 7.52328 12.316 7.52328 12.316 7.52328C12.3161 7.52328 12.3162 7.52328 12.3163 7.52328C12.3164 7.52328 12.3165 7.52328 12.3166 7.52328C12.3166 7.52328 12.3167 7.52328 12.3168 7.52328C12.3169 7.52328 12.317 7.52328 12.3171 7.52328C12.3171 7.52328 12.3172 7.52328 12.3173 7.52328C12.3174 7.52328 12.3175 7.52328 12.3176 7.52328C12.3176 7.52328 12.3177 7.52328 12.3178 7.52328C12.3179 7.52328 12.318 7.52328 12.3181 7.52328C12.3182 7.52328 12.3182 7.52328 12.3183 7.52328C12.3184 7.52328 12.3185 7.52328 12.3186 7.52328C12.3187 7.52328 12.3187 7.52328 12.3188 7.52328C12.3189 7.52328 12.319 7.52328 12.3191 7.52328C12.3192 7.52328 12.3192 7.52328 12.3193 7.52328C12.3194 7.52328 12.3195 7.52328 12.3196 7.52328C12.3197 7.52328 12.3197 7.52328 12.3198 7.52328C12.3199 7.52328 12.32 7.52328 12.3201 7.52328C12.3202 7.52328 12.3203 7.52328 12.3203 7.52328C12.3204 7.52328 12.3205 7.52328 12.3206 7.52328C12.3207 7.52328 12.3208 7.52328 12.3208 7.52328C12.3209 7.52328 12.321 7.52328 12.3211 7.52328C12.3212 7.52328 12.3213 7.52328 12.3213 7.52328C12.3214 7.52328 12.3215 7.52328 12.3216 7.52328C12.3217 7.52328 12.3218 7.52328 12.3219 7.52328C12.3219 7.52328 12.322 7.52328 12.3221 7.52328C12.3222 7.52328 12.3223 7.52328 12.3224 7.52328C12.3224 7.52328 12.3225 7.52328 12.3226 7.52328C12.3227 7.52328 12.3228 7.52328 12.3229 7.52328C12.3229 7.52328 12.323 7.52328 12.3231 7.52328C12.3232 7.52328 12.3233 7.52328 12.3234 7.52328C12.3235 7.52328 12.3235 7.52328 12.3236 7.52328C12.3237 7.52328 12.3238 7.52328 12.3239 7.52328C12.324 7.52328 12.324 7.52328 12.3241 7.52328C12.3242 7.52328 12.3243 7.52328 12.3244 7.52328C12.3245 7.52328 12.3245 7.52328 12.3246 7.52328C12.3247 7.52328 12.3248 7.52328 12.3249 7.52328C12.325 7.52328 12.3251 7.52328 12.3251 7.52328C12.3252 7.52328 12.3253 7.52328 12.3254 7.52328C12.3255 7.52328 12.3256 7.52328 12.3256 7.52328C12.3257 7.52328 12.3258 7.52328 12.3259 7.52328C12.326 7.52328 12.3261 7.52328 12.3261 7.52328C12.3262 7.52328 12.3263 7.52328 12.3264 7.52328C12.3265 7.52328 12.3266 7.52328 12.3266 7.52328C12.3267 7.52328 12.3268 7.52328 12.3269 7.52328C12.327 7.52328 12.3271 7.52328 12.3272 7.52328C12.3272 7.52328 12.3273 7.52328 12.3274 7.52328C12.3275 7.52328 12.3276 7.52328 12.3277 7.52328C12.3277 7.52328 12.3278 7.52328 12.3279 7.52328C12.328 7.52328 12.3281 7.52328 12.3282 7.52328C12.3282 7.52328 12.3283 7.52328 12.3284 7.52328C12.3285 7.52328 12.3286 7.52328 12.3287 7.52328C12.3288 7.52328 12.3288 7.52328 12.3289 7.52328C12.329 7.52328 12.3291 7.52328 12.3292 7.52328C12.3293 7.52328 12.3293 7.52328 12.3294 7.52328C12.3295 7.52328 12.3296 7.52328 12.3297 7.52328C12.3298 7.52328 12.3298 7.52328 12.3299 7.52328C12.33 7.52328 12.3301 7.52328 12.3302 7.52328C12.3303 7.52328 12.3304 7.52328 12.3304 7.52328C12.3305 7.52328 12.3306 7.52328 12.3307 7.52328C12.3308 7.52328 12.3309 7.52328 12.3309 7.52328C12.331 7.52328 12.3311 7.52328 12.3312 7.52328C12.3313 7.52328 12.3314 7.52328 12.3314 7.52328C12.3315 7.52328 12.3316 7.52328 12.3317 7.52328C12.3318 7.52328 12.3319 7.52328 12.3319 7.52328C12.332 7.52328 12.3321 7.52328 12.3322 7.52328C12.3323 7.52328 12.3324 7.52328 12.3325 7.52328C12.3325 7.52328 12.3326 7.52328 12.3327 7.52328C12.3328 7.52328 12.3329 7.52328 12.333 7.52328C12.333 7.52328 12.3331 7.52328 12.3332 7.52328C12.3333 7.52328 12.3334 7.52328 12.3335 7.52328C12.3335 7.52328 12.3336 7.52328 12.3337 7.52328C12.3338 7.52328 12.3339 7.52328 12.334 7.52328C12.3341 7.52328 12.3341 7.52328 12.3342 7.52328C12.3343 7.52328 12.3344 7.52328 12.3345 7.52328C12.3346 7.52328 12.3346 7.52328 12.3347 7.52328C12.3348 7.52328 12.3349 7.52328 12.335 7.52328C12.3351 7.52328 12.3351 7.52328 12.3352 7.52328C12.3353 7.52328 12.3354 7.52328 12.3355 7.52328C12.3356 7.52328 12.3357 7.52328 12.3357 7.52328C12.3358 7.52328 12.3359 7.52328 12.336 7.52328C12.3361 7.52328 12.3362 7.52328 12.3362 7.52328C12.3363 7.52328 12.3364 7.52328 12.3365 7.52328C12.3366 7.52328 12.3367 7.52328 12.3367 7.52328C12.3368 7.52328 12.3369 7.52328 12.337 7.52328C12.3371 7.52328 12.3372 7.52328 12.3372 7.52328C12.3373 7.52328 12.3374 7.52328 12.3375 7.52328C12.3376 7.52328 12.3377 7.52328 12.3378 7.52328C12.3378 7.52328 12.3379 7.52328 12.338 7.52328C12.3381 7.52328 12.3382 7.52328 12.3383 7.52328C12.3383 7.52328 12.3384 7.52328 12.3385 7.52328C12.3386 7.52328 12.3387 7.52328 12.3388 7.52328C12.3388 7.52328 12.3389 7.52328 12.339 7.52328C12.3391 7.52328 12.3392 7.52328 12.3393 7.52328C12.3394 7.52328 12.3394 7.52328 12.3395 7.52328C12.3396 7.52328 12.3397 7.52328 12.3398 7.52328C12.3399 7.52328 12.3399 7.52328 12.34 7.52328C12.3401 7.52328 12.3402 7.52328 12.3403 7.52328C12.3404 7.52328 12.3404 7.52328 12.3405 7.52328C12.3406 7.52328 12.3407 7.52328 12.3408 7.52328C12.3409 7.52328 12.341 7.52328 12.341 7.52328C12.3411 7.52328 12.3412 7.52328 12.3413 7.52328C12.3414 7.52328 12.3415 7.52328 12.3415 7.52328C12.3416 7.52328 12.3417 7.52328 12.3418 7.52328C12.3419 7.52328 12.342 7.52328 12.342 7.52328C12.3421 7.52328 12.3422 7.52328 12.3423 7.52328C12.3424 7.52328 12.3425 7.52328 12.3426 7.52328C12.3426 7.52328 12.3427 7.52328 12.3428 7.52328C12.3429 7.52328 12.343 7.52328 12.3431 7.52328C12.3431 7.52328 12.3432 7.52328 12.3433 7.52328C12.3434 7.52328 12.3435 7.52328 12.3436 7.52328C12.3436 7.52328 12.3437 7.52328 12.3438 7.52328C12.3439 7.52328 12.344 7.52328 12.3441 7.52328C12.3441 7.52328 12.3442 7.52328 12.3443 7.52328C12.3444 7.52328 12.3445 7.52328 12.3446 7.52328C12.3447 7.52328 12.3447 7.52328 12.3448 7.52328C12.3449 7.52328 12.345 7.52328 12.3451 7.52328C12.3452 7.52328 12.3452 7.52328 12.3453 7.52328C12.3454 7.52328 12.3455 7.52328 12.3456 7.52328C12.3457 7.52328 12.3457 7.52328 12.3458 7.52328C12.3459 7.52328 12.346 7.52328 12.3461 7.52328C12.3462 7.52328 12.3463 7.52328 12.3463 7.52328C12.3464 7.52328 12.3465 7.52328 12.3466 7.52328C12.3467 7.52328 12.3468 7.52328 12.3468 7.52328C12.3469 7.52328 12.347 7.52328 12.3471 7.52328C12.3472 7.52328 12.3473 7.52328 12.3473 7.52328C12.3474 7.52328 12.3475 7.52328 12.3476 7.52328C12.3477 7.52328 12.3478 7.52328 12.3479 7.52328C12.3479 7.52328 12.348 7.52328 12.3481 7.52328C12.3482 7.52328 12.3483 7.52328 12.3484 7.52328C12.3484 7.52328 12.3485 7.52328 12.3486 7.52328C12.3487 7.52328 12.3488 7.52328 12.3489 7.52328C12.3489 7.52328 12.349 7.52328 12.3491 7.52328C12.3492 7.52328 12.3493 7.52328 12.3494 7.52328C12.3494 7.52328 12.3495 7.52328 12.3496 7.52328C12.3497 7.52328 12.3498 7.52328 12.3499 7.52328C12.35 7.52328 12.35 7.52328 12.3501 7.52328C12.3502 7.52328 12.3503 7.52328 12.3504 7.52328C12.3505 7.52328 12.3505 7.52328 12.3506 7.52328C12.3507 7.52328 12.3508 7.52328 12.3509 7.52328C12.351 7.52328 12.351 7.52328 12.3511 7.52328C12.3512 7.52328 12.3513 7.52328 12.3514 7.52328C12.3515 7.52328 12.3516 7.52328 12.3516 7.52328C12.3517 7.52328 12.3518 7.52328 12.3519 7.52328C12.352 7.52328 12.3521 7.52328 12.3521 7.52328C12.3522 7.52328 12.3523 7.52328 12.3524 7.52328C12.3525 7.52328 12.3526 7.52328 12.3526 7.52328C12.3527 7.52328 12.3528 7.52328 12.3529 7.52328C12.353 7.52328 12.3531 7.52328 12.3532 7.52328C12.3532 7.52328 12.3533 7.52328 12.3534 7.52328C12.3535 7.52328 12.3536 7.52328 12.3537 7.52328C12.3537 7.52328 12.3538 7.52328 12.3539 7.52328C12.354 7.52328 12.3541 7.52328 12.3542 7.52328C12.3542 7.52328 12.3543 7.52328 12.3544 7.52328C12.3545 7.52328 12.3546 7.52328 12.3547 7.52328C12.3547 7.52328 12.3548 7.52328 12.3549 7.52328C12.355 7.52328 12.3551 7.52328 12.3552 7.52328C12.3553 7.52328 12.3553 7.52328 12.3554 7.52328C12.3555 7.52328 12.3556 7.52328 12.3557 7.52328C12.3558 7.52328 12.3558 7.52328 12.3559 7.52328C12.356 7.52328 12.3561 7.52328 12.3562 7.52328C12.3563 7.52328 12.3563 7.52328 12.3564 7.52328C12.3565 7.52328 12.3566 7.52328 12.3567 7.52328C12.3568 7.52328 12.3569 7.52328 12.3569 7.52328C12.357 7.52328 12.3571 7.52328 12.3572 7.52328C12.3573 7.52328 12.3574 7.52328 12.3574 7.52328C12.3575 7.52328 12.3576 7.52328 12.3577 7.52328C12.3578 7.52328 12.3579 7.52328 12.3579 7.52328C12.358 7.52328 12.3581 7.52328 12.3582 7.52328C12.3583 7.52328 12.3584 7.52328 12.3585 7.52328C12.3585 7.52328 12.3586 7.52328 12.3587 7.52328C12.3588 7.52328 12.3589 7.52328 12.359 7.52328C12.359 7.52328 12.3591 7.52328 12.3592 7.52328C12.3593 7.52328 12.3594 7.52328 12.3595 7.52328C12.3595 7.52328 12.3596 7.52328 12.3597 7.52328C12.3598 7.52328 12.3599 7.52328 12.36 7.52328C12.3601 7.52328 12.3601 7.52328 12.3602 7.52328C12.3603 7.52328 12.3604 7.52328 12.3605 7.52328C12.3606 7.52328 12.3606 7.52328 12.3607 7.52328C12.3608 7.52328 12.3609 7.52328 12.361 7.52328C12.3611 7.52328 12.3611 7.52328 12.3612 7.52328C12.3613 7.52328 12.3614 7.52328 12.3615 7.52328C12.3616 7.52328 12.3616 7.52328 12.3617 7.52328C12.3618 7.52328 12.3619 7.52328 12.362 7.52328C12.3621 7.52328 12.3622 7.52328 12.3622 7.52328C12.3623 7.52328 12.3624 7.52328 12.3625 7.52328C12.3626 7.52328 12.3627 7.52328 12.3627 7.52328C12.3628 7.52328 12.3629 7.52328 12.363 7.52328C12.3631 7.52328 12.3632 7.52328 12.3632 7.52328C12.3633 7.52328 12.3634 7.52328 12.3635 7.52328C12.3636 7.52328 12.3637 7.52328 12.3638 7.52328C12.3638 7.52328 12.3639 7.52328 12.364 7.52328C12.3641 7.52328 12.3642 7.52328 12.3643 7.52328C12.3643 7.52328 12.3644 7.52328 12.3645 7.52328C12.3646 7.52328 12.3647 7.52328 12.3648 7.52328C12.3648 7.52328 12.3649 7.52328 12.365 7.52328C12.3651 7.52328 12.3652 7.52328 12.3653 7.52328C12.3654 7.52328 12.3654 7.52328 12.3655 7.52328C12.3656 7.52328 12.3657 7.52328 12.3658 7.52328C12.3659 7.52328 12.3659 7.52328 12.366 7.52328C12.3661 7.52328 12.3662 7.52328 12.3663 7.52328C12.3664 7.52328 12.3664 7.52328 12.3665 7.52328C12.3666 7.52328 12.3667 7.52328 12.3668 7.52328C12.3669 7.52328 12.3669 7.52328 12.367 7.52328C12.3671 7.52328 12.3672 7.52328 12.3673 7.52328C12.3674 7.52328 12.3675 7.52328 12.3675 7.52328C12.3676 7.52328 12.3677 7.52328 12.3678 7.52328C12.3679 7.52328 12.368 7.52328 12.368 7.52328C12.3681 7.52328 12.3682 7.52328 12.3683 7.52328C12.3684 7.52328 12.3685 7.52328 12.3685 7.52328C12.3686 7.52328 12.3687 7.52328 12.3688 7.52328C12.3689 7.52328 12.369 7.52328 12.3691 7.52328C12.3691 7.52328 12.3692 7.52328 12.3693 7.52328C12.3694 7.52328 12.3695 7.52328 12.3696 7.52328C12.3696 7.52328 12.3697 7.52328 12.3698 7.52328C12.3699 7.52328 12.37 7.52328 12.3701 7.52328C12.3701 7.52328 12.3702 7.52328 12.3703 7.52328C12.3704 7.52328 12.3705 7.52328 12.3706 7.52328C12.3707 7.52328 12.3707 7.52328 12.3708 7.52328C12.3709 7.52328 12.371 7.52328 12.3711 7.52328C12.3712 7.52328 12.3712 7.52328 12.3713 7.52328C12.3714 7.52328 12.3715 7.52328 12.3716 7.52328C12.3717 7.52328 12.3717 7.52328 12.3718 7.52328C12.3719 7.52328 12.372 7.52328 12.3721 7.52328C12.3722 7.52328 12.3722 7.52328 12.3723 7.52328C12.3724 7.52328 12.3725 7.52328 12.3726 7.52328C12.3727 7.52328 12.3728 7.52328 12.3728 7.52328C12.3729 7.52328 12.373 7.52328 12.3731 7.52328C12.3732 7.52328 12.3733 7.52328 12.3733 7.52328C12.3734 7.52328 12.3735 7.52328 12.3736 7.52328C12.3737 7.52328 12.3738 7.52328 12.3738 7.52328C12.3739 7.52328 12.374 7.52328 12.3741 7.52328C12.3742 7.52328 12.3743 7.52328 12.3744 7.52328C12.3744 7.52328 12.3745 7.52328 12.3746 7.52328C12.3747 7.52328 12.3748 7.52328 12.3749 7.52328C12.3749 7.52328 12.375 7.52328 12.3751 7.52328C12.3752 7.52328 12.3753 7.52328 12.3754 7.52328C12.3754 7.52328 12.3755 7.52328 12.3756 7.52328C12.3757 7.52328 12.3758 7.52328 12.3759 7.52328C12.376 7.52328 12.376 7.52328 12.3761 7.52328C12.3762 7.52328 12.3763 7.52328 12.3764 7.52328C12.3765 7.52328 12.3765 7.52328 12.3766 7.52328C12.3767 7.52328 12.3768 7.52328 12.3769 7.52328C12.377 7.52328 12.377 7.52328 12.3771 7.52328C12.3772 7.52328 12.3773 7.52328 12.3774 7.52328C12.3775 7.52328 12.3776 7.52328 12.3776 7.52328C12.3777 7.52328 12.3778 7.52328 12.3779 7.52328C12.378 7.52328 12.3781 7.52328 12.3781 7.52328C12.3782 7.52328 12.3783 7.52328 12.3784 7.52328C12.3785 7.52328 12.3786 7.52328 12.3786 7.52328C12.3787 7.52328 12.3788 7.52328 12.3789 7.52328C12.379 7.52328 12.3791 7.52328 12.3791 7.52328C12.3792 7.52328 12.3793 7.52328 12.3794 7.52328C12.3795 7.52328 12.3796 7.52328 12.3797 7.52328C12.3797 7.52328 12.3798 7.52328 12.3799 7.52328C12.38 7.52328 12.3801 7.52328 12.3802 7.52328C12.3802 7.52328 12.3803 7.52328 12.3804 7.52328C12.3805 7.52328 12.3806 7.52328 12.3807 7.52328C12.3807 7.52328 12.3808 7.52328 12.3809 7.52328C12.381 7.52328 12.3811 7.52328 12.3812 7.52328C12.3813 7.52328 12.3813 7.52328 12.3814 7.52328C12.3815 7.52328 12.3816 7.52328 12.3817 7.52328C12.3818 7.52328 12.3818 7.52328 12.3819 7.52328C12.382 7.52328 12.3821 7.52328 12.3822 7.52328C12.3823 7.52328 12.3823 7.52328 12.3824 7.52328C12.3825 7.52328 12.3826 7.52328 12.3827 7.52328C12.3828 7.52328 12.3829 7.52328 12.3829 7.52328C12.383 7.52328 12.3831 7.52328 12.3832 7.52328C12.3833 7.52328 12.3834 7.52328 12.3834 7.52328C12.3835 7.52328 12.3836 7.52328 12.3837 7.52328C12.3838 7.52328 12.3839 7.52328 12.3839 7.52328C12.384 7.52328 12.3841 7.52328 12.3842 7.52328C12.3843 7.52328 12.3844 7.52328 12.3844 7.52328C12.3845 7.52328 12.3846 7.52328 12.3847 7.52328C12.3848 7.52328 12.3849 7.52328 12.385 7.52328C12.385 7.52328 12.3851 7.52328 12.3852 7.52328C12.3853 7.52328 12.3854 7.52328 12.3855 7.52328C12.3855 7.52328 12.3856 7.52328 12.3857 7.52328C12.3858 7.52328 12.3859 7.52328 12.386 7.52328C12.386 7.52328 12.3861 7.52328 12.3862 7.52328C12.3863 7.52328 12.3864 7.52328 12.3865 7.52328C12.3866 7.52328 12.3866 7.52328 12.3867 7.52328C12.3868 7.52328 12.3869 7.52328 12.387 7.52328C12.3871 7.52328 12.3871 7.52328 12.3872 7.52328C12.3873 7.52328 12.3874 7.52328 12.3875 7.52328C12.3876 7.52328 12.3876 7.52328 12.3877 7.52328C12.3878 7.52328 12.3879 7.52328 12.388 7.52328C12.3881 7.52328 12.3882 7.52328 12.3882 7.52328C12.3883 7.52328 12.3884 7.52328 12.3885 7.52328C12.3886 7.52328 12.3887 7.52328 12.3887 7.52328C12.3888 7.52328 12.3889 7.52328 12.389 7.52328C12.3891 7.52328 12.3892 7.52328 12.3892 7.52328C12.3893 7.52328 12.3894 7.52328 12.3895 7.52328C12.3896 7.52328 12.3897 7.52328 12.3897 7.52328C12.3898 7.52328 12.3899 7.52328 12.39 7.52328C12.3901 7.52328 12.3902 7.52328 12.3903 7.52328C12.3903 7.52328 12.3904 7.52328 12.3905 7.52328C12.3906 7.52328 12.3907 7.52328 12.3908 7.52328C12.3908 7.52328 12.3909 7.52328 12.391 7.52328C12.3911 7.52328 12.3912 7.52328 12.3913 7.52328C12.3913 7.52328 12.3914 7.52328 12.3915 7.52328C12.3916 7.52328 12.3917 7.52328 12.3918 7.52328C12.3919 7.52328 12.3919 7.52328 12.392 7.52328C12.3921 7.52328 12.3922 7.52328 12.3923 7.52328C12.3924 7.52328 12.3924 7.52328 12.3925 7.52328C12.3926 7.52328 12.3927 7.52328 12.3928 7.52328C12.3929 7.52328 12.3929 7.52328 12.393 7.52328C12.3931 7.52328 12.3932 7.52328 12.3933 7.52328C12.3934 7.52328 12.3935 7.52328 12.3935 7.52328C12.3936 7.52328 12.3937 7.52328 12.3938 7.52328C12.3939 7.52328 12.394 7.52328 12.394 7.52328C12.3941 7.52328 12.3942 7.52328 12.3943 7.52328C12.3944 7.52328 12.3945 7.52328 12.3945 7.52328C12.3946 7.52328 12.3947 7.52328 12.3948 7.52328C12.3949 7.52328 12.395 7.52328 12.3951 7.52328C12.3951 7.52328 12.3952 7.52328 12.3953 7.52328C12.3954 7.52328 12.3955 7.52328 12.3956 7.52328C12.3956 7.52328 12.3957 7.52328 12.3958 7.52328C12.3959 7.52328 12.396 7.52328 12.3961 7.52328C12.3961 7.52328 12.3962 7.52328 12.3963 7.52328C12.3964 7.52328 12.3965 7.52328 12.3966 7.52328C12.3966 7.52328 12.3967 7.52328 12.3968 7.52328C12.3969 7.52328 12.397 7.52328 12.3971 7.52328C12.3972 7.52328 12.3972 7.52328 12.3973 7.52328C12.3974 7.52328 12.3975 7.52328 12.3976 7.52328C12.3977 7.52328 12.3977 7.52328 12.3978 7.52328C12.3979 7.52328 12.398 7.52328 12.3981 7.52328C12.3982 7.52328 12.3982 7.52328 12.3983 7.52328C12.3984 7.52328 12.3985 7.52328 12.3986 7.52328C12.3987 7.52328 12.3988 7.52328 12.3988 7.52328C12.3989 7.52328 12.399 7.52328 12.3991 7.52328C12.3992 7.52328 12.3993 7.52328 12.3993 7.52328C12.3994 7.52328 12.3995 7.52328 12.3996 7.52328C12.3997 7.52328 12.3998 7.52328 12.3998 7.52328C12.3999 7.52328 12.4 7.52328 12.4001 7.52328C12.4002 7.52328 12.4003 7.52328 12.4004 7.52328C12.4004 7.52328 12.4005 7.52328 12.4006 7.52328C12.4007 7.52328 12.4008 7.52328 12.4009 7.52328C12.4009 7.52328 12.401 7.52328 12.4011 7.52328C12.4012 7.52328 12.4013 7.52328 12.4014 7.52328C12.4014 7.52328 12.4015 7.52328 12.4016 7.52328C12.4017 7.52328 12.4018 7.52328 12.4019 7.52328C12.4019 7.52328 12.402 7.52328 12.4021 7.52328C12.4022 7.52328 12.4023 7.52328 12.4024 7.52328C12.4025 7.52328 12.4025 7.52328 12.4026 7.52328C12.4027 7.52328 12.4028 7.52328 12.4029 7.52328C12.403 7.52328 12.403 7.52328 12.4031 7.52328C12.4032 7.52328 12.4033 7.52328 12.4034 7.52328C12.4035 7.52328 12.4035 7.52328 12.4036 7.52328C12.4037 7.52328 12.4038 7.52328 12.4039 7.52328C12.404 7.52328 12.4041 7.52328 12.4041 7.52328C12.4042 7.52328 12.4043 7.52328 12.4044 7.52328C12.4045 7.52328 12.4046 7.52328 12.4046 7.52328C12.4047 7.52328 12.4048 7.52328 12.4049 7.52328C12.405 7.52328 12.4051 7.52328 12.4051 7.52328C12.4052 7.52328 12.4053 7.52328 12.4054 7.52328C12.4055 7.52328 12.4056 7.52328 12.4057 7.52328C12.4057 7.52328 12.4058 7.52328 12.4059 7.52328C12.406 7.52328 12.4061 7.52328 12.4062 7.52328C12.4062 7.52328 12.4063 7.52328 12.4064 7.52328C12.4065 7.52328 12.4066 7.52328 12.4067 7.52328C12.4067 7.52328 12.4068 7.52328 12.4069 7.52328C12.407 7.52328 12.4071 7.52328 12.4072 7.52328C12.4072 7.52328 12.4073 7.52328 12.4074 7.52328C12.4075 7.52328 12.4076 7.52328 12.4077 7.52328C12.4078 7.52328 12.4078 7.52328 12.4079 7.52328C12.408 7.52328 12.4081 7.52328 12.4082 7.52328C12.4083 7.52328 12.4083 7.52328 12.4084 7.52328C12.4085 7.52328 12.4086 7.52328 12.4087 7.52328C12.4088 7.52328 12.4088 7.52328 12.4089 7.52328C12.409 7.52328 12.4091 7.52328 12.4092 7.52328C12.4093 7.52328 12.4094 7.52328 12.4094 7.52328C12.4095 7.52328 12.4096 7.52328 12.4097 7.52328C12.4098 7.52328 12.4099 7.52328 12.4099 7.52328C12.41 7.52328 12.4101 7.52328 12.4102 7.52328C12.4103 7.52328 12.4104 7.52328 12.4104 7.52328C12.4105 7.52328 12.4106 7.52328 12.4107 7.52328C12.4108 7.52328 12.4109 7.52328 12.411 7.52328C12.411 7.52328 12.4111 7.52328 12.4112 7.52328C12.4113 7.52328 12.4114 7.52328 12.4115 7.52328C12.4115 7.52328 12.4116 7.52328 12.4117 7.52328C12.4118 7.52328 12.4119 7.52328 12.412 7.52328C12.412 7.52328 12.4121 7.52328 12.4122 7.52328C12.4123 7.52328 12.4124 7.52328 12.4125 7.52328C12.4125 7.52328 12.4126 7.52328 12.4127 7.52328C12.4128 7.52328 12.4129 7.52328 12.413 7.52328C12.4131 7.52328 12.4131 7.52328 12.4132 7.52328C12.4133 7.52328 12.4134 7.52328 12.4135 7.52328C12.4136 7.52328 12.4136 7.52328 12.4137 7.52328C12.4138 7.52328 12.4139 7.52328 12.414 7.52328C12.4141 7.52328 12.4141 7.52328 12.4142 7.52328C12.4143 7.52328 12.4144 7.52328 12.4145 7.52328C12.4146 7.52328 12.4147 7.52328 12.4147 7.52328C12.4148 7.52328 12.4149 7.52328 12.415 7.52328C12.4151 7.52328 12.4152 7.52328 12.4152 7.52328C12.4153 7.52328 12.4154 7.52328 12.4155 7.52328C12.4156 7.52328 12.4157 7.52328 12.4157 7.52328C12.4158 7.52328 12.4159 7.52328 12.416 7.52328C12.4161 7.52328 12.4162 7.52328 12.4163 7.52328C12.4163 7.52328 12.4164 7.52328 12.4165 7.52328C12.4166 7.52328 12.4167 7.52328 12.4168 7.52328C12.4168 7.52328 12.4169 7.52328 12.417 7.52328C12.4171 7.52328 12.4172 7.52328 12.4173 7.52328C12.4173 7.52328 12.4174 7.52328 12.4175 7.52328C12.4176 7.52328 12.4177 7.52328 12.4178 7.52328C12.4179 7.52328 12.4179 7.52328 12.418 7.52328C12.4181 7.52328 12.4182 7.52328 12.4183 7.52328C12.4184 7.52328 12.4184 7.52328 12.4185 7.52328C12.4186 7.52328 12.4187 7.52328 12.4188 7.52328C12.4189 7.52328 12.4189 7.52328 12.419 7.52328C12.4191 7.52328 12.4192 7.52328 12.4193 7.52328C12.4194 7.52328 12.4194 7.52328 12.4195 7.52328C12.4196 7.52328 12.4197 7.52328 12.4198 7.52328C12.4199 7.52328 12.42 7.52328 12.42 7.52328C12.4201 7.52328 12.4202 7.52328 12.4203 7.52328C12.4204 7.52328 12.4205 7.52328 12.4205 7.52328C12.4206 7.52328 12.4207 7.52328 12.4208 7.52328C12.4209 7.52328 12.421 7.52328 12.421 7.52328C12.4211 7.52328 12.4212 7.52328 12.4213 7.52328C12.4214 7.52328 12.4215 7.52328 12.4216 7.52328C12.4216 7.52328 12.4217 7.52328 12.4218 7.52328C12.4219 7.52328 12.422 7.52328 12.4221 7.52328C12.4221 7.52328 12.4222 7.52328 12.4223 7.52328C12.4224 7.52328 12.4225 7.52328 12.4226 7.52328C12.4226 7.52328 12.4227 7.52328 12.4228 7.52328C12.4229 7.52328 12.423 7.52328 12.4231 7.52328C12.4232 7.52328 12.4232 7.52328 12.4233 7.52328C12.4234 7.52328 12.4235 7.52328 12.4236 7.52328C12.4237 7.52328 12.4237 7.52328 12.4238 7.52328C12.4239 7.52328 12.424 7.52328 12.4241 7.52328C12.4242 7.52328 12.4242 7.52328 12.4243 7.52328C12.4244 7.52328 12.4245 7.52328 12.4246 7.52328C12.4247 7.52328 12.4247 7.52328 12.4248 7.52328C12.4249 7.52328 12.425 7.52328 12.4251 7.52328C12.4252 7.52328 12.4253 7.52328 12.4253 7.52328C12.4254 7.52328 12.4255 7.52328 12.4256 7.52328C12.4257 7.52328 12.4258 7.52328 12.4258 7.52328C12.4259 7.52328 12.426 7.52328 12.4261 7.52328C12.4262 7.52328 12.4263 7.52328 12.4263 7.52328C12.4264 7.52328 12.4265 7.52328 12.4266 7.52328C12.4267 7.52328 12.4268 7.52328 12.4269 7.52328C12.4269 7.52328 12.427 7.52328 12.4271 7.52328C12.4272 7.52328 12.4273 7.52328 12.4274 7.52328C12.4274 7.52328 12.4275 7.52328 12.4276 7.52328C12.4277 7.52328 12.4278 7.52328 12.4279 7.52328C12.4279 7.52328 12.428 7.52328 12.4281 7.52328C12.4282 7.52328 12.4283 7.52328 12.4284 7.52328C12.4285 7.52328 12.4285 7.52328 12.4286 7.52328C12.4287 7.52328 12.4288 7.52328 12.4289 7.52328C12.429 7.52328 12.429 7.52328 12.4291 7.52328C12.4292 7.52328 12.4293 7.52328 12.4294 7.52328C12.4295 7.52328 12.4295 7.52328 12.4296 7.52328C12.4297 7.52328 12.4298 7.52328 12.4299 7.52328C12.43 7.52328 12.43 7.52328 12.4301 7.52328C12.4302 7.52328 12.4303 7.52328 12.4304 7.52328C12.4305 7.52328 12.4306 7.52328 12.4306 7.52328C12.4307 7.52328 12.4308 7.52328 12.4309 7.52328C12.431 7.52328 12.4311 7.52328 12.4311 7.52328C12.4312 7.52328 12.4313 7.52328 12.4314 7.52328C12.4315 7.52328 12.4316 7.52328 12.4316 7.52328C12.4317 7.52328 12.4318 7.52328 12.4319 7.52328C12.432 7.52328 12.4321 7.52328 12.4322 7.52328C12.4322 7.52328 12.4323 7.52328 12.4324 7.52328C12.4325 7.52328 12.4326 7.52328 12.4327 7.52328C12.4327 7.52328 12.4328 7.52328 12.4329 7.52328C12.433 7.52328 12.4331 7.52328 12.4332 7.52328C12.4332 7.52328 12.4333 7.52328 12.4334 7.52328C12.4335 7.52328 12.4336 7.52328 12.4337 7.52328C12.4338 7.52328 12.4338 7.52328 12.4339 7.52328C12.434 7.52328 12.4341 7.52328 12.4342 7.52328C12.4343 7.52328 12.4343 7.52328 12.4344 7.52328C12.4345 7.52328 12.4346 7.52328 12.4347 7.52328C12.4348 7.52328 12.4348 7.52328 12.4349 7.52328C12.435 7.52328 12.4351 7.52328 12.4352 7.52328C12.4353 7.52328 12.4354 7.52328 12.4354 7.52328C12.4355 7.52328 12.4356 7.52328 12.4357 7.52328C12.4358 7.52328 12.4359 7.52328 12.4359 7.52328C12.436 7.52328 12.4361 7.52328 12.4362 7.52328C12.4363 7.52328 12.4364 7.52328 12.4364 7.52328C12.4365 7.52328 12.4366 7.52328 12.4367 7.52328C12.4368 7.52328 12.4369 7.52328 12.4369 7.52328V5.52328ZM12.3077 5.52328H12.1662V7.52328H12.3077V5.52328ZM12.1662 5.52328H2.46159V7.52328H12.1662V5.52328ZM2.44731 5.52338C2.22165 5.5266 2.09181 5.52361 1.98805 5.50308C1.90566 5.48677 1.89198 5.46868 1.8887 5.4654L0.474487 6.87962C1.17226 7.57739 2.11028 7.5284 2.47587 7.52318L2.44731 5.52338ZM1.88089 5.45768C1.87749 5.45435 1.85251 5.43132 1.82564 5.34337C1.79602 5.24643 1.76929 5.08591 1.76929 4.83098H-0.230713C-0.230713 5.56932 -0.085322 6.33206 0.4823 6.88734L1.88089 5.45768ZM1.76929 4.83098C1.76929 4.52727 1.82484 4.37894 1.8568 4.31818C1.88371 4.26701 1.9102 4.24483 1.945 4.22561C1.99204 4.19963 2.0704 4.17281 2.19386 4.1564C2.3189 4.13979 2.44517 4.13867 2.59697 4.13867V2.13867C2.33615 2.13867 1.62006 2.12036 0.97819 2.47481C0.629915 2.66713 0.310242 2.96225 0.0867752 3.38704C-0.131646 3.80225 -0.230713 4.28853 -0.230713 4.83098H1.76929ZM2.59697 4.13867H12.1723V2.13867H2.59697V4.13867ZM12.1723 4.13867C12.3241 4.13867 12.4504 4.13979 12.5754 4.1564C12.6989 4.17281 12.7773 4.19963 12.8243 4.22561C12.8591 4.24483 12.8856 4.26701 12.9125 4.31818C12.9445 4.37894 13 4.52727 13 4.83098H15C15 4.28853 14.901 3.80225 14.6825 3.38704C14.4591 2.96225 14.1394 2.66713 13.7911 2.47481C13.1492 2.12036 12.4332 2.13867 12.1723 2.13867V4.13867ZM13 4.83098C13 5.08984 12.9731 5.24966 12.944 5.34475C12.9179 5.42965 12.8938 5.45245 12.8884 5.45768L14.287 6.88734C14.8539 6.33281 15 5.57721 15 4.83098H13ZM12.8806 5.4654C12.8781 5.46786 12.8684 5.48116 12.8078 5.49578C12.7311 5.51428 12.6224 5.52328 12.4369 5.52328V7.52328C12.8357 7.52328 13.6587 7.51577 14.2948 6.87962L12.8806 5.4654ZM2.59697 6.6002H12.3139V4.6002H2.59697V6.6002ZM12.2917 6.59996C12.4235 6.60289 12.6121 6.60659 12.7867 6.59071C12.8755 6.58264 12.9962 6.56676 13.1243 6.52892C13.2408 6.49448 13.4535 6.41634 13.6425 6.22731L12.2283 4.8131C12.3051 4.73627 12.3808 4.68903 12.4344 4.66117C12.4882 4.63326 12.5322 4.6184 12.5575 4.61091C12.6042 4.59711 12.6269 4.597 12.6056 4.59893C12.5888 4.60046 12.5581 4.60207 12.5082 4.60244C12.4592 4.60281 12.4034 4.60195 12.3361 4.60045L12.2917 6.59996ZM13.6425 6.22731C13.9826 5.88724 14.0708 5.38367 14.0708 4.83098H12.0708C12.0708 4.9254 12.0664 4.99096 12.0617 5.03333C12.057 5.07602 12.0526 5.09032 12.0543 5.08384C12.0572 5.07328 12.0929 4.94849 12.2283 4.8131L13.6425 6.22731ZM14.0708 4.83098C14.0708 4.52214 14.0675 3.83501 13.5095 3.39818C13.2485 3.19382 12.9636 3.12489 12.7641 3.09511C12.5653 3.06542 12.3524 3.06175 12.1662 3.06175V5.06175C12.2508 5.06175 12.3168 5.06285 12.3702 5.06526C12.4242 5.0677 12.4544 5.07104 12.4688 5.07319C12.5076 5.07899 12.4031 5.07198 12.2767 4.973C12.2105 4.92121 12.1579 4.85937 12.1202 4.79649C12.0846 4.73718 12.0702 4.6903 12.0654 4.67226C12.061 4.65542 12.0632 4.65705 12.0659 4.68748C12.0686 4.71727 12.0708 4.763 12.0708 4.83098H14.0708ZM12.1662 3.06175H2.59697V5.06175H12.1662V3.06175ZM2.59697 3.06175C2.41078 3.06175 2.19787 3.06542 1.99901 3.09511C1.7996 3.12489 1.51467 3.19382 1.25362 3.39818C0.695628 3.83501 0.692362 4.52214 0.692362 4.83098H2.69236C2.69236 4.763 2.69454 4.71727 2.69721 4.68748C2.69993 4.65705 2.70215 4.65542 2.69771 4.67226C2.69296 4.6903 2.67858 4.73718 2.64299 4.79649C2.60526 4.85937 2.55264 4.92121 2.48648 4.973C2.36005 5.07198 2.25551 5.07899 2.29436 5.07319C2.30877 5.07104 2.33899 5.0677 2.39296 5.06526C2.44636 5.06285 2.51236 5.06175 2.59697 5.06175V3.06175ZM0.692362 4.83098C0.692362 5.43905 0.808946 5.8682 1.06849 6.171L2.587 4.86941C2.60378 4.88899 2.62105 4.91111 2.63765 4.93546C2.65392 4.95934 2.66722 4.98194 2.67793 5.0025C2.69928 5.04349 2.70761 5.07114 2.70932 5.07725C2.71088 5.08283 2.70641 5.06862 2.70167 5.02776C2.69695 4.98699 2.69236 4.92323 2.69236 4.83098H0.692362ZM1.14729 6.253C1.34114 6.433 1.55435 6.50233 1.65944 6.53106C1.78054 6.56417 1.89516 6.57855 1.97937 6.58615C2.14437 6.60105 2.32767 6.6002 2.44928 6.6002V4.6002C2.37962 4.6002 2.32228 4.60017 2.26951 4.59914C2.21647 4.59811 2.18144 4.59626 2.1592 4.59425C2.1488 4.59332 2.14575 4.59274 2.1485 4.59317C2.15073 4.59353 2.16464 4.59578 2.18682 4.60185C2.20797 4.60763 2.24849 4.62006 2.29951 4.64446C2.34972 4.66847 2.42718 4.71219 2.5082 4.78741L1.14729 6.253ZM2.44928 6.6002H2.59697V4.6002H2.44928V6.6002Z" fill="#A98467" mask="url(#path-5-inside-3_597_128)"/>
<mask id="path-7-inside-4_597_128" fill="white">
<path d="M6.00615 11.2615C5.75385 11.2615 5.54462 11.0523 5.54462 10.8V8.61535C5.54462 8.36304 5.75385 8.15381 6.00615 8.15381C6.25846 8.15381 6.46769 8.36304 6.46769 8.61535V10.8C6.46769 11.0584 6.25846 11.2615 6.00615 11.2615Z"/>
</mask>
<path d="M6.00615 10.2615C6.30613 10.2615 6.54462 10.5 6.54462 10.8H4.54462C4.54462 11.6045 5.20156 12.2615 6.00615 12.2615V10.2615ZM6.54462 10.8V8.61535H4.54462V10.8H6.54462ZM6.54462 8.61535C6.54462 8.91532 6.30613 9.15381 6.00615 9.15381V7.15381C5.20156 7.15381 4.54462 7.81075 4.54462 8.61535H6.54462ZM6.00615 9.15381C5.70618 9.15381 5.46769 8.91532 5.46769 8.61535H7.46769C7.46769 7.81075 6.81075 7.15381 6.00615 7.15381V9.15381ZM5.46769 8.61535V10.8H7.46769V8.61535H5.46769ZM5.46769 10.8C5.46769 10.4975 5.71489 10.2615 6.00615 10.2615V12.2615C6.80204 12.2615 7.46769 11.6194 7.46769 10.8H5.46769Z" fill="#A98467" mask="url(#path-7-inside-4_597_128)"/>
<mask id="path-9-inside-5_597_128" fill="white">
<path d="M8.83703 11.2615C8.58472 11.2615 8.37549 11.0523 8.37549 10.8V8.61535C8.37549 8.36304 8.58472 8.15381 8.83703 8.15381C9.08933 8.15381 9.29856 8.36304 9.29856 8.61535V10.8C9.29856 11.0584 9.08933 11.2615 8.83703 11.2615Z"/>
</mask>
<path d="M8.83703 10.2615C9.137 10.2615 9.37549 10.5 9.37549 10.8H7.37549C7.37549 11.6045 8.03243 12.2615 8.83703 12.2615V10.2615ZM9.37549 10.8V8.61535H7.37549V10.8H9.37549ZM9.37549 8.61535C9.37549 8.91532 9.137 9.15381 8.83703 9.15381V7.15381C8.03243 7.15381 7.37549 7.81075 7.37549 8.61535H9.37549ZM8.83703 9.15381C8.53705 9.15381 8.29856 8.91532 8.29856 8.61535H10.2986C10.2986 7.81075 9.64162 7.15381 8.83703 7.15381V9.15381ZM8.29856 8.61535V10.8H10.2986V8.61535H8.29856ZM8.29856 10.8C8.29856 10.4975 8.54576 10.2615 8.83703 10.2615V12.2615C9.63291 12.2615 10.2986 11.6194 10.2986 10.8H8.29856Z" fill="#A98467" mask="url(#path-9-inside-5_597_128)"/>
<mask id="path-11-inside-6_597_128" fill="white">
<path d="M9.16297 14H5.45221C3.24914 14 2.75684 12.6892 2.56607 11.5508L1.69838 6.22773C1.6553 5.97542 1.82761 5.74158 2.07991 5.6985C2.33222 5.65542 2.56607 5.82773 2.60914 6.08004L3.47683 11.3969C3.65529 12.4862 4.02452 13.0769 5.45221 13.0769H9.16297C10.7445 13.0769 10.923 12.5231 11.126 11.4523L12.1599 6.06773C12.2091 5.81542 12.4491 5.64927 12.7014 5.70465C12.9537 5.75388 13.1137 5.99388 13.0645 6.24619L12.0307 11.6308C11.7907 12.88 11.3907 14 9.16297 14Z"/>
</mask>
<path d="M2.56607 11.5508L1.57908 11.7117L1.57982 11.7161L2.56607 11.5508ZM1.69838 6.22773L2.68538 6.06684L2.68411 6.05943L1.69838 6.22773ZM2.60914 6.08004L3.59611 5.91897L3.59488 5.91174L2.60914 6.08004ZM3.47683 11.3969L2.48989 11.558L2.48999 11.5586L3.47683 11.3969ZM11.126 11.4523L10.144 11.2638L10.1436 11.266L11.126 11.4523ZM12.1599 6.06773L11.1784 5.87622L11.1778 5.87917L12.1599 6.06773ZM12.7014 5.70465L12.487 6.6814L12.4984 6.6839L12.5099 6.68614L12.7014 5.70465ZM13.0645 6.24619L12.083 6.05468L12.0824 6.05763L13.0645 6.24619ZM12.0307 11.6308L13.0127 11.8195L13.0127 11.8193L12.0307 11.6308ZM9.16297 13H5.45221V15H9.16297V13ZM5.45221 13C4.56404 13 4.18856 12.7456 3.99836 12.534C3.77109 12.281 3.63902 11.9029 3.55232 11.3855L1.57982 11.7161C1.68388 12.3371 1.89335 13.1836 2.51069 13.8707C3.16511 14.599 4.13731 15 5.45221 15V13ZM3.55304 11.3899L2.68535 6.06684L0.711403 6.38861L1.57909 11.7117L3.55304 11.3899ZM2.68411 6.05943C2.73762 6.37286 2.51874 6.63805 2.24821 6.68423L1.91162 4.71276C1.13648 4.8451 0.572974 5.57798 0.71264 6.39602L2.68411 6.05943ZM2.24821 6.68423C1.93479 6.73775 1.66959 6.51886 1.62341 6.24833L3.59488 5.91174C3.46254 5.1366 2.72966 4.5731 1.91162 4.71276L2.24821 6.68423ZM1.6222 6.2411L2.48989 11.558L4.46378 11.2359L3.59609 5.91897L1.6222 6.2411ZM2.48999 11.5586C2.58572 12.1429 2.76252 12.8428 3.30036 13.3637C3.86217 13.9079 4.62162 14.0769 5.45221 14.0769V12.0769C4.85511 12.0769 4.7161 11.9506 4.69177 11.9271C4.64345 11.8803 4.54641 11.7402 4.46368 11.2353L2.48999 11.5586ZM5.45221 14.0769H9.16297V12.0769H5.45221V14.0769ZM9.16297 14.0769C10.0224 14.0769 10.8143 13.9371 11.3746 13.3672C11.8905 12.8424 12.0183 12.1146 12.1085 11.6387L10.1436 11.266C10.0924 11.5358 10.0544 11.7055 10.0109 11.8312C9.99104 11.8887 9.9745 11.9231 9.96335 11.9427C9.95795 11.9522 9.95399 11.9579 9.95174 11.9609C9.94955 11.9639 9.94843 11.965 9.94831 11.9651C9.94822 11.9652 9.94791 11.9656 9.94678 11.9664C9.94561 11.9673 9.94226 11.9697 9.9357 11.9734C9.92264 11.9808 9.89253 11.9955 9.83575 12.0115C9.71521 12.0457 9.5084 12.0769 9.16297 12.0769V14.0769ZM12.1081 11.6409L13.1419 6.25628L11.1778 5.87917L10.144 11.2638L12.1081 11.6409ZM13.1414 6.25924C13.0883 6.53114 12.8094 6.75217 12.487 6.6814L12.9158 4.72791C12.0888 4.54637 11.3299 5.0997 11.1784 5.87622L13.1414 6.25924ZM12.5099 6.68614C12.2148 6.62857 12.0275 6.3391 12.083 6.05468L14.046 6.4377C14.1999 5.64867 13.6926 4.8792 12.8929 4.72316L12.5099 6.68614ZM12.0824 6.05763L11.0486 11.4422L13.0127 11.8193L14.0466 6.43474L12.0824 6.05763ZM11.0486 11.4421C10.93 12.0593 10.8074 12.392 10.6123 12.6003C10.4579 12.7652 10.1123 13 9.16297 13V15C10.4413 15 11.4096 14.6748 12.0721 13.9674C12.6939 13.3034 12.8913 12.4515 13.0127 11.8195L11.0486 11.4421Z" fill="#A98467" mask="url(#path-11-inside-6_597_128)"/>
</svg>
