<svg width="14" height="14" viewBox="0 0 14 14" fill="none" xmlns="http://www.w3.org/2000/svg">
<path d="M3.02711 3.72151C2.91627 3.72151 2.79961 3.67484 2.71794 3.59318C2.54877 3.42401 2.54877 3.14401 2.71794 2.97484L4.83544 0.857344C5.00461 0.688177 5.28461 0.688177 5.45377 0.857344C5.62294 1.02651 5.62294 1.30651 5.45377 1.47568L3.33627 3.59318C3.24877 3.67484 3.13794 3.72151 3.02711 3.72151Z" fill="white"/>
<path d="M10.9725 3.72151C10.8617 3.72151 10.7508 3.68068 10.6633 3.59318L8.54582 1.47568C8.37665 1.30651 8.37665 1.02651 8.54582 0.857344C8.71499 0.688177 8.99499 0.688177 9.16415 0.857344L11.2817 2.97484C11.4508 3.14401 11.4508 3.42401 11.2817 3.59318C11.2 3.67484 11.0833 3.72151 10.9725 3.72151Z" fill="white"/>
<path d="M11.789 6.18343C11.7482 6.18343 11.7073 6.18343 11.6665 6.18343H11.5323H2.33317C1.92484 6.18926 1.45817 6.18926 1.11984 5.85093C0.851504 5.58843 0.729004 5.1801 0.729004 4.57926C0.729004 2.9751 1.9015 2.9751 2.4615 2.9751H11.5382C12.0982 2.9751 13.2707 2.9751 13.2707 4.57926C13.2707 5.18593 13.1482 5.58843 12.8798 5.85093C12.5765 6.15426 12.1682 6.18343 11.789 6.18343ZM2.4615 5.30843H11.6723C11.9348 5.31426 12.1798 5.31426 12.2615 5.2326C12.3023 5.19176 12.3898 5.05176 12.3898 4.57926C12.3898 3.9201 12.2265 3.8501 11.5323 3.8501H2.4615C1.76734 3.8501 1.604 3.9201 1.604 4.57926C1.604 5.05176 1.69734 5.19176 1.73234 5.2326C1.814 5.30843 2.06484 5.30843 2.3215 5.30843H2.4615Z" fill="white"/>
<path d="M5.6936 10.6748C5.45444 10.6748 5.2561 10.4765 5.2561 10.2373V8.1665C5.2561 7.92734 5.45444 7.729 5.6936 7.729C5.93277 7.729 6.1311 7.92734 6.1311 8.1665V10.2373C6.1311 10.4823 5.93277 10.6748 5.6936 10.6748Z" fill="white"/>
<path d="M8.37671 10.6748C8.13754 10.6748 7.93921 10.4765 7.93921 10.2373V8.1665C7.93921 7.92734 8.13754 7.729 8.37671 7.729C8.61588 7.729 8.81421 7.92734 8.81421 8.1665V10.2373C8.81421 10.4823 8.61588 10.6748 8.37671 10.6748Z" fill="white"/>
<path d="M8.68561 13.2704H5.16811C3.07977 13.2704 2.61311 12.0279 2.43228 10.9488L1.60978 5.90295C1.56894 5.66378 1.73228 5.44211 1.97144 5.40128C2.21061 5.36045 2.43228 5.52378 2.47311 5.76295L3.29561 10.8029C3.46478 11.8354 3.81477 12.3954 5.16811 12.3954H8.68561C10.1848 12.3954 10.3539 11.8704 10.5464 10.8554L11.5264 5.75128C11.5731 5.51211 11.8006 5.35461 12.0398 5.40711C12.2789 5.45378 12.4306 5.68128 12.3839 5.92045L11.4039 11.0246C11.1764 12.2088 10.7973 13.2704 8.68561 13.2704Z" fill="white"/>
</svg>
