<svg width="27" height="27" viewBox="0 0 27 27" fill="none" xmlns="http://www.w3.org/2000/svg">
<path d="M5.8385 7.17664C5.62475 7.17664 5.39975 7.08664 5.24225 6.92914C4.916 6.60289 4.916 6.06289 5.24225 5.73664L9.326 1.65289C9.65225 1.32664 10.1922 1.32664 10.5185 1.65289C10.8447 1.97914 10.8447 2.51914 10.5185 2.84539L6.43475 6.92914C6.266 7.08664 6.05225 7.17664 5.8385 7.17664Z" fill="white"/>
<path d="M21.1615 7.17664C20.9478 7.17664 20.734 7.09789 20.5653 6.92914L16.4815 2.84539C16.1553 2.51914 16.1553 1.97914 16.4815 1.65289C16.8078 1.32664 17.3478 1.32664 17.674 1.65289L21.7578 5.73664C22.084 6.06289 22.084 6.60289 21.7578 6.92914C21.6003 7.08664 21.3753 7.17664 21.1615 7.17664Z" fill="white"/>
<path d="M22.7362 11.9248C22.6575 11.9248 22.5788 11.9248 22.5 11.9248H22.2413H4.5C3.7125 11.9361 2.8125 11.9361 2.16 11.2836C1.6425 10.7773 1.40625 9.9898 1.40625 8.83105C1.40625 5.7373 3.6675 5.7373 4.7475 5.7373H22.2525C23.3325 5.7373 25.5938 5.7373 25.5938 8.83105C25.5938 10.0011 25.3575 10.7773 24.84 11.2836C24.255 11.8686 23.4675 11.9248 22.7362 11.9248ZM4.7475 10.2373H22.5112C23.0175 10.2486 23.49 10.2486 23.6475 10.0911C23.7262 10.0123 23.895 9.7423 23.895 8.83105C23.895 7.5598 23.58 7.4248 22.2413 7.4248H4.7475C3.40875 7.4248 3.09375 7.5598 3.09375 8.83105C3.09375 9.7423 3.27375 10.0123 3.34125 10.0911C3.49875 10.2373 3.9825 10.2373 4.4775 10.2373H4.7475Z" fill="white"/>
<path d="M10.98 20.5875C10.5187 20.5875 10.1362 20.205 10.1362 19.7437V15.75C10.1362 15.2887 10.5187 14.9062 10.98 14.9062C11.4412 14.9062 11.8237 15.2887 11.8237 15.75V19.7437C11.8237 20.2162 11.4412 20.5875 10.98 20.5875Z" fill="white"/>
<path d="M16.1553 20.5875C15.694 20.5875 15.3115 20.205 15.3115 19.7437V15.75C15.3115 15.2887 15.694 14.9062 16.1553 14.9062C16.6165 14.9062 16.999 15.2887 16.999 15.75V19.7437C16.999 20.2162 16.6165 20.5875 16.1553 20.5875Z" fill="white"/>
<path d="M16.7511 25.5936H9.96735C5.93985 25.5936 5.03985 23.1973 4.6911 21.1161L3.10485 11.3848C3.0261 10.9236 3.3411 10.4961 3.80235 10.4173C4.2636 10.3386 4.6911 10.6536 4.76985 11.1148L6.3561 20.8348C6.68235 22.8261 7.35735 23.9061 9.96735 23.9061H16.7511C19.6423 23.9061 19.9686 22.8936 20.3398 20.9361L22.2298 11.0923C22.3198 10.6311 22.7586 10.3273 23.2198 10.4286C23.6811 10.5186 23.9736 10.9573 23.8836 11.4186L21.9936 21.2623C21.5548 23.5461 20.8236 25.5936 16.7511 25.5936Z" fill="white"/>
</svg>
