<svg width="254" height="254" viewBox="0 0 254 254" fill="none" xmlns="http://www.w3.org/2000/svg">
<path fill-rule="evenodd" clip-rule="evenodd" d="M89.3215 20.8606C68.2857 22.4457 24.3792 42.2058 25.4181 74.7505C26.1539 97.7981 34.9621 114.665 57.9651 116.753C65.5016 117.437 71.7461 115.981 77.4143 114.105V88.6192H37.3256C36.8872 88.6192 36.5318 88.2636 36.5318 87.8254V77.9204L72.5255 64.8898C72.6088 64.8596 72.6966 64.8436 72.7852 64.8424L203.299 63.1235C197.106 52.4832 186.427 47.4092 171.483 47.4092C162.908 47.4092 153.431 51.7965 146.357 55.0718C140.853 57.6199 136.803 59.495 135.761 58.108C132.986 54.4133 132.444 50.9712 131.893 47.4633C131.263 43.4617 130.62 39.3745 126.632 34.7293C116.514 22.9444 104.825 19.6923 89.3215 20.8606ZM208.555 82.7526L199.665 88.6192H182.597H161.164V164.194L206.015 165.095V176.267C206.015 176.472 205.937 176.669 205.796 176.817L180.613 203.135L95.1651 200.413C96.3375 210.491 101.228 219.776 110.755 226.117C132.189 240.383 159.429 229.819 166.324 226.117C208.397 203.531 231.816 156.378 228.243 136.169C225.781 122.245 214.578 117.779 205.042 113.979C200.739 112.264 196.775 110.684 194.108 108.431C192.416 107.002 194.216 105.445 197.054 102.992C201.386 99.2459 208.134 93.411 208.555 82.7526ZM192.917 132.999C193.137 127.09 188.516 122.123 182.597 121.904C176.92 122.569 172.861 127.296 173.072 132.999C173.273 138.471 177.117 143.082 182.597 143.301C188.293 143.529 192.707 138.685 192.917 132.999Z" fill="#A98467"/>
<path d="M36.5316 77.9203L72.5253 64.8896C72.6086 64.8595 72.6964 64.8434 72.7851 64.8423L223.083 62.8628M36.5316 77.9203V87.8254C36.5316 88.2635 36.8871 88.6191 37.3254 88.6191H77.4142M36.5316 77.9203H140.127M223.083 62.8628L198.871 77.9203M223.083 62.8628V72.7381C223.083 73.0048 222.949 73.2537 222.726 73.4006L199.665 88.6191M77.4142 88.6191H161.164M77.4142 88.6191V162.512M198.871 77.9203L199.665 88.6191M198.871 77.9203H179.819M199.665 88.6191H182.597M182.597 88.6191H161.164M182.597 88.6191C182.597 88.6191 182.597 108.905 182.597 121.904M161.164 88.6191V164.194M77.4142 162.512L68.1519 162.327C67.9806 162.323 67.8129 162.375 67.6738 162.475L31.3717 188.474M77.4142 162.512V174.66C77.4142 174.878 77.4967 175.081 77.6579 175.228C93.4395 189.595 151.965 189.196 161.048 175.185C161.127 175.062 161.164 174.924 161.164 174.777V164.194M161.164 164.194L206.015 165.095M206.015 165.095V176.267C206.015 176.472 205.937 176.669 205.796 176.817L180.613 203.135M206.015 165.095L180.613 193.229M180.613 203.135L32.1402 198.404C31.7119 198.391 31.3717 198.04 31.3717 197.611V188.474M180.613 203.135V193.229M180.613 193.229L31.3717 188.474M182.597 121.904C176.92 122.569 172.861 127.296 173.072 132.999C173.273 138.471 177.117 143.082 182.597 143.301C188.293 143.529 192.707 138.685 192.917 132.999C193.137 127.09 188.516 122.123 182.597 121.904ZM136.555 96.1478C137.91 95.8454 139.078 95.7732 143.303 96.1478M150.447 98.129C151.319 100.96 151.301 102.434 150.447 104.866M95.2754 151.226C95.6183 154.161 95.5794 155.824 95.2754 158.755M86.9402 154.792C86.7775 156.155 86.7473 156.988 86.9402 158.755M94.4816 169.058C94.6444 171.092 94.7023 172.196 94.4816 173.812M181.407 171.039C184.292 170.161 185.641 169.882 186.964 170.246M177.834 182.53C177.86 181.154 178.468 180.308 181.407 178.568M202.84 108.035C207.955 107.525 210.341 108.085 213.16 111.601M197.68 115.168C201.775 115.757 203.541 116.916 204.825 121.904" stroke="#6C584C" stroke-width="5" stroke-linecap="round"/>
</svg>
