<svg width="254" height="254" viewBox="0 0 254 254" fill="none" xmlns="http://www.w3.org/2000/svg">
<path fill-rule="evenodd" clip-rule="evenodd" d="M114.3 95.4746C114.158 95.4095 114.025 95.3762 113.903 95.3762C70.5746 96.4009 36.1156 103.581 36.1156 113.109L37.2026 142.638C18.9619 134.296 6.34998 116.39 6.34998 95.6469C6.34998 66.9332 30.5154 43.6562 60.325 43.6562C90.0747 43.6562 114.203 66.8402 114.3 95.4746Z" fill="#A98467"/>
<path fill-rule="evenodd" clip-rule="evenodd" d="M210.344 180.578L213.893 115.116C213.908 114.976 213.916 114.838 213.916 114.697C213.916 112.205 207.757 108.526 201.457 106.105C227.579 109.738 247.65 131.391 247.65 157.56C247.65 186.273 223.484 209.55 193.675 209.55C176.917 209.55 161.944 202.194 152.044 190.653C173.38 188.959 193.829 185.507 210.344 180.578Z" fill="#A98467"/>
<path d="M213.916 114.697L210.344 180.578C161.131 195.262 76.9937 196.85 38.4969 177.8L36.1156 113.109M213.916 114.697C213.916 109.975 191.809 100.993 188.516 104.378M213.916 114.697C213.916 118.269 208.978 121.51 200.517 124.222M36.1156 113.109C36.1156 102.807 76.3974 95.2498 124.619 95.2498C129.603 95.2498 134.907 95.326 139.7 95.5125C141.546 98.9002 142.798 100.784 145.221 103.981C89.658 102.394 42.8625 109.951 42.8625 120.253M36.1156 113.109C36.1156 117.492 43.4081 121.667 55.5019 125.015M36.1156 113.109C36.5226 116.174 37.9377 117.741 42.8625 120.253M188.516 104.378C184.547 86.1216 194.866 79.3748 189.706 67.0717C187.261 61.2419 182.054 56.7487 175.816 53.8455M188.516 104.378C190.931 115.49 192.554 118.103 200.302 123.705M200.517 124.222C187.515 128.388 166.195 131.302 141.684 132.235M200.517 124.222L200.302 123.705M42.8625 120.253C47.6795 122.585 50.3043 123.624 55.5019 125.015M55.5019 125.015C66.9854 128.196 82.7976 130.632 100.806 131.798M55.5019 125.015C55.5019 125.015 61.7352 115.927 67.4687 115.887C70.607 115.866 72.3146 118.523 75.4062 119.062C79.0738 119.702 81.9983 119.934 85.3281 118.269C89.2968 116.284 89.5842 110.725 96.0437 112.712C101.203 114.3 96.0437 118.269 101.997 117.475C111.24 116.242 113.506 111.522 122.634 111.522C125.612 111.522 126.037 115.467 128.984 115.887C130.353 116.083 133.771 113.737 139.303 112.712C145.001 111.657 152.797 111.919 152.797 111.919M152.797 111.919C152.797 111.919 127 90.8841 138.509 67.0717C142.33 59.168 144.905 51.6803 153.591 50.403C160.69 49.3589 168.889 50.622 175.816 53.8455M152.797 111.919C163.909 123.031 180.743 125.01 200.302 123.705M175.816 53.8455C175.816 53.8455 188.105 48.6894 196.453 48.0216C206.375 47.2278 212.342 48.3339 210.741 53.8455C209.55 57.9434 205.978 56.7529 198.834 56.7529C189.774 56.7529 175.816 53.8455 175.816 53.8455ZM115.491 123.825C115.491 123.825 119.014 118.84 122.634 120.65C124.222 121.444 123.825 123.825 127 124.222C130.736 124.688 134.144 123.031 134.144 123.031M159.544 101.203C159.544 101.203 154.781 92.9542 154.781 84.1373C154.781 80.9623 156.417 70.3175 160.734 69.8497C165.431 69.3408 169.361 73.5463 170.259 78.1841C170.794 80.94 169.069 86.1216 169.069 86.1216M46.4344 155.575C45.9689 157.316 45.9531 158.836 46.4344 162.719M61.9125 157.559C62.419 160.229 62.2783 161.707 61.1187 164.306M51.1969 167.481C50.7632 170.092 50.8145 171.362 51.1969 173.434M196.056 141.684C195.584 144.369 195.558 146.005 196.056 149.225M202.009 132.235C202.437 135.125 202.392 136.555 202.009 138.906M142.081 161.131C136.922 178.99 105.172 182.165 96.4406 161.528C112.73 148.175 127.794 147.24 142.081 161.131ZM142.081 161.131C142.081 161.131 156.176 169.465 157.956 168.275C159.737 167.084 159.147 153.194 157.956 151.209C156.766 149.225 142.081 161.131 142.081 161.131ZM110.728 162.322V164.306M28.1781 85.7248C32.3437 87.3083 34.4652 88.5497 37.7031 91.6779M41.275 69.0559C44.448 73.1931 45.8498 75.6207 47.625 80.1685M63.1031 71.4372C62.6593 76.3792 62.6311 79.0047 63.1031 83.3435" stroke="#6C584C" stroke-width="5" stroke-linecap="round"/>
</svg>
