<svg width="135" height="42" viewBox="0 0 135 42" fill="none" xmlns="http://www.w3.org/2000/svg">
<rect width="135" height="42" rx="10" fill="#A98467"/>
<path d="M34.1589 29C34.0309 29 33.9109 28.952 33.7989 28.856C33.7029 28.744 33.6549 28.624 33.6549 28.496C33.6549 28.416 33.6629 28.344 33.6789 28.28L39.3189 12.872C39.3669 12.696 39.4629 12.544 39.6069 12.416C39.7669 12.272 39.9829 12.2 40.2549 12.2H43.8069C44.0789 12.2 44.2869 12.272 44.4309 12.416C44.5909 12.544 44.6949 12.696 44.7429 12.872L50.3589 28.28C50.3909 28.344 50.4069 28.416 50.4069 28.496C50.4069 28.624 50.3509 28.744 50.2389 28.856C50.1429 28.952 50.0229 29 49.8789 29H46.9269C46.6869 29 46.5029 28.944 46.3749 28.832C46.2629 28.704 46.1909 28.592 46.1589 28.496L45.2229 26.048H38.8149L37.9029 28.496C37.8709 28.592 37.7989 28.704 37.6869 28.832C37.5749 28.944 37.3829 29 37.1109 29H34.1589ZM39.7989 22.592H44.2629L42.0069 16.256L39.7989 22.592ZM53.6186 29C53.4426 29 53.2986 28.944 53.1866 28.832C53.0746 28.72 53.0186 28.576 53.0186 28.4V12.8C53.0186 12.624 53.0746 12.48 53.1866 12.368C53.2986 12.256 53.4426 12.2 53.6186 12.2H56.7146C56.8906 12.2 57.0346 12.256 57.1466 12.368C57.2586 12.48 57.3146 12.624 57.3146 12.8V18.584H58.7786L62.3306 12.656C62.4106 12.528 62.5226 12.424 62.6666 12.344C62.8106 12.248 62.9946 12.2 63.2186 12.2H66.6746C66.8346 12.2 66.9626 12.256 67.0586 12.368C67.1546 12.464 67.2026 12.576 67.2026 12.704C67.2026 12.8 67.1706 12.896 67.1066 12.992L62.6426 20.288L67.5386 28.184C67.5866 28.248 67.6106 28.336 67.6106 28.448C67.6106 28.608 67.5546 28.744 67.4426 28.856C67.3466 28.952 67.2186 29 67.0586 29H63.5066C63.2506 29 63.0586 28.944 62.9306 28.832C62.8186 28.72 62.7306 28.624 62.6666 28.544L58.9466 22.424H57.3146V28.4C57.3146 28.576 57.2586 28.72 57.1466 28.832C57.0346 28.944 56.8906 29 56.7146 29H53.6186ZM83.1187 32.36C82.9427 32.36 82.7987 32.304 82.6867 32.192C82.5747 32.08 82.5187 31.936 82.5187 31.76V29H71.1667C70.9907 29 70.8467 28.944 70.7347 28.832C70.6227 28.704 70.5667 28.56 70.5667 28.4V12.8C70.5667 12.624 70.6227 12.48 70.7347 12.368C70.8467 12.256 70.9907 12.2 71.1667 12.2H74.2627C74.4387 12.2 74.5827 12.256 74.6947 12.368C74.8067 12.48 74.8627 12.624 74.8627 12.8V25.16H80.7907V12.8C80.7907 12.624 80.8467 12.48 80.9587 12.368C81.0707 12.256 81.2147 12.2 81.3907 12.2H84.4867C84.6627 12.2 84.8067 12.256 84.9187 12.368C85.0307 12.48 85.0867 12.624 85.0867 12.8V25.16H86.2147C86.3907 25.16 86.5347 25.224 86.6467 25.352C86.7747 25.464 86.8387 25.6 86.8387 25.76V31.76C86.8387 31.936 86.7747 32.08 86.6467 32.192C86.5347 32.304 86.3907 32.36 86.2147 32.36H83.1187ZM90.6133 29C90.4373 29 90.2933 28.944 90.1813 28.832C90.0693 28.704 90.0133 28.56 90.0133 28.4V12.8C90.0133 12.624 90.0693 12.48 90.1813 12.368C90.3093 12.256 90.4533 12.2 90.6133 12.2H93.7093C93.8853 12.2 94.0293 12.256 94.1413 12.368C94.2533 12.48 94.3093 12.624 94.3093 12.8V22.472L101.149 12.656C101.229 12.528 101.333 12.424 101.461 12.344C101.589 12.248 101.757 12.2 101.965 12.2H104.749C104.909 12.2 105.045 12.256 105.157 12.368C105.285 12.48 105.349 12.624 105.349 12.8V28.4C105.349 28.576 105.285 28.72 105.157 28.832C105.045 28.944 104.909 29 104.749 29H101.653C101.477 29 101.325 28.944 101.197 28.832C101.085 28.72 101.029 28.576 101.029 28.4V19.088L94.2133 28.544C94.1333 28.656 94.0293 28.76 93.9013 28.856C93.7893 28.952 93.6213 29 93.3973 29H90.6133ZM119.181 29C119.021 29 118.877 28.944 118.749 28.832C118.637 28.72 118.581 28.576 118.581 28.4V23.24H115.389C114.221 23.24 113.189 23.016 112.293 22.568C111.397 22.12 110.693 21.488 110.181 20.672C109.685 19.856 109.437 18.888 109.437 17.768C109.437 16.696 109.685 15.744 110.181 14.912C110.693 14.064 111.429 13.4 112.389 12.92C113.349 12.44 114.525 12.2 115.917 12.2H122.301C122.461 12.2 122.597 12.256 122.709 12.368C122.837 12.48 122.901 12.624 122.901 12.8V28.4C122.901 28.576 122.837 28.72 122.709 28.832C122.597 28.944 122.461 29 122.301 29H119.181ZM109.581 29C109.437 29 109.317 28.952 109.221 28.856C109.125 28.744 109.077 28.624 109.077 28.496C109.077 28.416 109.101 28.328 109.149 28.232L112.797 21.992L116.829 22.712L113.757 28.352C113.661 28.512 113.541 28.664 113.397 28.808C113.253 28.936 113.037 29 112.749 29H109.581ZM116.013 19.856H118.581V15.536H116.013C115.341 15.536 114.821 15.752 114.453 16.184C114.085 16.6 113.901 17.128 113.901 17.768C113.901 18.424 114.077 18.936 114.429 19.304C114.781 19.672 115.309 19.856 116.013 19.856Z" fill="white"/>
<path d="M16.5 12.75C16.5 14.2688 15.2688 15.5 13.75 15.5C12.2312 15.5 11 14.2688 11 12.75C11 11.2312 12.2312 10 13.75 10C15.2688 10 16.5 11.2312 16.5 12.75Z" stroke="white" stroke-width="2"/>
<path d="M14 28.0938L24.4463 10.0002" stroke="white" stroke-width="2" stroke-linecap="round"/>
<path d="M27 24.75C27 26.2688 25.7688 27.5 24.25 27.5C22.7312 27.5 21.5 26.2688 21.5 24.75C21.5 23.2312 22.7312 22 24.25 22C25.7688 22 27 23.2312 27 24.75Z" stroke="white" stroke-width="2"/>
</svg>
