<svg width="68" height="20" viewBox="0 0 68 20" fill="none" xmlns="http://www.w3.org/2000/svg">
<rect width="68" height="20" rx="5" fill="#A98467"/>
<path d="M17.5795 14C17.5155 14 17.4555 13.976 17.3995 13.928C17.3515 13.872 17.3275 13.812 17.3275 13.748C17.3275 13.708 17.3315 13.672 17.3395 13.64L20.1595 5.936C20.1835 5.848 20.2315 5.772 20.3035 5.708C20.3835 5.636 20.4915 5.6 20.6275 5.6H22.4035C22.5395 5.6 22.6435 5.636 22.7155 5.708C22.7955 5.772 22.8475 5.848 22.8715 5.936L25.6795 13.64C25.6955 13.672 25.7035 13.708 25.7035 13.748C25.7035 13.812 25.6755 13.872 25.6195 13.928C25.5715 13.976 25.5115 14 25.4395 14H23.9635C23.8435 14 23.7515 13.972 23.6875 13.916C23.6315 13.852 23.5955 13.796 23.5795 13.748L23.1115 12.524H19.9075L19.4515 13.748C19.4355 13.796 19.3995 13.852 19.3435 13.916C19.2875 13.972 19.1915 14 19.0555 14H17.5795ZM20.3995 10.796H22.6315L21.5035 7.628L20.3995 10.796ZM27.3093 14C27.2213 14 27.1493 13.972 27.0933 13.916C27.0373 13.86 27.0093 13.788 27.0093 13.7V5.9C27.0093 5.812 27.0373 5.74 27.0933 5.684C27.1493 5.628 27.2213 5.6 27.3093 5.6H28.8573C28.9453 5.6 29.0173 5.628 29.0733 5.684C29.1293 5.74 29.1573 5.812 29.1573 5.9V8.792H29.8893L31.6653 5.828C31.7053 5.764 31.7613 5.712 31.8333 5.672C31.9053 5.624 31.9973 5.6 32.1093 5.6H33.8373C33.9173 5.6 33.9813 5.628 34.0293 5.684C34.0773 5.732 34.1013 5.788 34.1013 5.852C34.1013 5.9 34.0853 5.948 34.0533 5.996L31.8213 9.644L34.2693 13.592C34.2933 13.624 34.3053 13.668 34.3053 13.724C34.3053 13.804 34.2773 13.872 34.2213 13.928C34.1733 13.976 34.1093 14 34.0293 14H32.2533C32.1253 14 32.0293 13.972 31.9653 13.916C31.9093 13.86 31.8653 13.812 31.8333 13.772L29.9733 10.712H29.1573V13.7C29.1573 13.788 29.1293 13.86 29.0733 13.916C29.0173 13.972 28.9453 14 28.8573 14H27.3093ZM42.0594 15.68C41.9714 15.68 41.8994 15.652 41.8434 15.596C41.7874 15.54 41.7594 15.468 41.7594 15.38V14H36.0834C35.9954 14 35.9234 13.972 35.8674 13.916C35.8114 13.852 35.7834 13.78 35.7834 13.7V5.9C35.7834 5.812 35.8114 5.74 35.8674 5.684C35.9234 5.628 35.9954 5.6 36.0834 5.6H37.6314C37.7194 5.6 37.7914 5.628 37.8474 5.684C37.9034 5.74 37.9314 5.812 37.9314 5.9V12.08H40.8954V5.9C40.8954 5.812 40.9234 5.74 40.9794 5.684C41.0354 5.628 41.1074 5.6 41.1954 5.6H42.7434C42.8314 5.6 42.9034 5.628 42.9594 5.684C43.0154 5.74 43.0434 5.812 43.0434 5.9V12.08H43.6074C43.6954 12.08 43.7674 12.112 43.8234 12.176C43.8874 12.232 43.9194 12.3 43.9194 12.38V15.38C43.9194 15.468 43.8874 15.54 43.8234 15.596C43.7674 15.652 43.6954 15.68 43.6074 15.68H42.0594ZM45.8066 14C45.7186 14 45.6466 13.972 45.5906 13.916C45.5346 13.852 45.5066 13.78 45.5066 13.7V5.9C45.5066 5.812 45.5346 5.74 45.5906 5.684C45.6546 5.628 45.7266 5.6 45.8066 5.6H47.3546C47.4426 5.6 47.5146 5.628 47.5706 5.684C47.6266 5.74 47.6546 5.812 47.6546 5.9V10.736L51.0746 5.828C51.1146 5.764 51.1666 5.712 51.2306 5.672C51.2946 5.624 51.3786 5.6 51.4826 5.6H52.8746C52.9546 5.6 53.0226 5.628 53.0786 5.684C53.1426 5.74 53.1746 5.812 53.1746 5.9V13.7C53.1746 13.788 53.1426 13.86 53.0786 13.916C53.0226 13.972 52.9546 14 52.8746 14H51.3266C51.2386 14 51.1626 13.972 51.0986 13.916C51.0426 13.86 51.0146 13.788 51.0146 13.7V9.044L47.6066 13.772C47.5666 13.828 47.5146 13.88 47.4506 13.928C47.3946 13.976 47.3106 14 47.1986 14H45.8066ZM60.0905 14C60.0105 14 59.9385 13.972 59.8745 13.916C59.8185 13.86 59.7905 13.788 59.7905 13.7V11.12H58.1945C57.6105 11.12 57.0945 11.008 56.6465 10.784C56.1985 10.56 55.8465 10.244 55.5905 9.836C55.3425 9.428 55.2185 8.944 55.2185 8.384C55.2185 7.848 55.3425 7.372 55.5905 6.956C55.8465 6.532 56.2145 6.2 56.6945 5.96C57.1745 5.72 57.7625 5.6 58.4585 5.6H61.6505C61.7305 5.6 61.7985 5.628 61.8545 5.684C61.9185 5.74 61.9505 5.812 61.9505 5.9V13.7C61.9505 13.788 61.9185 13.86 61.8545 13.916C61.7985 13.972 61.7305 14 61.6505 14H60.0905ZM55.2905 14C55.2185 14 55.1585 13.976 55.1105 13.928C55.0625 13.872 55.0385 13.812 55.0385 13.748C55.0385 13.708 55.0505 13.664 55.0745 13.616L56.8985 10.496L58.9145 10.856L57.3785 13.676C57.3305 13.756 57.2705 13.832 57.1985 13.904C57.1265 13.968 57.0185 14 56.8745 14H55.2905ZM58.5065 9.428H59.7905V7.268H58.5065C58.1705 7.268 57.9105 7.376 57.7265 7.592C57.5425 7.8 57.4505 8.064 57.4505 8.384C57.4505 8.712 57.5385 8.968 57.7145 9.152C57.8905 9.336 58.1545 9.428 58.5065 9.428Z" fill="white"/>
<path d="M8.24997 6.92306C8.24997 7.72101 7.62251 8.34612 6.87498 8.34612C6.12745 8.34612 5.49999 7.72101 5.49999 6.92306C5.49999 6.12512 6.12745 5.5 6.87498 5.5C7.62251 5.5 8.24997 6.12512 8.24997 6.92306Z" stroke="white"/>
<path d="M7 15.7915L12.2231 6.51285" stroke="white" stroke-linecap="round"/>
<path d="M13.5 13.0769C13.5 13.8748 12.8725 14.4999 12.125 14.4999C11.3774 14.4999 10.75 13.8748 10.75 13.0769C10.75 12.2789 11.3774 11.6538 12.125 11.6538C12.8725 11.6538 13.5 12.2789 13.5 13.0769Z" stroke="white"/>
</svg>
