<svg width="55" height="16" viewBox="0 0 55 16" fill="none" xmlns="http://www.w3.org/2000/svg">
<rect width="55" height="16" rx="5" fill="#A98467"/>
<path d="M13.3162 11C13.2629 11 13.2129 10.98 13.1662 10.94C13.1262 10.8933 13.1062 10.8433 13.1062 10.79C13.1062 10.7567 13.1095 10.7267 13.1162 10.7L15.4662 4.28C15.4862 4.20667 15.5262 4.14333 15.5862 4.09C15.6529 4.03 15.7429 4 15.8562 4H17.3362C17.4495 4 17.5362 4.03 17.5962 4.09C17.6629 4.14333 17.7062 4.20667 17.7262 4.28L20.0662 10.7C20.0795 10.7267 20.0862 10.7567 20.0862 10.79C20.0862 10.8433 20.0629 10.8933 20.0162 10.94C19.9762 10.98 19.9262 11 19.8662 11H18.6362C18.5362 11 18.4595 10.9767 18.4062 10.93C18.3595 10.8767 18.3295 10.83 18.3162 10.79L17.9262 9.77H15.2562L14.8762 10.79C14.8629 10.83 14.8329 10.8767 14.7862 10.93C14.7395 10.9767 14.6595 11 14.5462 11H13.3162ZM15.6662 8.33H17.5262L16.5862 5.69L15.6662 8.33ZM21.4244 11C21.3511 11 21.2911 10.9767 21.2444 10.93C21.1977 10.8833 21.1744 10.8233 21.1744 10.75V4.25C21.1744 4.17667 21.1977 4.11667 21.2444 4.07C21.2911 4.02333 21.3511 4 21.4244 4H22.7144C22.7877 4 22.8477 4.02333 22.8944 4.07C22.9411 4.11667 22.9644 4.17667 22.9644 4.25V6.66H23.5744L25.0544 4.19C25.0877 4.13667 25.1344 4.09333 25.1944 4.06C25.2544 4.02 25.3311 4 25.4244 4H26.8644C26.9311 4 26.9844 4.02333 27.0244 4.07C27.0644 4.11 27.0844 4.15667 27.0844 4.21C27.0844 4.25 27.0711 4.29 27.0444 4.33L25.1844 7.37L27.2244 10.66C27.2444 10.6867 27.2544 10.7233 27.2544 10.77C27.2544 10.8367 27.2311 10.8933 27.1844 10.94C27.1444 10.98 27.0911 11 27.0244 11H25.5444C25.4377 11 25.3577 10.9767 25.3044 10.93C25.2577 10.8833 25.2211 10.8433 25.1944 10.81L23.6444 8.26H22.9644V10.75C22.9644 10.8233 22.9411 10.8833 22.8944 10.93C22.8477 10.9767 22.7877 11 22.7144 11H21.4244ZM33.7161 12.4C33.6428 12.4 33.5828 12.3767 33.5361 12.33C33.4895 12.2833 33.4661 12.2233 33.4661 12.15V11H28.7361C28.6628 11 28.6028 10.9767 28.5561 10.93C28.5095 10.8767 28.4861 10.8167 28.4861 10.75V4.25C28.4861 4.17667 28.5095 4.11667 28.5561 4.07C28.6028 4.02333 28.6628 4 28.7361 4H30.0261C30.0995 4 30.1595 4.02333 30.2061 4.07C30.2528 4.11667 30.2761 4.17667 30.2761 4.25V9.4H32.7461V4.25C32.7461 4.17667 32.7695 4.11667 32.8161 4.07C32.8628 4.02333 32.9228 4 32.9961 4H34.2861C34.3595 4 34.4195 4.02333 34.4661 4.07C34.5128 4.11667 34.5361 4.17667 34.5361 4.25V9.4H35.0061C35.0795 9.4 35.1395 9.42667 35.1861 9.48C35.2395 9.52667 35.2661 9.58333 35.2661 9.65V12.15C35.2661 12.2233 35.2395 12.2833 35.1861 12.33C35.1395 12.3767 35.0795 12.4 35.0061 12.4H33.7161ZM36.8389 11C36.7655 11 36.7055 10.9767 36.6589 10.93C36.6122 10.8767 36.5889 10.8167 36.5889 10.75V4.25C36.5889 4.17667 36.6122 4.11667 36.6589 4.07C36.7122 4.02333 36.7722 4 36.8389 4H38.1289C38.2022 4 38.2622 4.02333 38.3089 4.07C38.3555 4.11667 38.3789 4.17667 38.3789 4.25V8.28L41.2289 4.19C41.2622 4.13667 41.3055 4.09333 41.3589 4.06C41.4122 4.02 41.4822 4 41.5689 4H42.7289C42.7955 4 42.8522 4.02333 42.8989 4.07C42.9522 4.11667 42.9789 4.17667 42.9789 4.25V10.75C42.9789 10.8233 42.9522 10.8833 42.8989 10.93C42.8522 10.9767 42.7955 11 42.7289 11H41.4389C41.3655 11 41.3022 10.9767 41.2489 10.93C41.2022 10.8833 41.1789 10.8233 41.1789 10.75V6.87L38.3389 10.81C38.3055 10.8567 38.2622 10.9 38.2089 10.94C38.1622 10.98 38.0922 11 37.9989 11H36.8389ZM48.7421 11C48.6754 11 48.6154 10.9767 48.5621 10.93C48.5154 10.8833 48.4921 10.8233 48.4921 10.75V8.6H47.1621C46.6754 8.6 46.2454 8.50667 45.8721 8.32C45.4987 8.13333 45.2054 7.87 44.9921 7.53C44.7854 7.19 44.6821 6.78667 44.6821 6.32C44.6821 5.87333 44.7854 5.47667 44.9921 5.13C45.2054 4.77667 45.5121 4.5 45.9121 4.3C46.3121 4.1 46.8021 4 47.3821 4H50.0421C50.1087 4 50.1654 4.02333 50.2121 4.07C50.2654 4.11667 50.2921 4.17667 50.2921 4.25V10.75C50.2921 10.8233 50.2654 10.8833 50.2121 10.93C50.1654 10.9767 50.1087 11 50.0421 11H48.7421ZM44.7421 11C44.6821 11 44.6321 10.98 44.5921 10.94C44.5521 10.8933 44.5321 10.8433 44.5321 10.79C44.5321 10.7567 44.5421 10.72 44.5621 10.68L46.0821 8.08L47.7621 8.38L46.4821 10.73C46.4421 10.7967 46.3921 10.86 46.3321 10.92C46.2721 10.9733 46.1821 11 46.0621 11H44.7421ZM47.4221 7.19H48.4921V5.39H47.4221C47.1421 5.39 46.9254 5.48 46.7721 5.66C46.6187 5.83333 46.5421 6.05333 46.5421 6.32C46.5421 6.59333 46.6154 6.80667 46.7621 6.96C46.9087 7.11333 47.1287 7.19 47.4221 7.19Z" fill="white"/>
<path d="M6.41665 4.53852C6.41665 5.13764 5.9627 5.57705 5.45832 5.57705C4.95393 5.57705 4.49999 5.13764 4.49999 4.53852C4.49999 3.9394 4.95393 3.5 5.45832 3.5C5.9627 3.5 6.41665 3.9394 6.41665 4.53852Z" stroke="white"/>
<path d="M5.55554 10.8335L9.61797 3.41021" stroke="white" stroke-linecap="round"/>
<path d="M10.5 9.46186C10.5 10.061 10.0461 10.5004 9.54169 10.5004C9.03731 10.5004 8.58336 10.061 8.58336 9.46186C8.58336 8.86274 9.03731 8.42334 9.54169 8.42334C10.0461 8.42334 10.5 8.86274 10.5 9.46186Z" stroke="white"/>
</svg>
