<svg width="254" height="254" viewBox="0 0 254 254" fill="none" xmlns="http://www.w3.org/2000/svg">
<path fill-rule="evenodd" clip-rule="evenodd" d="M137.731 208.362C138.241 185.907 138.894 145.706 137.805 119.67C147.863 117.567 154.634 115.967 163.709 108.508C168.646 104.45 170.77 99.4325 172.849 94.5239C175.128 89.1415 177.352 83.8892 183.167 80.1753C183.595 79.9022 184.021 79.634 184.443 79.3713C185.568 79.6784 186.754 79.8364 187.967 79.826C192.844 79.7816 197.211 77.0513 198.997 72.8694C203.595 71.8867 208.363 72.0712 213.746 73.8793C226.391 78.1263 231.87 87.7556 234.943 100.813C238.07 114.105 231.873 139.857 219.306 160.277C218.838 161.036 218.374 161.782 217.91 162.515C217.668 159.769 217.43 157.954 217.221 157.479C213.869 149.886 204.364 141.012 202.627 142.089C189.074 150.483 168.226 149.783 160.234 142.788C159.434 142.089 150.524 150.401 148.766 157.479C148.28 159.435 146.603 189.54 146.945 208.596C144.02 208.803 140.985 208.742 137.731 208.362ZM197.067 127.397V137.541C188.728 142.788 174.481 143.138 165.098 137.541V128.096C171.7 123.2 190.812 121.8 197.067 127.397Z" fill="#A98467"/>
<path fill-rule="evenodd" clip-rule="evenodd" d="M88.4348 50.7084C81.6729 50.817 74.8981 52.2131 71.6249 54.6409V67.9329C75.5046 70.3101 81.7697 71.5324 88.0594 71.6811C87.8125 72.7424 87.545 73.8243 87.2617 74.9284C87.0664 75.686 86.8481 76.4377 86.6076 77.1824C78.3005 76.618 70.7076 74.1866 66.7601 70.7313C51.98 76.7706 35.8473 90.3193 34.444 95.5659C33.9241 97.5098 33.4361 99.5958 32.9794 101.811C24.4061 97.7337 19.9094 89.9208 18.459 77.7267C16.0775 57.7026 35.2791 41.1416 44.1725 36.8014C55.6402 31.2048 70.9667 29.4405 81.7015 40.2994C85.0709 43.7079 87.2117 47.1358 88.4348 50.7084Z" fill="#A98467"/>
<path d="M71.6249 54.641C78.2271 49.744 99.0758 49.0444 105.331 54.641M71.6249 54.641V67.933C79.617 72.83 97.732 72.8261 105.331 68.6326V54.641M71.6249 54.641C81.0069 59.1883 97.8304 59.7365 105.331 54.641M30.3947 118.302C31.4285 109.552 32.7708 101.822 34.4439 95.566C35.8474 90.3193 51.9801 76.7707 66.76 70.7313C74.7522 77.7271 97.686 80.5253 111.238 72.1305C123.777 80.0649 128.758 85.2679 134.867 95.566C140.976 105.865 137.3 224.988 137.3 224.988C117.84 238.979 51.8179 240.029 29.5792 223.938C28.8078 213.669 28.2601 202.918 27.9571 192.108M30.3947 118.302C43.416 123.07 57.5993 124.058 90.7359 123.899V198.404C85.2844 201.024 77.1817 202.086 68.4972 201.972M30.3947 118.302C28.5879 133.597 27.7233 152.01 27.682 171.121M27.9571 192.108C27.7606 185.098 27.667 178.063 27.682 171.121M27.9571 192.108C35.2609 197.734 52.8263 201.768 68.4972 201.972M68.4972 201.972C66.3884 192.132 65.1858 179.165 65.0224 176.717C64.8589 174.269 74.7519 178.816 78.2268 161.327C78.4994 159.954 67.238 160.959 66.4123 160.627C64.6749 159.927 66.4123 153.981 65.0224 153.281C63.6324 152.582 49.9953 153.281 49.9953 153.281M27.682 171.121C33.7404 169.086 36.2457 166.583 39.3084 159.927M111.238 86.472C113.736 87.6936 114.837 89.0112 116.798 91.3687M111.238 95.566C113.179 98.3537 114.445 99.2411 116.798 100.463M126.875 202.952C127.46 204.645 127.575 205.873 126.875 209.248M118.882 218.692C121.525 218.92 122.789 218.06 125.137 216.943M37.2236 210.996C36.8253 212.704 36.8551 213.944 37.2236 216.943M39.3084 159.927C39.3084 159.927 41.6182 163.988 44.1732 164.825C46.0353 165.434 49.1192 157.481 49.9953 153.281M39.3084 159.927C39.3084 159.927 36.7929 156.863 38.6135 155.031C39.6559 153.981 47.9955 148.887 50.0805 150.833C50.3249 151.061 50.2637 151.995 49.9953 153.281M56.3352 161.327V163.425M165.098 128.096C171.7 123.2 190.812 121.8 197.067 127.397M165.098 128.096V137.541C174.48 143.138 188.727 142.788 197.067 137.541V127.397M165.098 128.096C174.48 132.644 189.566 132.493 197.067 127.397M160.233 152.232C158.936 153.612 158.275 154.424 157.454 156.08M162.318 160.627L160.233 162.726M209.228 212.396C210.183 215.533 210.398 216.766 210.618 218.692M199.499 220.79C201.769 221.147 202.867 221.285 204.711 221.49M156.758 45.1966C158.667 48.0653 158.752 49.6734 156.758 52.5421M160.233 142.788C168.226 149.783 189.074 150.483 202.626 142.089C204.364 141.012 213.869 149.886 217.221 157.479C218.611 160.627 221.195 222.539 218.611 224.988C212.704 230.584 164.403 237.231 148.766 223.938C144.937 220.684 148.072 160.277 148.766 157.479C150.524 150.401 159.434 142.089 160.233 142.788ZM151.546 32.2546C142.525 32.1591 134.867 39.2633 134.867 48.3448C134.867 57.4264 142.525 64.5306 151.546 64.4352C160.47 64.3407 167.878 57.3284 167.878 48.3448C167.878 39.3613 160.47 32.349 151.546 32.2546ZM185.599 18.2628C180.325 18.066 175.87 22.3937 175.87 27.7071C175.87 32.8274 179.822 36.9617 184.905 37.1514C190.179 37.3482 194.634 33.0205 194.635 27.7071C194.635 22.5868 190.683 18.4524 185.599 18.2628ZM187.967 57.4391C181.458 57.3799 175.667 62.4329 175.87 68.9822C176.067 75.3466 181.642 79.8831 187.967 79.826C194.229 79.7688 199.651 75.2832 199.846 68.9822C200.048 62.4945 194.415 57.4978 187.967 57.4391ZM205.407 173.483V198.781C205.407 199.169 205.12 199.501 204.737 199.564C187.537 202.371 177.694 202.226 160.861 198.542C160.497 198.463 160.233 198.139 160.233 197.767V174.484C160.233 174 160.666 173.631 161.145 173.697C178.084 176.05 187.899 175.866 204.455 172.703C204.945 172.61 205.407 172.984 205.407 173.483Z" stroke="#6C584C" stroke-width="5" stroke-linecap="round"/>
</svg>
