<svg width="254" height="254" viewBox="0 0 254 254" fill="none" xmlns="http://www.w3.org/2000/svg">
<path fill-rule="evenodd" clip-rule="evenodd" d="M141.964 53.4278C136.391 58.0806 130.812 62.738 120.883 65.9937C112.59 68.7125 103.651 69.3243 95.2405 69.8998C87.8475 70.4058 80.8633 70.8837 75.0883 72.7404C62.744 76.709 50.3783 85.2408 47.6118 99.3299C44.9165 113.057 49.8333 122.978 59.9564 132.667C61.1502 133.809 62.4083 134.834 63.7213 135.751L98.6489 102.391L103.428 105.566L108.206 108.741L75.4858 140.97C95.104 145.809 119.608 136.55 130.439 129.492C136.637 125.453 140.346 120.82 143.816 116.484C148.19 111.021 152.185 106.03 160.305 103.299C164.888 101.757 170.05 101.556 175.185 101.356C182.551 101.07 189.864 100.786 195.347 96.5518C204.695 89.3366 208.09 79.8838 208.09 71.9466C208.09 64.0094 205.701 54.8331 195.347 47.3412C184.995 39.8491 171.057 36.6259 156.721 43.3726C150.502 46.2996 146.234 49.8623 141.964 53.4278ZM172.757 112.808C172.31 112.816 171.877 112.824 171.455 112.824C167.075 112.824 155.527 114.808 149.155 119.967C145.28 123.104 143.62 127.371 141.836 131.958C141.041 133.998 140.223 136.101 139.175 138.196C139.745 138.266 140.306 138.368 140.86 138.506C145.94 133.177 151.199 133.036 151.696 136.522C151.94 138.228 151.043 140.803 148.426 144.062C152.644 147.865 156.389 159.54 155.593 171.842C155.181 178.221 153.305 172.972 151.465 167.819C149.757 163.035 148.078 158.336 147.629 163.112C147.163 168.071 147.395 171.743 147.629 175.414C147.782 177.828 147.936 180.242 147.89 183.02C148.993 182.812 150.082 182.559 151.146 182.274C160.311 179.815 169.787 173.842 175.709 170.108C176.478 169.624 177.186 169.177 177.826 168.781C178.08 168.623 178.343 168.462 178.614 168.295L178.617 168.293C184.3 164.798 193.575 159.091 198.135 147.35C202.914 135.048 198.135 125.571 189.773 118.776C182.216 112.636 176.936 112.732 172.757 112.808ZM144.178 183.548C143.578 181.223 142.982 178.957 142.452 177.795C141.803 176.373 140.859 179.244 139.81 183.667C141.255 183.729 142.719 183.683 144.178 183.548Z" fill="#A98467"/>
<path d="M40.1124 166.287L44.8909 163.112M50.4658 155.968L54.0498 152.793M103.428 105.566L108.206 108.741L40.1124 175.811L31.75 166.287L98.6488 102.391L103.428 105.566ZM103.428 105.566C118.509 86.7179 144.242 83.6477 165.223 79.4535M165.223 79.4535C165.528 83.3913 167.026 86.3465 171.92 88.5015C189.043 96.0421 201.774 83.4255 213.731 92.0734C220.713 97.1224 222.891 101.201 222.094 108.741C220.863 120.394 206.564 130.966 198.599 134.141C183.049 140.34 171.209 128.981 151.696 136.522M165.223 79.4535C165.02 76.8361 165.344 73.7845 165.548 70.2457C166.179 59.3476 174.966 52.2678 179.884 50.0058C185.06 47.6246 191.519 45.6335 196.21 50.0058C200.844 54.3239 198.26 61.2867 196.21 64.6897C190.97 73.3949 179.141 76.6714 165.223 79.4535ZM151.696 136.522C151.94 138.228 151.042 140.802 148.426 144.062M151.696 136.522C151.199 133.036 145.94 133.177 140.86 138.506M148.426 144.062C156.389 134.141 148.426 130.569 140.86 138.506M148.426 144.062C152.644 147.864 156.389 159.54 155.593 171.842C155.181 178.221 153.305 172.971 151.465 167.819C149.757 163.035 148.078 158.336 147.629 163.112C147.163 168.071 147.395 171.743 147.629 175.414C147.862 179.086 148.095 182.757 147.629 187.717C146.994 194.473 145.637 189.21 144.282 183.949C143.647 181.487 143.012 179.024 142.452 177.795C141.426 175.544 139.658 184.042 137.913 192.429C136.274 200.308 134.656 208.088 133.691 206.766C130.866 202.895 130.885 197.647 130.901 192.791C130.903 192.419 130.904 192.051 130.904 191.685C130.904 189.813 127.633 195.025 123.88 201.004C119.679 207.697 114.875 215.349 113.383 215.101C111.269 214.748 113.332 205.845 114.747 199.733C115.465 196.632 116.017 194.249 115.772 194.066C114.256 192.933 111.654 195.759 108.96 198.687C105.995 201.909 102.916 205.254 101.039 203.591C99.8442 202.533 102.631 185.733 114.578 173.43C116.567 171.382 114.121 172.425 110.838 173.827C107.329 175.326 102.864 177.233 101.835 176.208C99.8442 174.223 111.79 162.318 121.745 158.746C125.742 157.312 118.958 154.777 104.623 158.746C101.459 159.621 124.931 134.537 140.86 138.506M148.426 144.062C145.368 143.646 143.561 143.048 142.452 141.993M140.86 138.506C141.137 140.044 141.577 141.16 142.452 141.993M142.452 141.993C132.123 151.998 123.338 167.477 123.338 185.733M169.132 160.333C170.344 165.229 170.428 168.08 169.132 173.43M175.504 153.983C178.253 157.238 179.374 159.353 179.087 164.699" stroke="#6C584C" stroke-width="5" stroke-linecap="round"/>
</svg>
