<svg width="22" height="22" viewBox="0 0 22 22" fill="none" xmlns="http://www.w3.org/2000/svg">
<path d="M11 6.41675H18.3333" stroke="#A98467" stroke-linecap="round"/>
<path d="M3.66675 6.41675H7.33342" stroke="#A98467" stroke-linecap="round"/>
<path d="M15.5833 15.5833H18.3333" stroke="#A98467" stroke-linecap="round"/>
<path d="M3.66675 15.5833H11.0001" stroke="#A98467" stroke-linecap="round"/>
<path d="M7.00008 7.83333C7.00008 8.84586 7.82089 9.66667 8.83341 9.66667C9.84594 9.66667 10.6667 8.84586 10.6667 7.83333C10.6667 6.82081 9.84594 6 8.83341 6C7.82089 6 7.00008 6.82081 7.00008 7.83333Z" stroke="#A98467" stroke-linecap="round"/>
<path d="M11.9166 15.5833C11.9166 16.5959 12.7374 17.4167 13.7499 17.4167C14.7624 17.4167 15.5833 16.5959 15.5833 15.5833C15.5833 14.5708 14.7624 13.75 13.7499 13.75C12.7374 13.75 11.9166 14.5708 11.9166 15.5833Z" stroke="#A98467" stroke-linecap="round"/>
</svg>
