<svg width="22" height="22" viewBox="0 0 22 22" fill="none" xmlns="http://www.w3.org/2000/svg">
<path d="M11 7H18" stroke="#A98467" stroke-linecap="round"/>
<path d="M3 7H7" stroke="#A98467" stroke-linecap="round"/>
<path d="M15 15H18" stroke="#A98467" stroke-linecap="round"/>
<path d="M3 15L11 15" stroke="#A98467" stroke-linecap="round"/>
<path d="M7 7C7 8.10457 7.89543 9 9 9C10.1046 9 11 8.10457 11 7C11 5.89543 10.1046 5 9 5C7.89543 5 7 5.89543 7 7Z" stroke="#A98467" stroke-linecap="round"/>
<path d="M11 15C11 16.1046 11.8954 17 13 17C14.1046 17 15 16.1046 15 15C15 13.8954 14.1046 13 13 13C11.8954 13 11 13.8954 11 15Z" stroke="#A98467" stroke-linecap="round"/>
</svg>
