<svg width="35" height="35" viewBox="0 0 35 35" fill="none" xmlns="http://www.w3.org/2000/svg">
<path d="M17.5 10.2083H29.1667" stroke="#A98467" stroke-width="2" stroke-linecap="round"/>
<path d="M5.83337 10.2083H11.6667" stroke="#A98467" stroke-width="2" stroke-linecap="round"/>
<path d="M24.7916 24.7917H29.1666" stroke="#A98467" stroke-width="2" stroke-linecap="round"/>
<path d="M5.83337 24.7917H17.5" stroke="#A98467" stroke-width="2" stroke-linecap="round"/>
<path d="M11.6667 10.2084C11.6667 11.8192 12.9725 13.1251 14.5833 13.1251C16.1942 13.1251 17.5 11.8192 17.5 10.2084C17.5 8.59758 16.1942 7.29175 14.5833 7.29175C12.9725 7.29175 11.6667 8.59758 11.6667 10.2084Z" stroke="#A98467" stroke-width="2" stroke-linecap="round"/>
<path d="M18.9583 24.7917C18.9583 26.4025 20.2641 27.7083 21.875 27.7083C23.4858 27.7083 24.7916 26.4025 24.7916 24.7917C24.7916 23.1808 23.4858 21.875 21.875 21.875C20.2641 21.875 18.9583 23.1808 18.9583 24.7917Z" stroke="#A98467" stroke-width="2" stroke-linecap="round"/>
</svg>
