<svg width="35" height="35" viewBox="0 0 35 35" fill="none" xmlns="http://www.w3.org/2000/svg">
<path d="M7.29169 18.6081C7.29169 16.628 7.29169 15.6379 7.69194 14.7677C8.0922 13.8974 8.84389 13.2531 10.3473 11.9645L11.8056 10.7145C14.5229 8.38529 15.8816 7.2207 17.5 7.2207C19.1184 7.2207 20.4771 8.38529 23.1944 10.7145L24.6528 11.9645C26.1562 13.2531 26.9078 13.8974 27.3081 14.7677C27.7084 15.6379 27.7084 16.628 27.7084 18.6081V24.7921C27.7084 27.542 27.7084 28.9169 26.8541 29.7712C25.9998 30.6255 24.6249 30.6255 21.875 30.6255H13.125C10.3752 30.6255 9.00023 30.6255 8.14596 29.7712C7.29169 28.9169 7.29169 27.542 7.29169 24.7921V18.6081Z" stroke="#222222" stroke-width="2"/>
<path d="M21.1459 30.6261V22.876C21.1459 22.3237 20.6981 21.876 20.1459 21.876H14.8542C14.3019 21.876 13.8542 22.3237 13.8542 22.876V30.6261" stroke="#222222" stroke-width="2" stroke-linecap="round" stroke-linejoin="round"/>
</svg>
