<svg width="35" height="35" viewBox="0 0 35 35" fill="none" xmlns="http://www.w3.org/2000/svg">
<path d="M9.67963 7.43149L10.404 6.70711C10.7945 6.31658 11.4277 6.31658 11.8182 6.70711L15.5151 10.404C15.9056 10.7945 15.9056 11.4277 15.5151 11.8182L14.0139 13.3194C13.8065 13.5268 13.7551 13.8436 13.8863 14.1059C15.4026 17.1385 17.8615 19.5974 20.8941 21.1137C21.1564 21.2449 21.4732 21.1935 21.6806 20.9861L23.1818 19.4849C23.5723 19.0944 24.2055 19.0944 24.596 19.4849L28.2929 23.1818C28.6834 23.5723 28.6834 24.2055 28.2929 24.596L27.5685 25.3204C25.4572 27.4317 22.1146 27.6693 19.7259 25.8777L16.2952 23.3048C14.5517 21.9971 13.0029 20.4483 11.6952 18.7048L9.12226 15.2741C7.33072 12.8854 7.56827 9.54284 9.67963 7.43149Z" stroke="#222222" stroke-width="2"/>
</svg>
