<svg width="34" height="34" viewBox="0 0 34 34" fill="none" xmlns="http://www.w3.org/2000/svg">
<path d="M0 16.3199C0 8.62659 0 4.77999 2.39001 2.38999C4.78002 0 8.62665 0 16.32 0H17.68C25.3733 0 29.22 0 31.61 2.38999C34 4.77999 34 8.62659 34 16.3199V17.6799C34 25.3732 34 29.2198 31.61 31.6098C29.22 33.9998 25.3733 33.9998 17.68 33.9998H16.32C8.62665 33.9998 4.78002 33.9998 2.39001 31.6098C0 29.2198 0 25.3732 0 17.6799V16.3199Z" fill="#2AABEE"/>
<path fill-rule="evenodd" clip-rule="evenodd" d="M8.23741 15.8879C13.0692 13.6299 16.2912 12.1413 17.9033 11.4221C22.5063 9.36862 23.4627 9.0119 24.0861 9.00013C24.2232 8.99753 24.5298 9.03398 24.7284 9.20681C24.8961 9.35275 24.9422 9.54989 24.9643 9.68826C24.9864 9.82662 25.0139 10.1418 24.992 10.3881C24.7426 13.1992 23.6633 20.0209 23.1142 23.1693C22.8818 24.5016 22.4244 24.9483 21.9815 24.992C21.0189 25.087 20.288 24.3097 19.3558 23.6542C17.897 22.6286 17.0729 21.9901 15.6569 20.9893C14.0205 19.8326 15.0813 19.1969 16.0139 18.1579C16.258 17.886 20.4988 13.7486 20.5809 13.3733C20.5912 13.3264 20.6007 13.1514 20.5038 13.059C20.4069 12.9666 20.2639 12.9982 20.1606 13.0233C20.0143 13.059 17.6839 14.7111 13.1694 17.9797C12.5079 18.4669 11.9087 18.7043 11.3719 18.6919C10.7801 18.6781 9.64175 18.333 8.79548 18.0379C7.75749 17.676 6.93252 17.4847 7.00436 16.87C7.04178 16.5499 7.45279 16.2225 8.23741 15.8879Z" fill="white"/>
</svg>
