<svg width="34" height="34" viewBox="0 0 34 34" fill="none" xmlns="http://www.w3.org/2000/svg">
<g clip-path="url(#clip0_371_122)">
<path d="M0 16.32C0 8.62665 0 4.78002 2.39001 2.39001C4.78002 0 8.62665 0 16.32 0H17.68C25.3733 0 29.22 0 31.61 2.39001C34 4.78002 34 8.62665 34 16.32V17.68C34 25.3733 34 29.22 31.61 31.61C29.22 34 25.3733 34 17.68 34H16.32C8.62665 34 4.78002 34 2.39001 31.61C0 29.22 0 25.3733 0 17.68V16.32Z" fill="#0077FF"/>
<path d="M18.0908 24.4943C10.3416 24.4943 5.92172 19.1818 5.73755 10.3418H9.61922C9.74672 16.8301 12.6083 19.5785 14.875 20.1451V10.3418H18.5301V15.9376C20.7685 15.6968 23.1198 13.1468 23.9132 10.3418H27.5682C26.9591 13.7985 24.4091 16.3485 22.5957 17.3968C24.4091 18.2468 27.3134 20.471 28.4184 24.4943H24.3949C23.5307 21.8026 21.3776 19.7201 18.5301 19.4368V24.4943H18.0908Z" fill="white"/>
</g>
<defs>
<clipPath id="clip0_371_122">
<rect width="34" height="34" fill="white"/>
</clipPath>
</defs>
</svg>
