<svg width="60" height="60" viewBox="0 0 60 60" fill="none" xmlns="http://www.w3.org/2000/svg">
<path d="M0 28.8C0 15.2235 0 8.43533 4.21766 4.21766C8.43533 0 15.2235 0 28.8 0H31.2C44.7765 0 51.5646 0 55.7824 4.21766C60 8.43533 60 15.2235 60 28.8V31.2C60 44.7765 60 51.5646 55.7824 55.7824C51.5646 60 44.7765 60 31.2 60H28.8C15.2235 60 8.43533 60 4.21766 55.7824C0 51.5646 0 44.7765 0 31.2V28.8Z" fill="#2AABEE"/>
<path fill-rule="evenodd" clip-rule="evenodd" d="M14.5366 28.0383C23.0634 24.0536 28.7492 21.4267 31.5941 20.1575C39.717 16.5337 41.4048 15.9042 42.5049 15.8834C42.7469 15.8788 43.2879 15.9431 43.6384 16.2481C43.9343 16.5057 44.0157 16.8536 44.0546 17.0978C44.0936 17.3419 44.1421 17.8982 44.1035 18.3328C43.6634 23.2935 41.7587 35.3319 40.7897 40.8881C40.3797 43.2391 39.5724 44.0273 38.7908 44.1045C37.0923 44.2721 35.8025 42.9005 34.1573 41.7438C31.583 39.9338 30.1287 38.8071 27.6299 37.0408C24.742 34.9997 26.6141 33.8778 28.2599 32.0443C28.6906 31.5645 36.1745 24.2632 36.3193 23.6008C36.3374 23.518 36.3542 23.2092 36.1832 23.0462C36.0122 22.8831 35.7598 22.9389 35.5776 22.9832C35.3194 23.0461 31.2069 25.9616 23.2401 31.7298C22.0728 32.5896 21.0155 33.0085 20.0681 32.9866C19.0238 32.9624 17.0149 32.3532 15.5215 31.8325C13.6897 31.1939 12.2339 30.8562 12.3607 29.7716C12.4267 29.2066 13.152 28.6289 14.5366 28.0383Z" fill="white"/>
</svg>
