<svg width="60" height="60" viewBox="0 0 60 60" fill="none" xmlns="http://www.w3.org/2000/svg">
<g clip-path="url(#clip0_432_146)">
<path d="M0 28.8C0 15.2235 0 8.43533 4.21766 4.21766C8.43533 0 15.2235 0 28.8 0H31.2C44.7765 0 51.5646 0 55.7824 4.21766C60 8.43533 60 15.2235 60 28.8V31.2C60 44.7765 60 51.5646 55.7824 55.7824C51.5646 60 44.7765 60 31.2 60H28.8C15.2235 60 8.43533 60 4.21766 55.7824C0 51.5646 0 44.7765 0 31.2V28.8Z" fill="#0077FF"/>
<path d="M31.925 43.2251C18.25 43.2251 10.4501 33.8501 10.1251 18.2501H16.9751C17.2001 29.7001 22.25 34.5501 26.25 35.5501V18.2501H32.7002V28.1251C36.6502 27.7001 40.7997 23.2001 42.1997 18.2501H48.6499C47.5749 24.3501 43.0749 28.8501 39.8749 30.7001C43.0749 32.2001 48.2001 36.1251 50.1501 43.2251H43.0499C41.5249 38.4751 37.7252 34.8001 32.7002 34.3001V43.2251H31.925Z" fill="white"/>
</g>
<defs>
<clipPath id="clip0_432_146">
<rect width="60" height="60" fill="white"/>
</clipPath>
</defs>
</svg>
