<svg width="30" height="30" viewBox="0 0 30 30" fill="none" xmlns="http://www.w3.org/2000/svg">
<path d="M0 8C0 5.19974 0 3.79961 0.544967 2.73005C1.02433 1.78924 1.78924 1.02433 2.73005 0.544967C3.79961 0 5.19974 0 8 0H22C24.8003 0 26.2004 0 27.27 0.544967C28.2108 1.02433 28.9757 1.78924 29.455 2.73005C30 3.79961 30 5.19974 30 8V22C30 24.8003 30 26.2004 29.455 27.27C28.9757 28.2108 28.2108 28.9757 27.27 29.455C26.2004 30 24.8003 30 22 30H8C5.19974 30 3.79961 30 2.73005 29.455C1.78924 28.9757 1.02433 28.2108 0.544967 27.27C0 26.2004 0 24.8003 0 22V8Z" fill="#F0EAD2"/>
<path d="M14.3978 24C14.1747 24 13.9851 23.9326 13.829 23.7978C13.6952 23.6404 13.6283 23.4494 13.6283 23.2247V16.2135H6.76952C6.54647 16.2135 6.35688 16.1461 6.20074 16.0112C6.06691 15.8539 6 15.6629 6 15.4382V14.3596C6 14.1348 6.06691 13.9551 6.20074 13.8202C6.35688 13.6629 6.54647 13.5843 6.76952 13.5843H13.6283V6.77528C13.6283 6.55056 13.6952 6.37079 13.829 6.23596C13.9851 6.07865 14.1747 6 14.3978 6H15.5688C15.7918 6 15.9703 6.07865 16.1041 6.23596C16.2602 6.37079 16.3383 6.55056 16.3383 6.77528V13.5843H23.2305C23.4535 13.5843 23.632 13.6629 23.7658 13.8202C23.9219 13.9551 24 14.1348 24 14.3596V15.4382C24 15.6629 23.9219 15.8539 23.7658 16.0112C23.632 16.1461 23.4535 16.2135 23.2305 16.2135H16.3383V23.2247C16.3383 23.4494 16.2602 23.6404 16.1041 23.7978C15.9703 23.9326 15.7918 24 15.5688 24H14.3978Z" fill="black"/>
</svg>
