<svg width="30" height="30" viewBox="0 0 30 30" fill="none" xmlns="http://www.w3.org/2000/svg">
<path d="M0 8C0 5.19974 0 3.79961 0.544967 2.73005C1.02433 1.78924 1.78924 1.02433 2.73005 0.544967C3.79961 0 5.19974 0 8 0H22C24.8003 0 26.2004 0 27.27 0.544967C28.2108 1.02433 28.9757 1.78924 29.455 2.73005C30 3.79961 30 5.19974 30 8V22C30 24.8003 30 26.2004 29.455 27.27C28.9757 28.2108 28.2108 28.9757 27.27 29.455C26.2004 30 24.8003 30 22 30H8C5.19974 30 3.79961 30 2.73005 29.455C1.78924 28.9757 1.02433 28.2108 0.544967 27.27C0 26.2004 0 24.8003 0 22V8Z" fill="#F0EAD2"/>
<path d="M9.79769 16C9.56647 16 9.36994 15.9524 9.20809 15.8571C9.06936 15.746 9 15.6111 9 15.4524V14.5476C9 14.3889 9.06936 14.2619 9.20809 14.1667C9.36994 14.0556 9.56647 14 9.79769 14H20.2023C20.4335 14 20.6185 14.0556 20.7572 14.1667C20.9191 14.2619 21 14.3889 21 14.5476V15.4524C21 15.6111 20.9191 15.746 20.7572 15.8571C20.6185 15.9524 20.4335 16 20.2023 16H9.79769Z" fill="#6C584C"/>
</svg>
