<svg width="197" height="71" viewBox="0 0 197 71" fill="none" xmlns="http://www.w3.org/2000/svg">
<path fill-rule="evenodd" clip-rule="evenodd" d="M29.4629 0.318016C29.3382 0.206689 29.1827 0.166878 28.9961 0.198822C29.5152 0.0242025 30.0598 -0.0353947 30.6298 0.0200307C30.2445 0.142324 29.8555 0.241732 29.4629 0.318016Z" fill="#ADC178"/>
<path fill-rule="evenodd" clip-rule="evenodd" d="M28.9983 0.199145C29.1849 0.167201 29.3404 0.207012 29.465 0.318339C27.9481 0.834212 26.5088 1.50969 25.1473 2.34464C25.1224 2.14869 25.1613 1.9699 25.264 1.80827C24.9128 1.552 24.5822 1.57179 24.2721 1.86787C24.1679 1.79861 24.0512 1.7588 23.922 1.74867C23.3439 2.01853 22.741 2.17753 22.1133 2.22545C24.3061 1.24114 26.601 0.565667 28.9983 0.199145Z" fill="#ADC178"/>
<path fill-rule="evenodd" clip-rule="evenodd" d="M25.1451 2.34417C20.465 5.72071 17.3337 10.2501 15.7512 15.9323C15.5497 16.9686 15.3358 18.0017 15.1094 19.0314C14.9124 19.1531 14.7569 19.3121 14.6426 19.5081C12.415 20.9964 10.9564 23.0624 10.2666 25.7063C9.03031 27.7158 7.33823 29.1461 5.19035 29.9972C5.83206 33.372 7.42681 36.1731 9.97483 38.4004C10.7439 39.0081 11.5996 39.4253 12.5421 39.652C12.9973 39.9341 13.503 40.0533 14.0591 40.0096C15.4612 39.86 16.8616 39.86 18.2602 40.0096C19.9718 40.1985 21.4305 40.9137 22.6362 42.1551C23.2492 43.1393 23.6187 44.212 23.7448 45.3733C22.3904 45.4296 21.1846 45.8866 20.1273 46.7441C18.7128 48.0287 17.5654 49.5187 16.6848 51.2138C15.9581 52.738 15.1996 54.2478 14.4092 55.7432C13.5235 56.6931 12.4344 57.309 11.1418 57.5907C10.7135 57.6561 10.2856 57.7156 9.85814 57.7695C8.96344 57.7695 8.06886 57.7695 7.17416 57.7695C7.17416 57.6106 7.17416 57.4516 7.17416 57.2927C7.05747 57.2927 6.94077 57.2927 6.82408 57.2927C1.68636 49.9729 -0.550321 41.7883 0.114138 32.7387C1.53349 19.8748 7.69894 10.2398 18.6102 3.8341C19.7382 3.1982 20.9052 2.66182 22.1111 2.22498C22.7388 2.17706 23.3417 2.01805 23.9198 1.7482C24.049 1.75833 24.1657 1.79814 24.2699 1.86739C24.58 1.57131 24.9106 1.55153 25.2618 1.8078C25.1591 1.96942 25.1202 2.14821 25.1451 2.34417Z" fill="#ADC178"/>
<path fill-rule="evenodd" clip-rule="evenodd" d="M15.4581 55.9812C16.4161 53.0751 17.9331 50.5124 20.0092 48.2932C21.1664 47.2054 22.5279 46.6094 24.0935 46.5053C24.9081 48.6954 26.2695 50.404 28.1779 51.6306C26.7727 50.2743 25.742 48.6652 25.0854 46.8032C24.7742 45.4518 24.463 44.1009 24.1519 42.7506C23.5879 41.3799 22.6349 40.4064 21.2929 39.8304C18.941 38.8258 16.5099 38.5675 13.9995 39.0556C12.0685 38.8244 10.4348 37.99 9.09829 36.5525C8.27302 35.6223 7.59234 34.5894 7.05613 33.4535C7.96541 32.5844 8.86011 31.6905 9.74011 30.7716C8.65975 30.54 7.57064 30.3414 6.47266 30.1756C8.6587 28.9758 10.3897 27.2872 11.6656 25.1099C11.8878 23.8222 12.3934 22.67 13.1826 21.6532C13.6926 21.1524 14.1788 20.6358 14.6413 20.1037C16.1805 18.7609 17.9309 17.7875 19.8925 17.1835C22.689 17.3341 24.9257 16.2812 26.6025 14.0248C28.2192 11.4355 29.2499 8.61458 29.6949 5.56201C30.1586 5.69563 30.5864 5.91411 30.9785 6.21758C33.68 8.85463 35.7611 11.9339 37.2217 15.4551C37.89 17.1851 38.5123 18.9332 39.0888 20.6997C40.0234 22.6901 41.1904 24.5178 42.5896 26.1826C42.9926 27.2442 43.4594 28.2772 43.99 29.2817C44.0678 29.4406 44.0678 29.5996 43.99 29.7585C42.5852 32.1117 41.3988 34.5751 40.4308 37.1485C36.0665 35.5623 32.3907 36.5556 29.4032 40.1284C27.2847 43.4112 27.3235 46.6691 29.5198 49.9023C30.0692 50.4835 30.6332 51.0398 31.2119 51.571C27.7198 54.6503 25.4833 58.5042 24.502 63.1329C24.0847 65.8268 24.3376 68.449 25.2605 70.9997C19.0987 69.0826 13.8084 65.7053 9.39002 60.8682C12.0963 60.1308 14.119 58.5018 15.4581 55.9812Z" fill="#2F3447"/>
<path fill-rule="evenodd" clip-rule="evenodd" d="M51.8672 5.92045C54.295 5.61781 56.6289 5.9754 58.8689 6.9932C57.7305 6.62298 56.5636 6.32499 55.368 6.09924C54.2041 5.97361 53.0372 5.91401 51.8672 5.92045Z" fill="#ADC178"/>
<path fill-rule="evenodd" clip-rule="evenodd" d="M51.7522 5.92039C51.7911 5.92039 51.83 5.92039 51.8689 5.92039C53.0389 5.91396 54.2058 5.97355 55.3697 6.09918C56.5653 6.32494 57.7322 6.62292 58.8706 6.99314C62.3396 8.51025 64.7902 11.053 66.2223 14.6216C66.2647 14.9867 66.3425 15.3443 66.4557 15.6943C66.3084 15.99 66.3278 16.2682 66.5141 16.5287C66.5919 16.2108 66.6696 16.2108 66.7475 16.5287C66.9502 17.4586 67.0085 18.3924 66.9225 19.3297C66.9408 19.6486 67.0575 19.9068 67.2726 20.1045C67.9194 21.2841 68.4641 22.5157 68.9063 23.7995C69.2782 25.0815 69.57 26.3926 69.7815 27.7329C69.8598 27.8226 69.957 27.8624 70.0733 27.8521C71.5939 34.5808 71.2438 41.216 69.023 47.7576C68.7399 48.083 68.5844 48.4803 68.5562 48.9495C65.7396 56.1777 60.9941 61.6806 54.3195 65.4579C53.5612 65.8549 52.7832 66.1925 51.9856 66.4711C52.1777 63.9922 52.3334 61.5089 52.4524 59.0214C52.3956 57.093 52.3178 55.1661 52.219 53.2405C52.1728 52.8851 52.2506 52.5672 52.4524 52.287C52.9886 52.1493 53.5332 52.05 54.0861 51.989C53.9454 51.8676 53.9842 51.808 54.2028 51.8102C54.8119 51.8979 55.4148 51.8581 56.0116 51.691C56.4727 51.8158 56.9395 51.8158 57.4119 51.691C57.6209 51.9309 57.7766 51.9309 57.8787 51.691C59.4208 51.8734 60.9573 51.8336 62.4881 51.5718C62.4803 51.3979 62.5192 51.239 62.6048 51.095C63.8298 50.4604 64.8217 49.5466 65.5805 48.3536C65.7122 48.1336 65.7705 47.8953 65.7556 47.6384C66.105 47.4341 66.319 47.1163 66.3974 46.6848C66.5778 46.0615 66.6751 45.4258 66.6891 44.7777C66.7044 44.6733 66.6656 44.5938 66.5724 44.5393C64.7322 43.7293 63.3512 42.4182 62.4298 40.6059C62.2899 39.5256 61.8426 38.6117 61.0878 37.8645C60.8856 37.3799 60.5355 37.062 60.0375 36.9109C59.1742 36.4202 58.299 35.9434 57.4119 35.4806C56.6546 32.7438 55.9155 30.0023 55.1947 27.2562C55.1527 27.0272 55.0554 26.8285 54.903 26.6602C52.997 28.4878 51.0909 30.3155 49.1849 32.1431C48.0782 30.3586 47.2224 28.4515 46.6177 26.4218C45.9908 27.0619 45.4073 27.7374 44.8672 28.4481C44.358 27.5836 43.9495 26.6699 43.6419 25.7066C42.032 23.8613 40.7484 21.7953 39.791 19.5085C39.882 14.2171 42.1576 10.2241 46.6177 7.52952C47.0989 7.24381 47.6045 7.0252 48.1347 6.87395C48.3016 6.86453 48.4572 6.90422 48.6015 6.99314C49.5453 6.62149 50.5178 6.36332 51.5188 6.21838C51.6216 6.13399 51.6994 6.03458 51.7522 5.92039Z" fill="#ADC178"/>
<path fill-rule="evenodd" clip-rule="evenodd" d="M51.7523 5.91992C51.6994 6.03411 51.6217 6.13352 51.5189 6.21791C50.5179 6.36285 49.5454 6.62102 48.6015 6.99267C48.4573 6.90375 48.3016 6.86406 48.1348 6.87348C49.2589 6.27846 50.4647 5.96057 51.7523 5.91992Z" fill="#ADC178"/>
<path fill-rule="evenodd" clip-rule="evenodd" d="M20.9448 6.75439C22.9646 8.65852 24.9484 10.6054 26.8962 12.5949C25.895 14.274 24.4946 15.446 22.6952 16.1111C21.6093 16.25 20.5202 16.3493 19.4277 16.4091C19.7693 13.1636 20.2749 9.94535 20.9448 6.75439Z" fill="#2F3447"/>
<path fill-rule="evenodd" clip-rule="evenodd" d="M30.7454 10.2109C30.5159 9.99583 30.3018 9.75744 30.1036 9.49569C30.0921 9.8559 29.9948 10.1738 29.8118 10.4492C29.7224 7.86976 30.0337 7.79026 30.7454 10.2109Z" fill="#97744C"/>
<path fill-rule="evenodd" clip-rule="evenodd" d="M30.7486 10.2113C30.7486 10.251 30.7486 10.2908 30.7486 10.3305C30.8136 11.2323 31.047 12.0666 31.4488 12.8335C31.6888 15.2479 31.8055 17.6715 31.7989 20.1044C31.6068 22.1227 31.0622 24.0298 30.1651 25.8257C30.0873 25.5873 30.0096 25.3489 29.9317 25.1105C29.585 22.7493 28.3597 21.0408 26.2559 19.9852C26.3468 19.5628 26.5608 19.2052 26.8977 18.9124C27.0517 18.7406 27.2461 18.6612 27.4812 18.6741C27.4447 18.2316 27.6198 17.9137 28.0063 17.7205C28.3631 16.6237 28.6937 15.5112 28.9982 14.3831C29.2846 13.0612 29.5569 11.7501 29.815 10.4496C29.998 10.1742 30.0953 9.8563 30.1068 9.49609C30.305 9.75784 30.5191 9.99623 30.7486 10.2113Z" fill="#A98467"/>
<path fill-rule="evenodd" clip-rule="evenodd" d="M30.748 10.3306C31.0979 11.1193 31.3313 11.9536 31.4482 12.8336C31.0464 12.0668 30.813 11.2324 30.748 10.3306Z" fill="#97744C"/>
<path fill-rule="evenodd" clip-rule="evenodd" d="M66.2207 14.6216C66.987 16.3505 67.3371 18.1781 67.271 20.1045C67.0559 19.9068 66.9392 19.6486 66.9209 19.3298C67.0069 18.3924 66.9485 17.4586 66.7458 16.5287C66.668 16.2108 66.5903 16.2108 66.5124 16.5287C66.3262 16.2683 66.3067 15.9901 66.4541 15.6943C66.3409 15.3443 66.2631 14.9867 66.2207 14.6216Z" fill="#ADC178"/>
<path fill-rule="evenodd" clip-rule="evenodd" d="M31.4473 12.833C32.0467 15.2349 32.1634 17.6585 31.7973 20.1039C31.804 17.671 31.6873 15.2474 31.4473 12.833Z" fill="#97744C"/>
<path fill-rule="evenodd" clip-rule="evenodd" d="M28.9989 14.3828C28.6945 15.511 28.3639 16.6234 28.007 17.7203C27.6205 17.9135 27.4455 18.2314 27.4819 18.6738C27.2469 18.6609 27.0525 18.7403 26.8984 18.9122C27.7134 17.4428 28.4136 15.9329 28.9989 14.3828Z" fill="#97744C"/>
<path fill-rule="evenodd" clip-rule="evenodd" d="M19.6588 24.1568C20.7692 24.1231 21.8583 24.262 22.9262 24.574C20.0332 24.6581 17.4465 25.5919 15.166 27.375C15.8572 25.9516 16.9658 24.9783 18.4918 24.4548C18.9047 24.391 19.2937 24.2917 19.6588 24.1568Z" fill="#F1F4F6"/>
<path fill-rule="evenodd" clip-rule="evenodd" d="M29.9309 25.1104C30.0087 25.3487 30.0865 25.5871 30.1643 25.8255C30.1573 25.8902 30.1184 25.9299 30.0476 25.9447C29.9339 25.6774 29.895 25.3993 29.9309 25.1104Z" fill="#944E47"/>
<path fill-rule="evenodd" clip-rule="evenodd" d="M68.9062 23.7993C69.4017 25.1066 69.7907 26.4576 70.0732 27.8519C69.957 27.8622 69.8598 27.8224 69.7815 27.7327C69.5699 26.3924 69.2782 25.0813 68.9062 23.7993Z" fill="#ADC178"/>
<path fill-rule="evenodd" clip-rule="evenodd" d="M54.6683 27.8516C55.2881 30.1446 55.9105 32.449 56.5354 34.7648C53.8269 35.6924 51.5319 35.0766 49.6504 32.9173C51.317 31.195 52.9896 29.5063 54.6683 27.8516Z" fill="#303649"/>
<path fill-rule="evenodd" clip-rule="evenodd" d="M14.6417 19.5088C14.5495 19.663 14.4328 19.8021 14.2916 19.926C14.436 19.9536 14.5527 20.0132 14.6417 20.1048C14.1793 20.6368 13.693 21.1534 13.183 21.6543C12.3938 22.671 11.8882 23.8233 11.666 25.1109C10.3902 27.2882 8.65913 28.9769 6.47309 30.1767C7.57107 30.3425 8.66018 30.5411 9.74054 30.7727C8.86055 31.6915 7.96585 32.5855 7.05657 33.4545C7.59278 34.5904 8.27346 35.6234 9.09872 36.5536C10.4352 37.9911 12.069 38.8254 13.9999 39.0567C16.5103 38.5686 18.9414 38.8268 21.2933 39.8314C22.6353 40.4075 23.5883 41.3809 24.1523 42.7517C24.4634 44.1019 24.7747 45.4529 25.0859 46.8043C25.7424 48.6662 26.7732 50.2753 28.1783 51.6317C26.27 50.405 24.9085 48.6965 24.094 46.5063C22.5283 46.6105 21.1668 47.2064 20.0097 48.2942C17.9336 50.5135 16.4165 53.0762 15.4586 55.9822C15.4256 55.8882 15.3672 55.8087 15.2835 55.7439C15.1257 55.8851 14.9895 56.0441 14.8751 56.2206C14.7952 55.9488 14.7758 55.6707 14.8168 55.3863C14.7675 55.6158 14.6313 55.735 14.4083 55.7439C15.1987 54.2484 15.9572 52.7386 16.6839 51.2145C17.5645 49.5193 18.7119 48.0294 20.1264 46.7447C21.1837 45.8872 22.3895 45.4302 23.7439 45.374C23.6178 44.2126 23.2483 43.1399 22.6353 42.1557C21.4296 40.9143 19.9709 40.1991 18.2593 40.0102C18.2463 39.9367 18.2074 39.8771 18.1426 39.8314C16.2726 39.8042 14.4055 39.7446 12.5412 39.6526C11.5987 39.4259 10.743 39.0087 9.97393 38.4011C7.42591 36.1737 5.83116 33.3726 5.18945 29.9979C7.33733 29.1467 9.02941 27.7164 10.2657 25.7069C10.9555 23.063 12.4141 20.997 14.6417 19.5088Z" fill="#F7F5F6"/>
<path fill-rule="evenodd" clip-rule="evenodd" d="M46.0328 28.9248C46.8089 32.1554 48.0537 35.1949 49.767 38.0432C48.4112 39.6493 47.4972 41.4968 47.0247 43.5857C46.591 42.429 45.9687 41.396 45.1575 40.4867C44.3841 36.5447 44.6758 32.6907 46.0328 28.9248Z" fill="#303548"/>
<path fill-rule="evenodd" clip-rule="evenodd" d="M6.47308 31.4277C6.58125 31.6752 6.77567 31.8143 7.05655 31.8449C6.65675 31.9925 6.46234 31.8534 6.47308 31.4277Z" fill="#6B6567"/>
<path fill-rule="evenodd" clip-rule="evenodd" d="M60.0371 36.9102C60.535 37.0613 60.8851 37.3792 61.0874 37.8637C60.7342 37.5425 60.3842 37.2246 60.0371 36.9102Z" fill="#ADC178"/>
<path fill-rule="evenodd" clip-rule="evenodd" d="M45.3357 44.3005C45.1106 44.3326 44.9161 44.273 44.7522 44.1217C45.0039 43.9924 45.0234 43.8534 44.8105 43.7045C44.6938 43.7442 44.5771 43.784 44.4604 43.8237C44.3898 43.5876 44.2732 43.5478 44.1104 43.7045C43.8639 43.6183 43.6305 43.4992 43.4102 43.3469C43.106 43.5007 42.9504 43.3815 42.9434 42.9894C42.5426 43.1045 42.1341 43.1045 41.7181 42.9894C41.1439 42.7553 40.5604 42.5567 39.9677 42.3934C39.6629 42.2896 39.3517 42.2102 39.0341 42.155C38.5697 43.9777 37.85 45.6861 36.8753 47.2804C36.6224 47.5386 36.3697 47.7968 36.1168 48.0551C35.0192 48.6939 33.9689 49.3893 32.966 50.141C31.1403 48.7549 30.2846 46.8875 30.3987 44.5389C30.5573 43.9366 30.7712 43.3406 31.0406 42.751C31.3282 42.2817 31.5811 41.8049 31.7991 41.3206C32.7767 40.3642 33.9437 39.7483 35.2999 39.4731C38.9172 39.047 41.9708 40.1794 44.4604 42.8702C44.7839 43.3336 45.0757 43.8104 45.3357 44.3005Z" fill="#2F3548"/>
<path fill-rule="evenodd" clip-rule="evenodd" d="M12.5449 39.6523C14.4092 39.7444 16.2763 39.804 18.1463 39.8311C18.2111 39.8768 18.25 39.9364 18.263 40.0099C16.8644 39.8603 15.464 39.8603 14.062 40.0099C13.5058 40.0537 13.0001 39.9345 12.5449 39.6523Z" fill="#FBE1DF"/>
<path fill-rule="evenodd" clip-rule="evenodd" d="M31.7958 41.3208C31.5778 41.8051 31.325 42.2819 31.0373 42.7511C30.768 43.3408 30.5541 43.9368 30.3955 44.539C30.4479 44.2065 30.4479 43.8887 30.3955 43.5855C30.2875 43.7215 30.1902 43.7215 30.1037 43.5855C30.103 43.9149 29.967 44.1533 29.6953 44.3007C30.1216 43.1097 30.8218 42.1164 31.7958 41.3208Z" fill="#97744C"/>
<path fill-rule="evenodd" clip-rule="evenodd" d="M55.603 41.3211C57.5895 41.1836 59.1453 41.9385 60.2708 43.5857C60.2513 43.6254 60.2319 43.6652 60.2124 43.7049C58.3518 42.4819 56.3097 41.8263 54.0859 41.7382C54.6016 41.5771 55.1072 41.438 55.603 41.3211Z" fill="#373D4E"/>
<path fill-rule="evenodd" clip-rule="evenodd" d="M39.9668 42.3936C40.5595 42.5569 41.143 42.7554 41.7172 42.9895C42.0328 43.1887 42.344 43.3873 42.6508 43.5855C42.5001 43.5572 42.3834 43.5969 42.3007 43.7047C41.5186 43.2658 40.7407 42.8287 39.9668 42.3936Z" fill="#97744C"/>
<path fill-rule="evenodd" clip-rule="evenodd" d="M41.7168 42.9897C42.1328 43.1049 42.5412 43.1049 42.9421 42.9897C42.9491 43.3819 43.1046 43.5011 43.4089 43.3473C43.6292 43.4995 43.8626 43.6187 44.109 43.7049C44.2718 43.5482 44.3885 43.588 44.4591 43.8241C44.5758 43.7844 44.6925 43.7446 44.8092 43.7049C45.0221 43.8538 45.0026 43.9928 44.7509 44.1221C44.9148 44.2733 45.1092 44.3329 45.3343 44.3009C45.8013 44.9345 46.1126 45.6497 46.2679 46.4464C46.1901 46.4067 46.1123 46.3669 46.0345 46.3272C45.1502 45.1068 44.0221 44.1929 42.6504 43.5857C42.3436 43.3875 42.0323 43.1889 41.7168 42.9897Z" fill="#3D344E"/>
<path fill-rule="evenodd" clip-rule="evenodd" d="M66.6877 44.7778C66.6737 45.4259 66.5764 46.0616 66.396 46.6849C66.3176 47.1164 66.1035 47.4342 65.7542 47.6385C65.3949 46.9467 64.9476 46.311 64.4122 45.7314C64.3558 45.6184 64.3364 45.4992 64.3538 45.3738C65.1438 45.224 65.9218 45.0254 66.6877 44.7778Z" fill="#343748"/>
<path fill-rule="evenodd" clip-rule="evenodd" d="M42.6509 43.5855C44.0226 44.1926 45.1507 45.1065 46.035 46.3269C46.1062 46.5575 46.2229 46.7562 46.3851 46.9229C46.4832 47.1469 46.5222 47.3853 46.5018 47.6381C46.5385 48.0995 46.4997 48.5366 46.3851 48.9492C45.5381 46.774 44.1766 45.0258 42.3008 43.7047C42.3835 43.5969 42.5002 43.5572 42.6509 43.5855Z" fill="#D1A470"/>
<path fill-rule="evenodd" clip-rule="evenodd" d="M46.0332 46.3271C46.111 46.3668 46.1888 46.4067 46.2666 46.4463C46.3756 46.5736 46.4146 46.7325 46.3833 46.9231C46.2211 46.7564 46.1044 46.5577 46.0332 46.3271Z" fill="#97744C"/>
<path fill-rule="evenodd" clip-rule="evenodd" d="M69.0234 47.7578C68.9788 48.2146 68.8233 48.6118 68.5566 48.9498C68.5848 48.4805 68.7403 48.0832 69.0234 47.7578Z" fill="#ADC178"/>
<path fill-rule="evenodd" clip-rule="evenodd" d="M46.5015 47.6387C46.6358 48.2525 46.6551 48.8883 46.5598 49.5458C46.4889 49.3486 46.4305 49.1499 46.3848 48.9498C46.4994 48.5372 46.5382 48.1001 46.5015 47.6387Z" fill="#97744C"/>
<path fill-rule="evenodd" clip-rule="evenodd" d="M62.606 51.0952C62.5204 51.2392 62.4815 51.3981 62.4893 51.572C60.9585 51.8337 59.422 51.8736 57.8799 51.6912C57.7778 51.9311 57.6221 51.9311 57.4131 51.6912C56.9408 51.816 56.474 51.816 56.0128 51.6912C55.416 51.8583 54.8132 51.8981 54.204 51.8104C53.9855 51.8082 53.9466 51.8678 54.0873 51.9892C53.5344 52.0502 52.9898 52.1495 52.4536 52.2872C52.2518 52.5674 52.174 52.8853 52.2202 53.2407C52.0874 52.9065 52.0679 52.5489 52.1619 52.168C53.6521 51.6522 55.1886 51.4138 56.7713 51.4528C58.1321 51.5654 59.4934 51.625 60.8556 51.6316C61.4587 51.5075 62.0422 51.3287 62.606 51.0952Z" fill="#ADC178"/>
<path fill-rule="evenodd" clip-rule="evenodd" d="M50.7032 52.6445C50.8199 52.6445 50.9366 52.6445 51.0533 52.6445C51.4501 57.8618 51.3334 63.0665 50.7032 68.259C50.2365 68.3782 49.7697 68.4974 49.3029 68.6166C49.3811 64.7243 48.5059 61.0689 46.6773 57.6507C46.495 56.8155 46.6506 56.0605 47.1441 55.386C48.1536 54.2135 49.34 53.2997 50.7032 52.6445Z" fill="#2F3447"/>
<path fill-rule="evenodd" clip-rule="evenodd" d="M30.3947 44.5395C30.2806 46.8881 31.1363 48.7555 32.962 50.1416C32.952 50.2603 32.991 50.3596 33.0787 50.4396C34.5763 51.4925 35.8405 52.7838 36.8713 54.3134C37.612 55.7177 37.6897 57.148 37.1047 58.6044C36.5442 56.244 35.3578 54.2773 33.5455 52.7043C32.2813 51.7308 31.1727 50.5985 30.2197 49.3073C29.2826 47.7046 29.1076 46.0359 29.6946 44.3011C29.9662 44.1538 30.1023 43.9154 30.103 43.5859C30.1895 43.7219 30.2868 43.7219 30.3947 43.5859C30.4471 43.8892 30.4471 44.2069 30.3947 44.5395Z" fill="#D1A470"/>
<path fill-rule="evenodd" clip-rule="evenodd" d="M6.82617 57.293C6.94287 57.293 7.05956 57.293 7.17626 57.293C7.17626 57.4519 7.17626 57.6109 7.17626 57.7697C8.07095 57.7697 8.96553 57.7697 9.86023 57.7697C8.945 57.9271 8.01144 57.9271 7.05956 57.7697C6.9277 57.636 6.84986 57.477 6.82617 57.293Z" fill="#DD6254"/>
<path d="M88.0063 41.448C87.7929 41.448 87.6116 41.3733 87.4622 41.224C87.3129 41.096 87.2383 40.9147 87.2383 40.68V33.768C87.2383 33.5547 87.3129 33.3733 87.4622 33.224C87.6116 33.0747 87.7929 33 88.0063 33H88.6463C89.1583 33 89.5956 32.7653 89.9583 32.296C90.3209 31.8053 90.6196 31.1013 90.8543 30.184C91.0889 29.2453 91.2596 28.0933 91.3663 26.728C91.4729 25.3627 91.5263 23.8053 91.5263 22.056V15.368C91.5263 15.1547 91.6009 14.9733 91.7503 14.824C91.8996 14.6747 92.0916 14.6 92.3263 14.6H106.054C106.289 14.6 106.481 14.6747 106.63 14.824C106.78 14.9733 106.854 15.1653 106.854 15.4V33H108.39C108.625 33 108.817 33.0747 108.966 33.224C109.116 33.3733 109.19 33.5547 109.19 33.768V40.68C109.19 40.9147 109.116 41.096 108.966 41.224C108.817 41.3733 108.625 41.448 108.39 41.448H105.51C105.276 41.448 105.084 41.3733 104.934 41.224C104.806 41.096 104.742 40.9147 104.742 40.68V37H91.6863V40.68C91.6863 40.9147 91.6116 41.096 91.4623 41.224C91.3129 41.3733 91.1209 41.448 90.8863 41.448H88.0063ZM94.0863 33H102.406V18.6H95.8463V22.632C95.8463 25.2773 95.6969 27.4427 95.3983 29.128C95.0996 30.792 94.6623 32.0827 94.0863 33ZM121.354 37.32C119.455 37.32 117.823 37.0107 116.458 36.392C115.093 35.752 114.026 34.7813 113.258 33.48C112.49 32.1573 112.074 30.5147 112.01 28.552C111.989 27.6347 111.978 26.728 111.978 25.832C111.978 24.936 111.989 24.0187 112.01 23.08C112.074 21.1387 112.501 19.5173 113.29 18.216C114.079 16.9147 115.157 15.9333 116.522 15.272C117.909 14.6107 119.519 14.28 121.354 14.28C123.189 14.28 124.799 14.6107 126.186 15.272C127.573 15.9333 128.661 16.9147 129.45 18.216C130.239 19.5173 130.666 21.1387 130.73 23.08C130.773 24.0187 130.794 24.936 130.794 25.832C130.794 26.728 130.773 27.6347 130.73 28.552C130.666 30.5147 130.25 32.1573 129.482 33.48C128.714 34.7813 127.637 35.752 126.25 36.392C124.885 37.0107 123.253 37.32 121.354 37.32ZM121.354 33.64C122.741 33.64 123.871 33.2347 124.746 32.424C125.621 31.592 126.09 30.248 126.154 28.392C126.197 27.4533 126.218 26.5893 126.218 25.8C126.218 24.9893 126.197 24.1253 126.154 23.208C126.111 21.9707 125.877 20.968 125.45 20.2C125.045 19.4107 124.49 18.8453 123.786 18.504C123.082 18.1413 122.271 17.96 121.354 17.96C120.458 17.96 119.658 18.1413 118.954 18.504C118.25 18.8453 117.685 19.4107 117.258 20.2C116.853 20.968 116.629 21.9707 116.586 23.208C116.565 24.1253 116.554 24.9893 116.554 25.8C116.554 26.5893 116.565 27.4533 116.586 28.392C116.65 30.248 117.119 31.592 117.994 32.424C118.869 33.2347 119.989 33.64 121.354 33.64ZM135.764 37C135.551 37 135.369 36.9253 135.22 36.776C135.071 36.6267 134.996 36.4453 134.996 36.232V15.4C134.996 15.1653 135.071 14.9733 135.22 14.824C135.369 14.6747 135.551 14.6 135.764 14.6H150.42C150.655 14.6 150.836 14.6747 150.964 14.824C151.113 14.9733 151.188 15.1653 151.188 15.4V17.64C151.188 17.8533 151.113 18.0347 150.964 18.184C150.836 18.3333 150.655 18.408 150.42 18.408H139.444V23.528H144.852C147.263 23.528 149.151 24.1253 150.516 25.32C151.881 26.5147 152.564 28.136 152.564 30.184C152.564 31.0587 152.393 31.912 152.052 32.744C151.732 33.5547 151.252 34.28 150.612 34.92C149.972 35.56 149.172 36.072 148.212 36.456C147.252 36.8187 146.132 37 144.852 37H135.764ZM139.444 33.608H144.404C145.172 33.608 145.823 33.448 146.356 33.128C146.889 32.808 147.295 32.3813 147.572 31.848C147.849 31.3147 147.988 30.7387 147.988 30.12C147.988 29.1813 147.689 28.4027 147.092 27.784C146.495 27.1653 145.599 26.856 144.404 26.856H139.444V33.608ZM156.514 37C156.301 37 156.119 36.9253 155.97 36.776C155.821 36.6267 155.746 36.4453 155.746 36.232V15.4C155.746 15.1653 155.821 14.9733 155.97 14.824C156.119 14.6747 156.301 14.6 156.514 14.6H165.09C166.754 14.6 168.205 14.8667 169.442 15.4C170.679 15.912 171.639 16.7013 172.322 17.768C173.005 18.8133 173.346 20.1253 173.346 21.704C173.346 23.304 173.005 24.6267 172.322 25.672C171.639 26.696 170.679 27.464 169.442 27.976C168.205 28.488 166.754 28.744 165.09 28.744H160.322V36.232C160.322 36.4453 160.247 36.6267 160.098 36.776C159.97 36.9253 159.789 37 159.554 37H156.514ZM160.258 25.192H164.93C166.167 25.192 167.117 24.904 167.778 24.328C168.439 23.7307 168.77 22.856 168.77 21.704C168.77 20.6373 168.461 19.784 167.842 19.144C167.223 18.4827 166.253 18.152 164.93 18.152H160.258V25.192ZM185.448 37.32C183.549 37.32 181.917 37.0107 180.552 36.392C179.186 35.752 178.12 34.7813 177.352 33.48C176.584 32.1573 176.168 30.5147 176.104 28.552C176.082 27.6347 176.072 26.728 176.072 25.832C176.072 24.936 176.082 24.0187 176.104 23.08C176.168 21.1387 176.594 19.5173 177.384 18.216C178.173 16.9147 179.25 15.9333 180.616 15.272C182.002 14.6107 183.613 14.28 185.448 14.28C187.282 14.28 188.893 14.6107 190.28 15.272C191.666 15.9333 192.754 16.9147 193.544 18.216C194.333 19.5173 194.76 21.1387 194.824 23.08C194.866 24.0187 194.888 24.936 194.888 25.832C194.888 26.728 194.866 27.6347 194.824 28.552C194.76 30.5147 194.344 32.1573 193.576 33.48C192.808 34.7813 191.73 35.752 190.344 36.392C188.978 37.0107 187.346 37.32 185.448 37.32ZM185.448 33.64C186.834 33.64 187.965 33.2347 188.84 32.424C189.714 31.592 190.184 30.248 190.248 28.392C190.29 27.4533 190.312 26.5893 190.312 25.8C190.312 24.9893 190.29 24.1253 190.248 23.208C190.205 21.9707 189.97 20.968 189.544 20.2C189.138 19.4107 188.584 18.8453 187.88 18.504C187.176 18.1413 186.365 17.96 185.448 17.96C184.552 17.96 183.752 18.1413 183.048 18.504C182.344 18.8453 181.778 19.4107 181.352 20.2C180.946 20.968 180.722 21.9707 180.68 23.208C180.658 24.1253 180.648 24.9893 180.648 25.8C180.648 26.5893 180.658 27.4533 180.68 28.392C180.744 30.248 181.213 31.592 182.088 32.424C182.962 33.2347 184.082 33.64 185.448 33.64Z" fill="black"/>
<path d="M89.8019 61C89.6885 61 89.5922 60.9603 89.5129 60.881C89.4335 60.8017 89.3939 60.7053 89.3939 60.592V49.525C89.3939 49.4003 89.4335 49.2983 89.5129 49.219C89.5922 49.1397 89.6885 49.1 89.8019 49.1H97.5879C97.7125 49.1 97.8089 49.1397 97.8769 49.219C97.9562 49.2983 97.9959 49.4003 97.9959 49.525V50.715C97.9959 50.8283 97.9562 50.9247 97.8769 51.004C97.8089 51.0833 97.7125 51.123 97.5879 51.123H91.7569V53.843H94.6299C95.9105 53.843 96.9135 54.1603 97.6389 54.795C98.3642 55.4297 98.7269 56.291 98.7269 57.379C98.7269 57.8437 98.6362 58.297 98.4549 58.739C98.2849 59.1697 98.0299 59.555 97.6899 59.895C97.3499 60.235 96.9249 60.507 96.4149 60.711C95.9049 60.9037 95.3099 61 94.6299 61H89.8019ZM91.7569 59.198H94.3919C94.7999 59.198 95.1455 59.113 95.4289 58.943C95.7122 58.773 95.9275 58.5463 96.0749 58.263C96.2222 57.9797 96.2959 57.6737 96.2959 57.345C96.2959 56.8463 96.1372 56.4327 95.8199 56.104C95.5025 55.7753 95.0265 55.611 94.3919 55.611H91.7569V59.198ZM100.825 61C100.712 61 100.616 60.9603 100.536 60.881C100.457 60.8017 100.417 60.7053 100.417 60.592V49.525C100.417 49.4003 100.457 49.2983 100.536 49.219C100.616 49.1397 100.712 49.1 100.825 49.1H108.305C108.43 49.1 108.532 49.1397 108.611 49.219C108.691 49.2983 108.73 49.4003 108.73 49.525V50.647C108.73 50.7603 108.691 50.8567 108.611 50.936C108.532 51.0153 108.43 51.055 108.305 51.055H102.712V54.064H107.931C108.056 54.064 108.158 54.1037 108.237 54.183C108.317 54.251 108.356 54.3473 108.356 54.472V55.526C108.356 55.6507 108.317 55.7527 108.237 55.832C108.158 55.9 108.056 55.934 107.931 55.934H102.712V59.045H108.441C108.566 59.045 108.668 59.0847 108.747 59.164C108.827 59.2433 108.866 59.3453 108.866 59.47V60.592C108.866 60.7053 108.827 60.8017 108.747 60.881C108.668 60.9603 108.566 61 108.441 61H100.825ZM115.022 61.17C114.24 61.17 113.56 61.085 112.982 60.915C112.404 60.7337 111.928 60.4957 111.554 60.201C111.18 59.9063 110.885 59.572 110.67 59.198C110.466 58.8127 110.347 58.416 110.313 58.008C110.301 57.906 110.33 57.8267 110.398 57.77C110.477 57.702 110.568 57.668 110.67 57.668H112.2C112.313 57.668 112.409 57.6963 112.489 57.753C112.568 57.7983 112.636 57.8833 112.693 58.008C112.829 58.3707 113.084 58.6653 113.458 58.892C113.832 59.1187 114.336 59.232 114.971 59.232C115.447 59.232 115.866 59.164 116.229 59.028C116.591 58.892 116.875 58.6993 117.079 58.45C117.294 58.1893 117.402 57.8833 117.402 57.532C117.402 56.9767 117.198 56.5517 116.79 56.257C116.393 55.9623 115.838 55.815 115.124 55.815H113.9C113.775 55.815 113.673 55.7753 113.594 55.696C113.526 55.6053 113.492 55.5033 113.492 55.39V54.404C113.492 54.2793 113.526 54.1773 113.594 54.098C113.673 54.0187 113.775 53.979 113.9 53.979H115.073C115.662 53.979 116.138 53.8543 116.501 53.605C116.875 53.3557 117.062 52.959 117.062 52.415C117.062 52.109 116.971 51.8427 116.79 51.616C116.62 51.378 116.382 51.1967 116.076 51.072C115.77 50.9473 115.418 50.885 115.022 50.885C114.421 50.885 113.928 50.987 113.543 51.191C113.157 51.395 112.919 51.7067 112.829 52.126C112.783 52.2393 112.727 52.3243 112.659 52.381C112.591 52.4263 112.5 52.449 112.387 52.449H110.806C110.704 52.449 110.613 52.415 110.534 52.347C110.466 52.279 110.437 52.194 110.449 52.092C110.483 51.6727 110.596 51.276 110.789 50.902C110.993 50.5167 111.282 50.1767 111.656 49.882C112.03 49.5873 112.494 49.355 113.05 49.185C113.616 49.015 114.285 48.93 115.056 48.93C116.008 48.93 116.807 49.0887 117.453 49.406C118.099 49.712 118.592 50.1143 118.932 50.613C119.283 51.1003 119.459 51.6387 119.459 52.228C119.459 52.534 119.419 52.8457 119.34 53.163C119.26 53.469 119.119 53.758 118.915 54.03C118.722 54.302 118.456 54.54 118.116 54.744C118.524 54.948 118.852 55.203 119.102 55.509C119.362 55.8037 119.549 56.1323 119.663 56.495C119.787 56.8577 119.85 57.226 119.85 57.6C119.85 58.314 119.651 58.9373 119.255 59.47C118.869 60.0027 118.314 60.422 117.589 60.728C116.863 61.0227 116.008 61.17 115.022 61.17ZM126.276 61C126.162 61 126.066 60.9603 125.987 60.881C125.907 60.8017 125.868 60.7053 125.868 60.592V49.525C125.868 49.4003 125.907 49.2983 125.987 49.219C126.066 49.1397 126.162 49.1 126.276 49.1H133.212C133.336 49.1 133.438 49.1397 133.518 49.219C133.597 49.2983 133.637 49.4003 133.637 49.525V50.715C133.637 50.8283 133.597 50.9247 133.518 51.004C133.438 51.0833 133.336 51.123 133.212 51.123H128.231V60.592C128.231 60.7053 128.191 60.8017 128.112 60.881C128.044 60.9603 127.947 61 127.823 61H126.276ZM135.506 61C135.393 61 135.296 60.9603 135.217 60.881C135.138 60.8017 135.098 60.7053 135.098 60.592V49.525C135.098 49.4003 135.138 49.2983 135.217 49.219C135.296 49.1397 135.393 49.1 135.506 49.1H140.062C140.946 49.1 141.717 49.2417 142.374 49.525C143.031 49.797 143.541 50.2163 143.904 50.783C144.267 51.3383 144.448 52.0353 144.448 52.874C144.448 53.724 144.267 54.4267 143.904 54.982C143.541 55.526 143.031 55.934 142.374 56.206C141.717 56.478 140.946 56.614 140.062 56.614H137.529V60.592C137.529 60.7053 137.489 60.8017 137.41 60.881C137.342 60.9603 137.246 61 137.121 61H135.506ZM137.495 54.727H139.977C140.634 54.727 141.139 54.574 141.49 54.268C141.841 53.9507 142.017 53.486 142.017 52.874C142.017 52.3073 141.853 51.854 141.524 51.514C141.195 51.1627 140.68 50.987 139.977 50.987H137.495V54.727ZM145.573 61C145.482 61 145.397 60.966 145.318 60.898C145.25 60.83 145.216 60.745 145.216 60.643C145.216 60.5977 145.227 60.5467 145.25 60.49L149.347 49.525C149.381 49.4117 149.443 49.3153 149.534 49.236C149.636 49.1453 149.772 49.1 149.942 49.1H151.795C151.965 49.1 152.095 49.1453 152.186 49.236C152.277 49.3153 152.345 49.4117 152.39 49.525L156.487 60.49C156.498 60.5467 156.504 60.5977 156.504 60.643C156.504 60.745 156.47 60.83 156.402 60.898C156.334 60.966 156.255 61 156.164 61H154.685C154.526 61 154.407 60.966 154.328 60.898C154.26 60.8187 154.215 60.745 154.192 60.677L153.393 58.603H148.344L147.545 60.677C147.522 60.745 147.471 60.8187 147.392 60.898C147.324 60.966 147.211 61 147.052 61H145.573ZM148.939 56.648H152.798L150.86 51.395L148.939 56.648ZM158.499 61C158.386 61 158.289 60.966 158.21 60.898C158.131 60.8187 158.091 60.7167 158.091 60.592V49.525C158.091 49.4003 158.131 49.2983 158.21 49.219C158.289 49.1397 158.386 49.1 158.499 49.1H160.046C160.171 49.1 160.267 49.1397 160.335 49.219C160.414 49.2983 160.454 49.4003 160.454 49.525V53.911H165.469V49.525C165.469 49.4003 165.509 49.2983 165.588 49.219C165.667 49.1397 165.764 49.1 165.877 49.1H167.407C167.532 49.1 167.634 49.1397 167.713 49.219C167.792 49.2983 167.832 49.4003 167.832 49.525V60.592C167.832 60.7053 167.792 60.8017 167.713 60.881C167.634 60.9603 167.532 61 167.407 61H165.877C165.764 61 165.667 60.9603 165.588 60.881C165.509 60.8017 165.469 60.7053 165.469 60.592V56.036H160.454V60.592C160.454 60.7053 160.414 60.8017 160.335 60.881C160.267 60.9603 160.171 61 160.046 61H158.499ZM170.884 61C170.771 61 170.674 60.9603 170.595 60.881C170.516 60.8017 170.476 60.6997 170.476 60.575V49.525C170.476 49.4003 170.516 49.2983 170.595 49.219C170.674 49.1397 170.776 49.1 170.901 49.1H172.431C172.556 49.1 172.652 49.1397 172.72 49.219C172.799 49.2983 172.839 49.4003 172.839 49.525V57.328L178.432 49.372C178.477 49.3153 178.54 49.2587 178.619 49.202C178.698 49.134 178.8 49.1 178.925 49.1H180.336C180.449 49.1 180.546 49.1397 180.625 49.219C180.704 49.2983 180.744 49.4003 180.744 49.525V60.592C180.744 60.7053 180.704 60.8017 180.625 60.881C180.546 60.9603 180.449 61 180.336 61H178.806C178.681 61 178.579 60.9603 178.5 60.881C178.421 60.8017 178.381 60.7053 178.381 60.592V52.942L172.805 60.728C172.771 60.7733 172.714 60.83 172.635 60.898C172.556 60.966 172.448 61 172.312 61H170.884ZM192.419 63.38C192.294 63.38 192.192 63.3403 192.113 63.261C192.045 63.1817 192.011 63.0853 192.011 62.972V61H183.8C183.687 61 183.59 60.9603 183.511 60.881C183.432 60.8017 183.392 60.6997 183.392 60.575V49.508C183.392 49.3833 183.432 49.287 183.511 49.219C183.59 49.1397 183.687 49.1 183.8 49.1H185.347C185.472 49.1 185.568 49.1397 185.636 49.219C185.715 49.2983 185.755 49.3947 185.755 49.508V58.875H190.77V49.508C190.77 49.3947 190.81 49.2983 190.889 49.219C190.968 49.1397 191.065 49.1 191.178 49.1H192.708C192.833 49.1 192.935 49.1397 193.014 49.219C193.093 49.2983 193.133 49.3947 193.133 49.508V58.875H193.949C194.074 58.875 194.176 58.9147 194.255 58.994C194.334 59.0733 194.374 59.1697 194.374 59.283V62.972C194.374 63.0853 194.334 63.1817 194.255 63.261C194.176 63.3403 194.074 63.38 193.949 63.38H192.419Z" fill="black"/>
</svg>
